<svg width="561" height="564" viewBox="0 0 561 564" fill="none" xmlns="http://www.w3.org/2000/svg">
<g clip-path="url(#clip0_2_209)">
<rect width="560.13" height="563.51" fill="#FED58D"/>
<path d="M483.36 569.83H305.74C305.018 568.977 304.126 568.284 303.12 567.796C302.114 567.309 301.017 567.038 299.9 567C260.76 556.7 221.6 546.51 182.52 536C175.96 534.23 168.85 533.8 163.17 529.19C158.4 525.32 154.67 517.55 149.17 518.03C143.97 518.49 139.09 524.58 134.43 528.62C131.01 531.62 129.68 530.02 128.24 526.88C125.57 521.04 122.72 515.27 120.03 509.43C118.65 506.43 116.82 504.43 113.2 504C105.2 503.13 97.2 501.92 89.2 500.85C90.26 494.29 88.64 490.2 80.83 491.57C80 491.71 79.03 491.08 78.12 490.82C76.75 476.82 74.74 462.93 74.24 448.94C73.96 441.17 71.44 437.7 63.83 437.94V418.14C68.83 414.26 68.83 411.24 63.99 407.9C63.9033 402.193 63.81 396.48 63.71 390.76C64.71 389.76 65.62 388.76 66.58 387.76L104.09 390.76C108.8 392.23 114.36 390.89 118.25 395.07C119.83 403.92 115.48 412.13 115.5 420.8C114.92 422.87 114.44 425.13 111.72 425.21C104.1 425.41 99.57 429.72 98.91 436.77C98.21 444.17 102.02 449.77 109.11 452.77L111.11 455.18C111.99 456.63 113.01 456.75 114.11 455.46C114.461 455.363 114.798 455.218 115.11 455.03C118.62 456.1 122.11 457.03 125.26 454.08C132.83 451.91 138.19 445.72 138.1 439.25C138.01 432.58 133.5 428.07 125.38 426.54L123.82 413.92L122.22 410.71C123.02 403.9 120.22 396.52 125.93 390.46C127.51 388.77 126.39 386.29 124.93 384.57C123.07 382.37 120.44 381.29 117.93 382.7C115.2 384.22 112.51 384.1 109.69 384.01L66.53 377.95C60.72 372.76 55.8 372.16 51.91 376.14C48.02 380.12 48.58 384.9 53.82 390.8L53.61 407.95C48.61 411.31 48.94 414.62 53.69 417.9V438.13C45.81 437.55 43.62 441.38 43.31 448.99C42.85 460.33 40.8 471.61 39.42 482.91C35.74 474 31.47 465.2 28.63 456C26.54 449.24 23.04 446.77 16.4 448L-6.6 448.08C-7.0644 448.015 -7.5356 448.015 -8 448.08V48.38C-5.89 45.94 -6.72 42.98 -6.69 40.23C-6.5 25.37 -6.42 10.51 -6.31 -4.34C13.03 -4.43 32.36 -4.59 51.69 -4.59C219.95 -4.59 388.217 -4.59 556.49 -4.59C566.38 -4.59 566.39 -4.59 566.39 5.54C566.39 150.66 566.39 295.787 566.39 440.92C566.39 443.78 566.25 446.64 566.18 449.5C554.5 449.5 542.79 450.01 531.18 449.33C523.18 448.86 517.36 451.38 513.18 458.02C507.18 457.63 502.63 458.34 506.68 466.13C507.13 466.98 506.54 468.37 506.43 469.52C502.331 469.525 498.383 471.062 495.36 473.83C493.3 475.67 490.12 477.6 491.06 480.6C491.82 483.02 495.41 481.29 497.5 482.35L497.41 492.35C495.23 492.83 492.8 491.77 490.76 493.35C494.14 500.68 496.87 502.75 504.76 504.08C505.74 504.798 506.456 505.819 506.797 506.985C507.139 508.151 507.087 509.397 506.65 510.53C503.83 517.53 507.56 524.22 507.01 531.05C506.819 531.126 506.646 531.241 506.501 531.387C506.356 531.533 506.244 531.708 506.17 531.9C502.85 531.78 499.49 531.09 496.27 532.57C490.17 532.75 485.7 535.98 481.46 540.02C476.76 544.49 485.46 544.02 483.88 547.15C483.78 547.34 483.88 547.62 483.88 547.86C483.72 555.173 483.547 562.497 483.36 569.83ZM105.47 68.32C104.82 66.02 104.47 63.32 100.91 64.72C92.55 65.54 87 61.63 82.14 55C76 46.67 68.69 39.11 61.9 31.21C62.07 28.21 61.81 25.41 57.8 25.48C57.3878 25.468 56.9772 25.5379 56.5922 25.6856C56.2071 25.8333 55.8552 26.0558 55.5567 26.3404C55.2582 26.6249 55.019 26.9659 54.8531 27.3434C54.6872 27.721 54.5978 28.1277 54.59 28.54C54.28 32.54 57.28 32.78 60.13 33.1C60.3567 33.1425 60.5805 33.1993 60.8 33.27C66.64 42.86 74.34 51 81.12 59.91C83.87 63.5 86.72 66.39 81.12 70.05C79.8445 70.9642 78.7998 72.1634 78.0689 73.5521C77.3381 74.9409 76.9413 76.481 76.91 78.05C76.82 83.05 74.24 83.2 70.48 82.78C58.65 81.45 46.8 80.27 34.96 79.03C33.34 76.87 31.58 74.83 28.68 77.03C28.2845 77.2934 27.9473 77.6352 27.6893 78.0343C27.4313 78.4333 27.258 78.8811 27.1802 79.3499C27.1024 79.8187 27.1217 80.2985 27.2369 80.7595C27.3521 81.2205 27.5608 81.6529 27.85 82.03C29.51 84.4 31.63 84.45 33.65 82.27C42.09 83.35 50.51 84.59 58.97 85.48C68.55 86.48 78.5 86.48 83.7 96.88C84.28 99.82 86.42 98.43 88.05 98.44C90.93 100.72 94.24 99.91 97.45 99.77C107.22 99.85 116.98 99.95 126.74 99.97C128.32 99.97 130.43 100.61 131.28 98.81C132.33 96.57 129.9 95.61 128.83 94.19C124.54 88.5 118.39 88.19 112.06 88.41C113.13 80.61 113.1 73.22 105.47 68.32ZM362.61 380.79C364.205 380.296 365.762 379.687 367.27 378.97C373.16 375.65 375.67 368.89 373.27 363.06C370.7 356.74 364.46 353.57 357.51 355.06C351.62 356.32 348.37 361.52 348.51 368.63C348.67 376.11 353.84 378.7 359.66 380.86C359.27 390.57 362.53 401.4 350.66 407.43C348.41 408.57 348.52 412.05 347.85 414.57L342.76 415.67C341.06 419.2 340.76 422.67 342.96 426.17L343.27 426.53C342.27 432.04 340.78 437.53 340.54 443.08C340.29 449.08 337.69 451.84 331.99 452.24C331.82 455.54 331.74 458.85 331.44 462.14C331.14 465.43 332.19 466.77 335.75 466.75C352.14 466.67 368.54 466.86 384.93 466.88C386.69 466.88 389.5 467.53 389.6 465.01C389.77 460.79 391.6 456.21 388.18 452.34C383.4 452.52 381.05 450.39 380.63 445.44C380.08 439.12 378.94 432.86 378.05 426.57C377.85 422.35 384.33 415.96 374.28 414.95C372.53 411.66 372.47 406.83 368.77 405.37C361.77 402.59 362.3 397.12 362.47 391.45C362.64 387.9 362.59 384.34 362.61 380.79ZM159.68 163.12C159.08 163.81 158.14 164.42 157.95 165.21C155.19 176.737 152.5 188.28 149.88 199.84C148.94 203.98 151.53 204.59 154.88 204.54C164.14 204.42 173.4 204.39 182.66 204.33H248.45C253.13 205.39 254.14 203.01 254.1 198.86C253.97 182.43 254.1 166 254 149.57C254 147.38 255.13 144.42 252.16 143.29C249.19 142.16 246.64 143.46 244.75 146.05C244.425 146.658 243.909 147.141 243.282 147.427C242.655 147.712 241.952 147.784 241.28 147.63C240.86 145.32 240.19 142.82 239.98 140.28C239.26 131.75 238.72 123.21 238.08 114.68C237.81 111.05 236.82 107.86 232.18 108.68C225.68 109.79 221.33 107.07 218.37 101.52C215.37 98.63 211.77 100.52 208.43 100.19C195.7 97.94 184.78 102.72 173.97 108.64C169.97 110.85 168.08 113.14 168.16 117.94C168.41 131.94 168.11 145.99 168.02 160.02L159.68 163.12ZM201.33 412.44C201.28 427.93 201.33 443.44 201.11 458.89C201.06 462.78 202.11 464.44 206.3 464.38C220.113 464.193 233.93 464.193 247.75 464.38C251.94 464.43 252.97 462.68 252.92 458.84C252.7 443.36 252.71 427.84 252.64 412.4V360.64L252.76 309.1L254.23 307.8L305.78 307.7C320.58 307.7 335.37 307.61 350.16 307.85C355.16 307.94 357.58 306.85 357.44 301.15C357.08 286.15 357.23 271.09 357.17 256.06C357.17 238.9 357.17 221.737 357.17 204.57C357.17 186.903 357.203 169.237 357.27 151.57C357.27 136.34 357.2 121.11 357.48 105.89C357.56 101.17 355.95 99.74 351.33 99.83C337.997 100.083 324.663 100.083 311.33 99.83C306.48 99.73 305.28 101.66 305.33 106.14C305.58 121.36 305.51 136.59 305.56 151.81C305.607 169.39 305.66 186.97 305.72 204.55L305.62 256L254.2 256.29C238.46 256.24 222.71 256.29 206.97 256.08C202.65 256.02 201.06 257.62 201.11 261.94C201.32 277.68 201.28 293.43 201.33 309.18C201.33 326.34 201.33 343.5 201.33 360.66C201.337 377.913 201.337 395.173 201.33 412.44ZM501.77 257.6C499.923 242.533 498.07 227.44 496.21 212.32C495.79 208.91 496.54 204.58 491.05 204.7C483.2 204.88 475.33 203.95 467.51 205.26C460.67 205.41 453.74 204.39 447.09 206.88L443.38 211.5C442.65 208 439.92 208.72 437.53 208.74C429.6 206.82 429.1 207.19 428.91 214.58C428.84 217.18 429.41 220.32 428.19 222.28C422.9 230.71 423.32 239.98 423.19 249.28C423.11 254.99 423.12 261.03 420.4 266.01C414.29 277.19 413.75 289.74 410.58 301.62C409.51 305.62 410.82 307.79 415.58 307.75C442.03 307.54 468.48 307.55 494.93 307.48C499.22 307.55 503.53 307.38 507.8 307.75C512.71 308.18 513.9 305.95 513.8 301.48C513.53 293.61 512.5 285.48 514.01 277.91C516.18 266.63 511.36 261 501.77 257.6ZM456.54 81.49C461.13 84.03 465.87 83.39 469.99 84.82C484.29 89.82 498.17 83.39 512.29 83.52C513.883 83.5031 515.418 82.9174 516.617 81.8685C517.816 80.8197 518.601 79.3767 518.83 77.8C519.47 73.8 516.16 72.53 513.35 71.33C506.09 68.23 498.59 67.33 491.11 70.33C486.678 72.0798 481.932 72.8968 477.17 72.73C469.26 72.66 462.59 75.71 456.54 81.49ZM434.54 92.12C439.6 96.25 445.4 98.5 449.95 102.79C457.54 109.96 477.77 110.32 485.72 103.41C488.04 101.41 490.72 98.41 485.92 96.27C469.3 89 452.1 88.14 434.5 92.12H434.54ZM58.68 231.69C62.23 231.25 66.17 231.11 69.45 229.1C72.73 227.09 73.45 224.66 69.54 222.03C59.17 215.03 47.69 219.57 36.74 218.71C35.7693 218.584 34.7881 218.845 34.008 219.436C33.2279 220.027 32.7115 220.901 32.57 221.87C32.28 224.51 34.36 225.56 36.36 226.42C43.4683 229.365 51.0051 231.145 58.68 231.69ZM437.87 85.54C443.52 85.54 446.5 84.44 448.79 81.92C452.9 77.4 452.06 75.03 446.22 73.06C436.87 69.9 428.39 72.18 420.13 76.57C418.31 77.57 415.71 78.22 416.4 81.03C417.09 83.84 419.4 86.03 422.16 85.34C427.342 84.1928 432.719 84.2613 437.87 85.54ZM452.05 387.92C447.63 387.69 443.68 388.16 440.05 390.23C437.1 391.91 437.3 393.64 439.59 395.75C444.67 400.44 461.75 402.03 467.48 398.14C469.14 397.01 471.75 394.81 468.18 393.57C462.69 391.66 458.29 386.5 452.05 387.92ZM472.91 389.15C476.09 388.95 479.84 387.15 483.14 384.29C486.69 381.29 485.67 379.43 481.64 378C477.44 376.51 473.37 376.28 469.28 378.09C466.56 379.29 462.85 379.88 463.59 384.09C464.36 388.43 467.81 389.29 472.91 389.15ZM79.52 230.46C75.61 231.7 70.72 233.46 65.52 233.94C64.1 234.07 61.81 234.04 61.66 236.29C61.51 238.36 62.95 239.71 64.71 240.71C71.63 244.65 80.13 241.81 83.71 234.5C85.36 230.93 83.58 230.33 79.52 230.46ZM509 89.92C506.74 89.92 505.07 89.83 503.41 89.92C501 90.08 498.24 90.26 498.15 93.45C498.1 94.1742 498.197 94.9011 498.434 95.5871C498.672 96.273 499.046 96.9039 499.533 97.4418C500.021 97.9797 500.612 98.4136 501.271 98.7175C501.93 99.0213 502.644 99.1888 503.37 99.21C505.505 99.2816 507.628 98.8679 509.58 98C512.65 96.78 517.12 95.16 516.58 91.87C515.93 88.32 511.24 90.61 509 89.92ZM110.45 267.52C111.625 267.62 112.805 267.62 113.98 267.52C116.27 267.11 119.98 268.91 120.29 265.06C120.58 262.06 117.61 260.96 115.05 260.19C113.92 259.85 112.71 259.19 111.64 259.39C107.64 260 102.27 261.1 102.31 265.34C102.35 269.39 107.61 266.71 110.45 267.52ZM79.82 295.23C82.2 293.02 87.67 297.23 88.07 292.32C88.34 288.9 83.69 287.57 79.8 287.54C75.72 287.54 70.68 288.46 70.8 292.33C71 297.12 76.54 293.52 79.82 295.23ZM337.36 512.8C340.2 511.26 345.56 514.98 345.9 510.03C346.13 506.6 341.46 505.31 337.56 505.3C333.47 505.3 328.44 506.3 328.64 510.16C328.9 514.84 334.39 511.34 337.36 512.8ZM103.78 309.32C106.78 308.11 111.91 311.13 112.52 307.22C113.08 303.61 108.6 301.84 104.63 301.95C100.42 302.06 94.98 302.82 95.13 307.25C95.26 311 100.82 308.09 103.78 309.32ZM84.69 151.52C85.6365 151.636 86.5935 151.636 87.54 151.52C89.8 150.93 93.87 153.17 93.97 149.52C94.05 146.4 90.6 144.61 87.16 144.52C82.71 144.35 76.98 144.76 76.58 149.4C76.24 153.24 81.84 150.7 84.69 151.52ZM362.93 55.52C364.62 53.71 370.17 58.18 370.22 53.25C370.22 49.34 365.01 48.45 361.03 48.36C360.55 48.36 360.03 48.36 359.6 48.36C356.15 48.52 352.71 50.27 352.78 53.36C352.85 57.07 356.93 54.83 359.18 55.42C360.423 55.5846 361.679 55.6248 362.93 55.54V55.52ZM421.9 173C422.844 173.095 423.796 173.095 424.74 173C426.83 172.56 430.24 174.41 430.68 171.11C431.01 168.57 427.98 167.44 425.77 166.64C424.207 166.096 422.551 165.871 420.9 165.98C417.46 166.19 413 167.4 413.06 170.7C413.14 175.21 417.92 172.14 420.48 173.01C420.951 173.082 421.43 173.079 421.9 173ZM317.21 498.5C320.09 496.99 325.5 500.62 325.79 495.79C325.99 492.28 320.62 491.37 317.19 491.37C313.76 491.37 308.39 492.3 308.61 495.8C308.9 500.61 314.31 497 317.21 498.5ZM458.13 157.25H470.66C471.61 157.25 472.57 157.25 473.52 157.25C474.68 157.16 476.1 157.36 476.57 155.97C477.14 154.28 475.76 153.39 474.69 152.5C469.76 148.36 464 149.7 458.13 157.25ZM440.81 141.47C435.81 133.94 429.32 132.42 424.45 137C423.555 137.734 422.967 138.775 422.8 139.92C422.85 141.31 424.39 141.45 425.58 141.46C430.48 141.49 435.38 141.47 440.81 141.47ZM295 525.42C289.63 518.03 285.1 516.78 279.35 520.3C277.96 521.15 276.21 522.04 276.8 524.05C277.32 525.76 279.13 525.38 280.47 525.4C284.92 525.46 289.4 525.42 295 525.42Z" fill="#FED58D"/>
<path d="M16.4 448C23.0399 446.77 26.54 449.24 28.63 456C31.47 465.2 35.74 474 39.4 482.9C39.8335 486.247 40.8991 489.481 42.54 492.43C42.9799 494.32 44.2199 495.03 46.0999 495.26C60.4599 497.08 74.8 498.98 89.15 500.86C97.15 501.93 105.15 503.14 113.15 504.01C116.77 504.41 118.6 506.43 119.98 509.44C122.67 515.28 125.52 521.05 128.19 526.89C129.63 530.03 130.96 531.6 134.38 528.63C139.04 524.63 143.92 518.5 149.12 518.04C154.62 517.56 158.35 525.33 163.12 529.2C168.8 533.81 175.91 534.2 182.47 536.01C221.55 546.52 260.71 556.71 299.85 567.01C297.45 569.34 294.43 568.42 291.68 568.43C268.55 568.5 245.42 568.43 222.29 568.5C219.49 568.5 216.52 567.81 214.02 569.83C141.833 569.83 69.6433 569.86 -2.55005 569.92C-6.76005 569.92 -8.18005 569.3 -8.15005 564.57C-7.90005 525.74 -8.01005 486.9 -8.01005 448.06C-7.54565 447.995 -7.07445 447.995 -6.61005 448.06C-6.61005 485.29 -6.43005 522.53 -6.75005 559.75C-6.81005 566.75 -4.63005 568.55 2.17995 568.53C69.2299 568.3 136.29 568.39 203.35 568.38C205.28 568.38 207.2 568.18 210.79 567.98C208.27 566.87 207.46 566.42 206.59 566.14C165.72 553.07 124.81 540.14 83.99 526.84C79.5099 525.38 78.99 527.84 78.42 530.69C77.13 536.92 76.06 543.21 74.91 549.47C71.8988 541.924 69.5858 534.118 68 526.15C67.36 523.15 66.15 521.56 63 521.15C52.39 519.79 41.84 517.71 31.2 516.96C23.82 516.45 21.25 512.81 20.77 506.3C19.3433 486.88 17.8866 467.447 16.4 448Z" fill="#EB7C76"/>
<path d="M483.36 569.83C483.54 562.497 483.717 555.163 483.89 547.83C483.89 547.59 483.79 547.31 483.89 547.12C485.5 543.95 476.77 544.46 481.47 539.99C485.71 535.99 490.18 532.72 496.28 532.54C499.59 532.54 502.96 533.24 506.18 531.87C506.249 531.676 506.358 531.499 506.499 531.349C506.64 531.199 506.811 531.081 507 531C508.8 521.09 508.8 521.08 519.26 521.09H566.26C566.26 528.743 566.26 536.41 566.26 544.09H509H499.54C493.63 543.03 490.91 544.84 491.64 551.46C492.3 557.46 491.88 563.69 491.93 569.81L483.36 569.83Z" fill="#6683C0"/>
<path d="M566.22 544.1C566.22 536.447 566.22 528.78 566.22 521.1V513.88C566.22 511.03 566.22 508.19 566.22 505.35V492.35C566.22 489.017 566.22 485.683 566.22 482.35C566.22 476.157 566.22 469.97 566.22 463.79V458C566.22 455.15 566.22 452.3 566.22 449.45C566.22 446.6 566.43 443.73 566.43 440.87C566.43 295.737 566.43 150.61 566.43 5.49C566.43 -4.64 566.43 -4.64 556.53 -4.64C388.263 -4.64 219.997 -4.64 51.73 -4.64C32.4 -4.64 13.07 -4.48 -6.27 -4.39L-8 -4.62C-6.67 -7.58 -4.09 -6 -2.23 -6C80.85 -6.08 163.927 -6.1 247 -6.06C352.053 -6.06 457.1 -6.10333 562.14 -6.19C567.04 -6.19 568.01 -5.19 568 -0.319995C567.84 187.82 567.767 375.96 567.78 564.1C567.78 565.95 569.4 568.54 566.44 569.83C566.367 561.277 566.293 552.7 566.22 544.1Z" fill="white"/>
<path d="M566.22 544.1C566.3 552.68 566.377 561.257 566.45 569.83H517.74C517.787 561.25 517.833 552.673 517.88 544.1H566.22Z" fill="#375D8B"/>
<path d="M499.57 544.11H509.04C509.04 552.69 509.077 561.27 509.15 569.85H499.15C500.39 561.28 499.63 552.69 499.57 544.11Z" fill="#375D8B"/>
<path d="M509.15 569.83C509.11 561.25 509.073 552.67 509.04 544.09H517.88C517.84 552.67 517.793 561.247 517.74 569.82L509.15 569.83Z" fill="#4A81C2"/>
<path d="M499.57 544.11C499.63 552.69 500.39 561.28 499.12 569.83H492C492 563.71 492.37 557.53 491.71 551.48C490.94 544.86 493.66 543.05 499.57 544.11Z" fill="#FED58D"/>
<path d="M16.4 448C17.88 467.44 19.3533 486.883 20.82 506.33C21.3 512.84 23.87 516.48 31.25 516.99C41.89 517.74 52.44 519.82 63.05 521.18C66.2 521.58 67.41 523.18 68.05 526.18C69.6494 534.146 71.9758 541.949 75 549.49C76.15 543.23 77.22 536.94 78.51 530.71C79.1 527.88 79.6 525.4 84.08 526.86C124.9 540.11 165.81 553.09 206.68 566.16C207.55 566.44 208.36 566.89 210.88 568C207.29 568.2 205.37 568.4 203.44 568.4C136.38 568.4 69.32 568.32 2.27 568.55C-4.54 568.55 -6.73 566.78 -6.66 559.77C-6.34 522.55 -6.52 485.31 -6.52 448.08L16.4 448Z" fill="#D15970"/>
<path d="M437.53 208.74C439.92 208.74 442.65 208 443.38 211.5C446.22 216.37 442.78 222.6 447.08 228.6C447.836 221.38 447.836 214.1 447.08 206.88C453.73 204.39 460.66 205.41 467.5 205.25C468.42 210.88 468.77 216.54 469.25 222.25C469.98 231.01 469.67 240.73 480.43 244.74C481.25 244.99 481.962 245.508 482.452 246.212C482.942 246.916 483.181 247.764 483.13 248.62C481.8 258.36 488.13 257.98 494.63 257.62C497 257.48 499.38 257.62 501.76 257.62C511.35 261.06 516.17 266.62 513.92 277.91C512.41 285.49 513.44 293.61 513.71 301.48C513.86 305.95 512.71 308.18 507.71 307.75C503.44 307.38 499.13 307.55 494.84 307.48C493.97 303.3 493.52 298.97 492.09 294.98C490.8 291.37 492.53 284.36 487.77 284.76C482.38 285.22 485.48 291.86 484.72 295.76C484.3 297.93 485.52 301.09 482.05 301.44C478.58 301.79 478.51 298.34 478.41 296.35C477.68 281.28 469.79 273.88 454.9 273.3C450.06 273.12 448.64 269.99 448.9 265.47C449.11 261.2 448.9 256.9 448.73 252.63C448.728 251.65 448.345 250.708 447.662 250.005C446.979 249.302 446.05 248.891 445.07 248.86C442.51 248.86 443.3 251.22 443.27 252.68C443.17 256.84 442.33 257.68 438.35 255.11C432.6 251.31 431.68 246.43 434.46 241.03C437.12 235.89 437.62 230.7 437.46 225.18C437.3 219.66 437.51 214.21 437.53 208.74Z" fill="#D15970"/>
<path d="M437.53 208.74C437.53 214.21 437.4 219.69 437.53 225.16C437.66 230.63 437.16 235.87 434.53 241.01C431.75 246.41 432.67 251.29 438.42 255.09C442.42 257.71 443.24 256.82 443.34 252.66C443.34 251.2 442.58 248.8 445.14 248.84C446.12 248.871 447.049 249.282 447.732 249.985C448.415 250.688 448.798 251.63 448.8 252.61C449.01 256.88 449.18 261.18 448.97 265.45C448.74 269.97 450.16 273.1 454.97 273.28C469.86 273.86 477.75 281.28 478.48 296.33C478.58 298.33 478.62 301.76 482.12 301.42C485.62 301.08 484.37 297.91 484.79 295.74C485.55 291.84 482.45 285.2 487.84 284.74C492.6 284.34 490.84 291.35 492.16 294.96C493.59 298.96 494.04 303.28 494.91 307.46C468.46 307.53 442.01 307.52 415.56 307.73C410.81 307.73 409.5 305.61 410.56 301.6C413.73 289.72 414.27 277.17 420.38 265.99C423.1 260.99 423.09 254.99 423.17 249.26C423.32 239.98 422.9 230.71 428.17 222.26C429.39 220.26 428.82 217.16 428.89 214.56C429.1 207.19 429.6 206.82 437.53 208.74Z" fill="#EB7C76"/>
<path d="M208.38 100.14C211.72 100.43 215.38 98.58 218.32 101.47C218.32 114.55 221.11 127.53 220.88 140.47C220.69 151.79 223.55 159.32 234.88 162.63C239.14 163.88 241.04 166.79 241.79 171.45C243.57 182.45 246.18 193.34 248.45 204.27H182.66C183.553 196.757 184.483 189.207 185.45 181.62C189.78 179.9 194.02 177.89 198.45 176.54C204.02 174.84 206.6 171.64 205.36 165.77C203.57 157.88 203.28 149.77 202.64 141.77C202.56 140.67 202.86 138.77 203.48 138.51C210.4 135.88 208.08 129.98 208.23 125.14C208.5 116.83 208.36 108.48 208.38 100.14Z" fill="#D15970"/>
<path d="M184.272 247.502H184.273C206.346 247.782 228.434 247.729 250.5 247.797V319.867L248.732 321.43L176.811 321.499C176.747 300.815 176.802 280.122 176.556 259.441L176.502 255.271C176.467 252.261 177.011 250.344 178.18 249.174C179.349 248.004 181.261 247.46 184.272 247.502Z" fill="#F5A165" stroke="black"/>
<path d="M395.499 100.502C395.498 125.168 395.453 149.834 395.36 174.5H323.725C323.687 162.228 323.65 149.955 323.613 137.683C323.576 125.41 323.538 113.138 323.501 100.865L395.499 100.502Z" fill="#F5A165" stroke="black"/>
<path d="M323.498 319.359L251.5 319.499V247.905L323.331 247.502L323.498 319.359Z" fill="#F29262" stroke="black"/>
<path d="M395.112 247.5C395.187 267.147 395.013 286.897 395.405 306.591L395.492 310.562C395.59 314.5 394.779 316.69 393.249 317.921C391.687 319.178 389.24 319.556 385.741 319.493H385.737C365.041 319.241 344.354 319.391 323.667 319.366L323.501 247.5H395.112Z" fill="#F5A165" stroke="black"/>
<path d="M248.499 322.5L248.33 393.5H176.515C176.515 369.806 176.509 346.139 176.5 322.5H248.499Z" fill="#F29262" stroke="black"/>
<path d="M248.5 394.5V466.5H176.501C176.547 442.527 176.571 418.527 176.571 394.5H248.5Z" fill="#F5A165" stroke="black"/>
<path d="M387.397 27.5049C390.61 27.4421 392.608 27.9214 393.812 29.0869C395.011 30.2483 395.551 32.219 395.496 35.5039C395.024 56.7181 395.171 77.9497 395.118 99.165L323.824 99.4971C323.757 78.2951 323.823 57.0692 323.504 35.8594V35.8584C323.455 32.7245 323.86 30.6466 324.987 29.3525C326.097 28.0786 328.026 27.4365 331.392 27.5059H331.393C350.061 27.8711 368.729 27.8701 387.397 27.5049Z" fill="#E3636F" stroke="black"/>
<path d="M248.105 467.5C248.19 486.354 248.191 505.255 248.396 524.088L248.498 532.225C248.533 534.905 248.172 536.701 247.205 537.831C246.256 538.94 244.608 539.532 241.72 539.497C224.679 539.268 207.641 539.24 190.607 539.412L183.308 539.498C180.413 539.54 178.759 538.979 177.805 537.894C176.835 536.79 176.467 535.012 176.502 532.295C176.796 510.663 176.744 489.083 176.812 467.5H248.105Z" fill="#6FB12E" stroke="black"/>
<path d="M394.5 175.5C394.5 199.171 394.495 222.838 394.486 246.5H323.501C323.574 222.829 323.639 199.162 323.694 175.5H394.5Z" fill="#F29262" stroke="black"/>
<path d="M208.38 100.14C208.38 108.48 208.5 116.83 208.24 125.14C208.09 129.98 210.41 135.88 203.49 138.51C202.87 138.74 202.57 140.67 202.65 141.77C203.29 149.77 203.58 157.86 205.37 165.77L168 160C168.09 146 168.39 131.94 168.14 117.92C168.06 113.12 169.9 110.83 173.95 108.62C184.73 102.67 195.65 97.89 208.38 100.14Z" fill="#EB7C76"/>
<path d="M42.54 492.43C40.8992 489.481 39.8336 486.247 39.4 482.9C40.78 471.6 42.83 460.32 43.29 448.98C43.6 441.37 45.79 437.54 53.67 438.12C57.08 440.12 60.46 440.19 63.78 437.91C71.39 437.71 73.91 441.18 74.19 448.91C74.69 462.91 76.7 476.83 78.07 490.79C75.99 492.93 73.28 492.38 70.75 492.39C61.35 492.47 52 492.44 42.54 492.43Z" fill="#6683C0"/>
<path d="M248.4 204.3C246.13 193.37 243.52 182.49 241.74 171.48C240.99 166.82 239.09 163.91 234.83 162.66C223.55 159.35 220.69 151.82 220.83 140.5C221.06 127.5 218.25 114.55 218.27 101.5C221.27 107.05 225.58 109.77 232.08 108.66C236.72 107.86 237.71 111.05 237.98 114.66C238.62 123.19 239.16 131.73 239.88 140.26C240.09 142.8 240.76 145.26 241.18 147.61C241.862 147.773 242.58 147.704 243.218 147.412C243.856 147.12 244.377 146.623 244.7 146C246.59 143.41 249.1 142.1 252.11 143.24C255.12 144.38 253.94 147.33 253.95 149.52C254.04 165.95 253.95 182.38 254.05 198.81C254.09 203 253.08 205.36 248.4 204.3Z" fill="#E3636F"/>
<path d="M501.77 257.6C499.39 257.6 497.01 257.42 494.64 257.6C488.13 257.99 481.81 258.37 483.14 248.6C483.191 247.744 482.952 246.896 482.462 246.192C481.972 245.488 481.26 244.97 480.44 244.72C469.68 240.72 469.99 230.99 469.26 222.23C468.78 216.55 468.43 210.89 467.51 205.23C475.33 203.93 483.2 204.86 491.05 204.68C496.54 204.56 495.79 208.89 496.21 212.3C498.07 227.433 499.923 242.533 501.77 257.6Z" fill="#E3636F"/>
<path d="M566.22 463.86C566.22 470.04 566.22 476.227 566.22 482.42L497.41 482.34C495.32 481.28 491.73 483.01 490.97 480.59C490.03 477.59 493.21 475.66 495.27 473.82C498.293 471.052 502.241 469.515 506.34 469.51C507.82 464.77 511.05 463.61 515.88 463.7C532.69 464 549.46 463.84 566.22 463.86Z" fill="#6683C0"/>
<path d="M332.05 452.24C337.75 451.84 340.35 449.07 340.6 443.08C340.84 437.53 342.37 432.08 343.33 426.53H378.11C379 432.82 380.11 439.08 380.69 445.4C381.11 450.35 383.46 452.48 388.25 452.3L332.05 452.24Z" fill="#7992C9"/>
<path d="M185.45 181.62C184.483 189.207 183.537 196.777 182.61 204.33C173.35 204.39 164.09 204.42 154.83 204.54C151.53 204.59 148.94 203.98 149.83 199.84C152.443 188.28 155.133 176.737 157.9 165.21C158.09 164.42 159.03 163.81 159.63 163.12C160.18 166.12 162.89 167.12 164.99 168.48C171.78 173 178.64 177.25 185.45 181.62Z" fill="#EB7C76"/>
<path d="M332.05 452.24L388.25 452.34C391.65 456.21 389.83 460.79 389.66 465.01C389.56 467.53 386.75 466.88 384.99 466.88C368.6 466.88 352.2 466.67 335.81 466.75C332.25 466.75 331.21 465.41 331.5 462.14C331.79 458.87 331.88 455.54 332.05 452.24Z" fill="#4A76B6"/>
<path d="M566.22 492.41V503.9L504.76 504.04C496.82 502.71 494.09 500.64 490.76 493.31C492.76 491.74 495.23 492.8 497.41 492.31L566.22 492.41Z" fill="#6683C0"/>
<path d="M456.54 81.49C462.54 75.71 469.26 72.66 477.17 72.76C481.932 72.9268 486.678 72.1097 491.11 70.36C498.59 67.28 506.11 68.23 513.35 71.36C516.16 72.56 519.47 73.83 518.83 77.83C518.601 79.4067 517.816 80.8496 516.617 81.8985C515.418 82.9474 513.883 83.5331 512.29 83.55C498.17 83.42 484.29 89.83 469.99 84.85C465.87 83.39 461.13 84 456.54 81.49Z" fill="#FDE7D6"/>
<path d="M83.66 96.84C78.47 86.43 68.52 86.46 58.94 85.45C50.48 84.56 42.06 83.32 33.62 82.24L34.93 79.06C46.77 80.3 58.62 81.48 70.45 82.81C74.21 83.23 76.79 83.04 76.88 78.08C76.9113 76.511 77.3081 74.9709 78.0389 73.5821C78.7698 72.1934 79.8145 70.9942 81.09 70.08C86.72 66.42 83.87 63.53 81.09 59.94C74.34 51 66.64 42.86 60.8 33.27C61.17 32.59 61.53 31.9 61.9 31.21C68.69 39.11 76 46.67 82.14 55C87.03 61.61 92.55 65.52 100.92 64.69C99.92 66.77 98.86 68.87 97.76 70.93C93.11 79.61 87.09 87.52 83.66 96.84Z" fill="#7992C9"/>
<path d="M434.5 92.12C452.1 88.12 469.3 88.96 485.88 96.27C490.69 98.4 488 101.4 485.68 103.41C477.73 110.32 457.5 109.96 449.91 102.79C445.36 98.5 439.56 96.25 434.5 92.12Z" fill="#FDE7D6"/>
<path d="M185.45 181.62C178.64 177.25 171.78 172.96 165.04 168.48C162.94 167.09 160.23 166.13 159.68 163.12L168 160L205.4 165.8C206.64 171.67 204.06 174.87 198.49 176.57C194 177.89 189.78 179.9 185.45 181.62Z" fill="#E3636F"/>
<path d="M504.77 504L566.23 503.86V505.36C549.07 505.36 531.91 505.29 514.76 505.36C511.85 505.36 508.12 504.36 507.88 509.28C507.63 514.61 511.5 513.93 514.77 513.93C531.93 513.93 549.09 513.93 566.24 513.93V521.15H519.24C508.78 521.15 508.78 521.15 506.98 531.06C507.53 524.23 503.8 517.53 506.62 510.54C507.084 509.4 507.153 508.137 506.818 506.952C506.483 505.768 505.762 504.729 504.77 504Z" fill="#7992C9"/>
<path d="M123.81 413.92L125.37 426.53C119.48 426.29 120.93 432.53 118.05 434.87L111.05 449.48C110.38 450.58 109.7 451.67 109.05 452.76C101.96 449.76 98.15 444.13 98.85 436.76C99.51 429.71 104.04 425.4 111.66 425.2C114.38 425.12 114.86 422.86 115.44 420.79C117.68 419.69 117.26 416.57 118.58 415.57C124.86 410.83 118.98 420.71 123.27 419.15C123.44 417.53 123.63 415.72 123.81 413.92Z" fill="#7992C9"/>
<path d="M566.22 492.41L497.37 492.32L497.46 482.32L566.27 482.4C566.263 485.747 566.247 489.083 566.22 492.41ZM513.15 489.89C514.92 488.69 518.88 491.31 518.86 486.75C518.86 482.37 515.12 483.91 512.92 483.97C510.55 484.04 506.33 482.12 506.64 487.08C506.91 491.3 510.74 488.87 513.15 489.89ZM533.38 483.75C531.11 484.57 527.01 482.07 527.01 486.94C527.01 490.71 530.37 489.76 532.39 489.51C534.74 489.22 538.73 491.65 539.08 486.89C539.41 482.39 535.56 484.44 533.38 483.75ZM552.88 489.75C555 488.82 559.23 491.6 559.13 486.61C559.05 482.27 555.33 484.03 553.13 484C550.93 483.97 547.28 482.38 547.04 486.58C546.82 490.92 550.55 489.16 552.88 489.72V489.75Z" fill="#375D8B"/>
<path d="M104 390.72L66.49 387.72C66.49 384.473 66.49 381.217 66.49 377.95L109.67 384C111.01 385.38 114.14 385.3 113.46 388.33C112.78 391.36 110.26 390.47 108.27 390.6C106.86 390.7 105.45 390.69 104 390.72Z" fill="#4A81C2"/>
<path d="M566.21 449.49C566.21 452.34 566.21 455.19 566.21 458.04H513.13C517.35 451.4 523.13 448.88 531.13 449.35C542.82 450 554.53 449.49 566.21 449.49Z" fill="#4A81C2"/>
<path d="M58.68 231.69C51.0051 231.145 43.4683 229.365 36.3601 226.42C34.3601 225.56 32.2801 224.51 32.5701 221.87C32.7115 220.901 33.228 220.027 34.0081 219.436C34.7882 218.845 35.7694 218.584 36.7401 218.71C47.6901 219.57 59.1701 215.06 69.5401 222.03C73.4601 224.66 72.72 227.09 69.45 229.1C66.18 231.11 62.23 231.25 58.68 231.69Z" fill="#FDE7D6"/>
<path d="M378.11 426.57H343.33L343.02 426.22C342.96 422.713 342.893 419.21 342.82 415.71L347.91 414.61L374.33 414.99C384.39 416 377.91 422.35 378.11 426.57Z" fill="#4A76B6"/>
<path d="M359.71 380.86C353.89 378.7 348.71 376.11 348.56 368.63C348.41 361.52 351.66 356.32 357.56 355.06C364.51 353.57 370.75 356.74 373.32 363.06C375.68 368.89 373.17 375.65 367.32 378.97C365.812 379.687 364.255 380.296 362.66 380.79L359.71 380.86ZM367.76 367.48C367.48 363.05 365 360.6 360.98 360.71C356.96 360.82 354.24 363.19 354.36 367.46C354.48 371.73 356.85 374 361.13 373.95C365.41 373.9 367.51 371.49 367.76 367.48Z" fill="#EB7C76"/>
<path d="M437.87 85.54C432.719 84.2613 427.342 84.1928 422.16 85.34C419.43 85.99 417.08 83.85 416.4 81.03C415.72 78.21 418.31 77.54 420.13 76.57C428.39 72.18 436.87 69.9 446.22 73.06C452.06 75.06 452.9 77.4 448.79 81.92C446.5 84.44 443.52 85.55 437.87 85.54Z" fill="#FDE7D6"/>
<path d="M118.05 434.87C120.93 432.48 119.48 426.29 125.37 426.53C133.49 428.06 138 432.53 138.09 439.24C138.18 445.71 132.82 451.9 125.25 454.08C122.17 447.94 122.39 440.55 118.05 434.87Z" fill="#6683C0"/>
<path d="M513.14 458H566.22V463.82C549.46 463.82 532.69 463.97 515.93 463.66C511.1 463.57 507.87 464.73 506.39 469.47C506.5 468.32 507.09 466.93 506.64 466.08C502.59 458.33 507.13 457.62 513.14 458Z" fill="#7992C9"/>
<path d="M359.71 380.86L362.61 380.79C362.61 384.34 362.61 387.9 362.53 391.45C362.36 397.12 361.8 402.59 368.83 405.37C372.53 406.83 372.59 411.66 374.33 414.95L347.91 414.57C348.58 412.05 348.47 408.57 350.72 407.43C362.58 401.4 359.32 390.57 359.71 380.86Z" fill="#7992C9"/>
<path d="M97.42 99.74C94.21 99.88 90.9 100.74 88.02 98.41C93.1119 87.9768 98.9435 77.9212 105.47 68.32C113.1 73.22 113.13 80.61 112.03 88.38L105.24 90.48C103.75 87.48 101.24 85.94 98.52 88.19C95.39 90.8 99.21 92.47 100.29 94.47L97.42 99.74Z" fill="#7992C9"/>
<path d="M105.24 90.48L112.03 88.38C118.36 88.14 124.51 88.47 128.8 94.16C129.87 95.58 132.3 96.54 131.25 98.78C130.4 100.58 128.25 99.94 126.71 99.94C116.95 99.94 107.19 99.82 97.42 99.74C98.38 97.9933 99.3367 96.2367 100.29 94.47L105.24 90.48Z" fill="#F8B983"/>
<path d="M452.05 387.92C458.29 386.5 462.69 391.66 468.16 393.57C471.73 394.81 469.16 397.01 467.46 398.14C461.73 402.03 444.65 400.44 439.57 395.75C437.28 393.64 437.08 391.91 440.03 390.23C443.68 388.16 447.63 387.69 452.05 387.92Z" fill="#FDE7D6"/>
<path d="M42.54 492.43C51.95 492.43 61.35 492.43 70.75 492.43C73.28 492.43 75.99 492.97 78.07 490.83C78.98 491.09 79.95 491.72 80.78 491.58C88.59 490.21 90.21 494.3 89.15 500.86C74.8 498.98 60.46 497.08 46.1 495.26C44.22 495 43 494.32 42.54 492.43Z" fill="#4A76B6"/>
<path d="M66.51 377.94C66.51 381.2 66.51 384.457 66.51 387.71C65.51 388.71 64.6 389.71 63.64 390.71L53.78 390.77C48.54 384.87 47.93 380.13 51.87 376.11C55.81 372.09 60.7 372.75 66.51 377.94Z" fill="#7992C9"/>
<path d="M63.78 437.91C60.46 440.19 57.08 440.1 53.67 438.12V417.89C57.08 415.89 60.46 415.82 63.78 418.11V437.91Z" fill="#4A81C2"/>
<path d="M472.91 389.15C467.81 389.29 464.36 388.43 463.59 384.07C462.85 379.88 466.59 379.29 469.28 378.07C473.37 376.26 477.44 376.49 481.64 377.98C485.64 379.41 486.69 381.23 483.14 384.27C479.84 387.12 476.09 389 472.91 389.15Z" fill="#FDE7D6"/>
<path d="M79.52 230.46C83.58 230.33 85.36 230.93 83.64 234.46C80.1 241.77 71.64 244.61 64.64 240.67C62.88 239.67 61.44 238.32 61.59 236.25C61.74 234 64.03 234.03 65.45 233.9C70.72 233.48 75.61 231.7 79.52 230.46Z" fill="#FDE7D6"/>
<path d="M105.47 68.32C98.9366 77.9206 93.0984 87.9762 88 98.41C86.37 98.41 84.23 99.79 83.65 96.85C87.07 87.52 93.09 79.61 97.74 70.95C98.84 68.89 99.85 66.79 100.9 64.71C104.49 63.32 104.82 66 105.47 68.32Z" fill="#4A76B6"/>
<path d="M53.8 390.79L63.66 390.73C63.7533 396.45 63.8466 402.163 63.94 407.87L53.59 407.94L53.8 390.79Z" fill="#4A81C2"/>
<path d="M118.05 434.87C122.39 440.55 122.17 447.94 125.25 454.08C122.11 456.99 118.61 456.08 115.1 455.02C116.91 450.9 115.8 448.89 111.1 449.48L118.05 434.87Z" fill="#EB7C76"/>
<path d="M53.59 407.94L63.94 407.87C68.81 411.21 68.77 414.23 63.78 418.11C60.46 415.82 57.08 415.91 53.67 417.89C48.92 414.61 48.63 411.3 53.59 407.94Z" fill="#6683C0"/>
<path d="M509 89.92C511.21 90.61 515.9 88.32 516.51 91.82C517.09 95.11 512.62 96.73 509.51 97.95C507.573 98.8375 505.46 99.2751 503.33 99.23C502.604 99.2088 501.891 99.0413 501.231 98.7375C500.572 98.4336 499.981 97.9997 499.493 97.4618C499.006 96.9239 498.632 96.293 498.394 95.6071C498.157 94.9211 498.06 94.1942 498.11 93.47C498.2 90.28 500.96 90.1 503.37 89.94C505.1 89.83 506.77 89.92 509 89.92Z" fill="#FDE7D6"/>
<path d="M104 390.72C105.41 390.72 106.82 390.72 108.23 390.6C110.23 390.47 112.76 391.28 113.42 388.33C114.08 385.38 110.97 385.38 109.63 384C112.45 384.09 115.14 384.21 117.87 382.69C120.39 381.28 123.02 382.36 124.87 384.56C126.33 386.28 127.45 388.76 125.87 390.45C120.2 396.51 122.96 403.89 122.16 410.71C120.16 408.04 121.22 404.92 120.9 402C120.62 399.44 121.9 396.21 118.15 395C114.31 390.85 108.75 392.19 104 390.72ZM120.55 391.82C120.957 391.79 121.354 391.679 121.718 391.494C122.082 391.31 122.406 391.055 122.671 390.744C122.936 390.434 123.137 390.074 123.262 389.685C123.387 389.296 123.434 388.887 123.4 388.48C123.419 388.065 123.351 387.65 123.198 387.264C123.046 386.877 122.813 386.527 122.515 386.237C122.218 385.947 121.862 385.723 121.471 385.58C121.081 385.438 120.665 385.38 120.25 385.41C118.05 385.41 116.76 386.8 117.05 389.08C117.33 391 118.64 391.84 120.59 391.82H120.55Z" fill="#7992C9"/>
<path d="M110.45 267.52C107.61 266.71 102.35 269.39 102.31 265.31C102.31 261.07 107.61 259.97 111.64 259.36C112.71 259.2 113.92 259.82 115.05 260.16C117.61 260.93 120.58 262.05 120.29 265.03C119.93 268.88 116.29 267.08 113.98 267.49C112.806 267.6 111.625 267.61 110.45 267.52Z" fill="#F8B983"/>
<path d="M79.82 295.23C76.54 293.52 71.04 297.12 70.82 292.33C70.66 288.46 75.7 287.51 79.82 287.54C83.71 287.54 88.36 288.9 88.09 292.32C87.67 297.28 82.2 293 79.82 295.23Z" fill="#F8B983"/>
<path d="M337.36 512.8C334.36 511.34 328.9 514.8 328.64 510.16C328.44 506.28 333.47 505.28 337.56 505.3C341.46 505.3 346.13 506.6 345.9 510.03C345.56 515 340.2 511.26 337.36 512.8Z" fill="#F8B983"/>
<path d="M103.78 309.32C100.78 308.09 95.26 311 95.13 307.25C94.98 302.82 100.42 302.06 104.63 301.95C108.63 301.84 113.08 303.61 112.52 307.22C111.91 311.13 106.76 308.11 103.78 309.32Z" fill="#F8B983"/>
<path d="M84.69 151.52C81.84 150.7 76.24 153.24 76.58 149.28C76.98 144.64 82.71 144.23 87.16 144.4C90.6 144.54 94.05 146.33 93.97 149.4C93.87 153.08 89.8 150.84 87.54 151.4C86.5984 151.555 85.6413 151.596 84.69 151.52Z" fill="#F8B983"/>
<path d="M258.151 31.06C256.904 31.1846 255.648 31.1846 254.401 31.06C252.151 30.47 248.071 32.71 248.001 29C247.931 25.88 251.371 24.13 254.821 24C255.291 24 255.771 24 256.251 24C260.251 24.09 265.471 25 265.441 28.89C265.391 33.72 259.841 29.25 258.151 31.06Z" fill="#F8B983"/>
<path d="M421.9 173C421.43 173.075 420.95 173.075 420.48 173C417.92 172.13 413.14 175.2 413.06 170.69C413 167.39 417.46 166.18 420.9 165.97C422.551 165.861 424.207 166.086 425.77 166.63C427.98 167.43 431.01 168.56 430.68 171.1C430.24 174.4 426.83 172.55 424.74 172.99C423.796 173.089 422.845 173.092 421.9 173Z" fill="#F8B983"/>
<path d="M317.21 498.5C314.31 497 308.9 500.61 308.61 495.8C308.39 492.3 313.77 491.37 317.19 491.37C320.61 491.37 325.99 492.28 325.79 495.79C325.5 500.62 320.09 497 317.21 498.5Z" fill="#F8B983"/>
<path d="M458.13 157.25C463.99 149.7 469.76 148.36 474.69 152.46C475.76 153.35 477.14 154.24 476.57 155.93C476.1 157.32 474.68 157.12 473.52 157.21C472.57 157.28 471.61 157.21 470.66 157.21L458.13 157.25Z" fill="#F8B983"/>
<path d="M440.81 141.47C435.38 141.47 430.48 141.47 425.58 141.47C424.39 141.47 422.85 141.32 422.8 139.93C422.967 138.785 423.555 137.744 424.45 137.01C429.32 132.42 435.85 133.94 440.81 141.47Z" fill="#F8B983"/>
<path d="M295 525.42C289.44 525.42 285 525.42 280.47 525.42C279.13 525.42 277.32 525.78 276.8 524.07C276.21 522.07 277.96 521.17 279.35 520.32C285.06 516.78 289.59 518 295 525.42Z" fill="#F8B983"/>
<path d="M118.2 395C122 396.18 120.67 399.41 120.95 402C121.27 404.92 120.17 408 122.21 410.71C122.74 411.77 123.28 412.84 123.81 413.91C123.63 415.72 123.44 417.53 123.28 419.12C118.99 420.68 124.87 410.8 118.59 415.54C117.27 416.54 117.69 419.66 115.45 420.76C115.43 412.09 119.78 403.88 118.2 395Z" fill="#4A81C2"/>
<path d="M34.93 79.06L33.62 82.24C31.62 84.42 29.48 84.37 27.82 82C27.5308 81.623 27.3221 81.1905 27.2069 80.7295C27.0917 80.2685 27.0724 79.7887 27.1502 79.3199C27.2281 78.8512 27.4013 78.4034 27.6593 78.0043C27.9173 77.6052 28.2545 77.2634 28.65 77C31.55 74.86 33.31 76.9 34.93 79.06Z" fill="#4A76B6"/>
<path d="M447.09 206.88C447.846 214.1 447.846 221.38 447.09 228.6C442.79 222.6 446.23 216.37 443.39 211.5L447.09 206.88Z" fill="#EB7C76"/>
<path d="M61.9 31.21C61.53 31.9 61.17 32.59 60.8 33.27C60.5805 33.1993 60.3567 33.1425 60.13 33.1C57.28 32.78 54.28 32.57 54.59 28.54C54.5978 28.1277 54.6872 27.721 54.8531 27.3434C55.019 26.9659 55.2582 26.625 55.5567 26.3404C55.8552 26.0558 56.2072 25.8333 56.5922 25.6856C56.9773 25.5379 57.3878 25.468 57.8 25.48C61.81 25.41 62.07 28.2 61.9 31.21Z" fill="#4A76B6"/>
<path d="M111.09 449.48C115.8 448.89 116.91 450.9 115.09 455.02C114.778 455.208 114.441 455.353 114.09 455.45L111.09 455.17L109.09 452.76C109.74 451.67 110.42 450.58 111.09 449.48Z" fill="#D15970"/>
<path d="M342.82 415.67C342.887 419.17 342.953 422.673 343.02 426.18C340.82 422.71 341.12 419.2 342.82 415.67Z" fill="#7992C9"/>
<path d="M506.18 531.86C502.96 533.23 499.59 532.52 496.28 532.53C499.5 531.05 502.86 531.74 506.18 531.86Z" fill="#7992C9"/>
<path d="M111.07 455.17L114.07 455.45C113 456.74 112 456.62 111.07 455.17Z" fill="#EB7C76"/>
<path d="M566.24 513.93C549.09 513.93 531.93 513.98 514.77 513.93C511.5 513.93 507.63 514.61 507.88 509.28C508.12 504.4 511.88 505.37 514.76 505.36C531.91 505.3 549.07 505.36 566.23 505.36C566.23 508.24 566.24 511.08 566.24 513.93Z" fill="#6683C0"/>
<path d="M513.15 489.89C510.74 488.89 506.91 491.3 506.64 487.08C506.33 482.08 510.55 484.08 512.92 483.97C515.12 483.91 518.83 482.37 518.86 486.75C518.88 491.31 514.92 488.69 513.15 489.89Z" fill="#B2C2E4"/>
<path d="M533.38 483.75C535.56 484.44 539.38 482.39 539.08 486.89C538.73 491.65 534.74 489.22 532.39 489.51C530.39 489.76 527.01 490.71 527.01 486.94C527 482.07 531.11 484.57 533.38 483.75Z" fill="#B2C2E4"/>
<path d="M552.88 489.72C550.55 489.16 546.82 490.92 547.07 486.55C547.31 482.35 550.95 483.93 553.16 483.97C555.37 484.01 559.05 482.24 559.16 486.58C559.23 491.57 555 488.79 552.88 489.72Z" fill="#B2C2E4"/>
<path d="M367.76 367.48C367.51 371.48 365.38 373.89 361.13 373.95C356.88 374.01 354.47 371.59 354.36 367.46C354.25 363.33 357.06 360.81 360.98 360.71C364.9 360.61 367.48 363.05 367.76 367.48Z" fill="white"/>
<path d="M105.24 90.48L100.29 94.48C99.21 92.48 95.39 90.81 98.52 88.2C101.21 85.94 103.75 87.48 105.24 90.48Z" fill="#B2C2E4"/>
<path d="M120.59 391.82C118.59 391.82 117.33 390.96 117.09 389.08C116.8 386.8 118.09 385.46 120.29 385.41C120.705 385.38 121.121 385.438 121.511 385.58C121.902 385.723 122.258 385.947 122.555 386.237C122.853 386.527 123.086 386.877 123.238 387.264C123.391 387.65 123.459 388.065 123.44 388.48C123.474 388.887 123.427 389.296 123.302 389.685C123.177 390.074 122.976 390.434 122.711 390.744C122.446 391.055 122.122 391.31 121.758 391.494C121.394 391.679 120.997 391.79 120.59 391.82Z" fill="#6683C0"/>
</g>
<defs>
<clipPath id="clip0_2_209">
<rect width="560.13" height="563.51" fill="white"/>
</clipPath>
</defs>
</svg>
