<svg width="561" height="564" viewBox="0 0 561 564" fill="none" xmlns="http://www.w3.org/2000/svg">
<g clip-path="url(#clip0_2_296)">
<rect width="560.13" height="563.51" fill="#FED58D"/>
<path d="M417.3 -9H433.19C433.208 -8.523 433.282 -8.04975 433.41 -7.59C433.83 -5.52 434.27 -3.45 434.65 -1.37C436.74 10.05 435.89 21.83 438.87 33.15C439.24 37.8 441.87 41.65 443.34 45.93C444.81 50.21 447.53 50.93 451.74 49.04C455.95 47.15 459.74 44.7 464.46 44.63L464.61 95L463.44 95.1C457.25 89.1 450.54 83.54 445.09 76.94C441.99 73.18 437.09 70.29 436.23 65.08C434.89 57.08 434.23 49.08 433.17 41.01C432.87 38.65 434.45 35.41 430.54 34.53C426.63 33.65 424.33 35.47 422.86 39.11C419.66 47.11 416.17 54.96 412.91 62.92C411.71 65.86 410.74 68.83 406.97 69.33C396.623 70.6817 386.771 74.5704 378.29 80.65C378.17 68.59 382.6 57.14 383.29 45.29C383.77 37.29 387.66 35.36 394.18 34.24C397.18 33.72 401.37 34.31 402.8 30.46C407.48 17.92 412.91 5.63 415.85 -7.54L417.3 -9Z" fill="#E3616E"/>
<path d="M570.43 570.67C569.13 573.67 566.53 572.03 564.66 572.03C482.373 572.13 400.08 572.16 317.78 572.12C210.447 572.12 103.133 572.167 -4.1601 572.26C-9.3701 572.26 -10.4401 571.19 -10.4401 565.98C-10.2668 376.26 -10.1901 186.54 -10.2101 -3.17999C-10.2101 -5.05999 -11.8401 -7.65999 -8.8501 -8.95999C-8.7601 -8.43999 -8.6601 -7.95999 -8.5701 -7.40999C-8.5701 43.6567 -8.5701 94.73 -8.5701 145.81V149.89C-8.5701 180.343 -8.5701 210.793 -8.5701 241.24V278.66V307.52C-8.64343 347 -8.7101 386.477 -8.7701 425.95C-8.7701 471.95 -8.6901 517.95 -8.9001 563.89C-8.9001 569.26 -7.5201 570.94 -2.0601 570.79C11.6399 570.4 25.3599 570.69 39.0799 570.65C75.6399 570.57 112.2 570.47 148.76 570.35C150.68 570.42 152.6 570.56 154.53 570.56C290.75 570.56 426.977 570.56 563.21 570.56C565.13 570.56 567.05 570.44 568.97 570.37L570.43 570.67Z" fill="white"/>
<path d="M570.43 518.64V530.2L569 531.4H551.77C549.93 525.4 547.32 525.68 543.57 530.09C540.7 533.48 538.05 535.71 534.69 529.53C531.85 524.31 528.69 526.71 527.19 531.53H496.65C494.74 525.28 494.84 520.1 503.03 518.88C504.35 518.68 505.56 517.76 506.82 517.17L568.82 517.33L570.43 518.64Z" fill="#F9BE64"/>
<path d="M433.41 -7.54999L568.86 -7.41999C568.9 79.5 568.943 166.42 568.99 253.34C568.99 256.47 569.06 259.6 569.1 262.73L568.73 262.86C564.44 262.86 560.14 262.94 555.84 262.86C552.47 262.79 550.54 263.86 550.19 267.64C549.39 276.4 548.71 285.21 547.19 293.85C545.49 303.38 546.27 313.27 542.85 322.52L532.65 255.67C523.88 252.47 514.78 255.13 505.89 254.17C501.82 253.73 499.95 255.17 499.07 259.34C496.84 269.87 493.83 280.23 491.67 290.78C490.67 295.78 489.19 297.64 483.67 296.41C480.16 295.63 474.8 293.62 473.67 300.75C471.53 314.45 468.55 328.02 466.82 341.75C466.07 347.67 462.77 353.44 464.95 359.68L567.36 359.83L568.68 360.83L569.11 361.1C569.03 413.16 568.947 465.213 568.86 517.26L506.86 517.1C511.08 512.88 514.04 507.96 513.91 501.85C513.84 498.34 515.13 496.73 518.39 495.78C524.13 494.1 527.61 489.92 529.57 484.4C530.41 482.05 529.97 480.01 527.57 479.01C526.677 478.604 525.659 478.566 524.739 478.905C523.818 479.244 523.067 479.932 522.65 480.82C521.792 482.541 520.833 484.211 519.78 485.82C518.78 487.14 517.32 488.38 515.51 488.12C513.03 487.76 513.9 485.55 513.78 484.05C513.55 481.05 512.56 478.55 509.19 478.85C505.82 479.15 505.59 482.1 505.61 484.85C505.61 490.39 505.55 495.93 505.61 501.47C505.67 505.05 504.7 508.14 501.86 510.42C500.58 511.42 499.14 512.78 497.37 512.22C495.18 511.53 496 509.41 495.99 507.89C495.91 496.33 495.99 484.76 495.91 473.2C495.91 470.37 496.17 466.8 491.91 466.86C487.65 466.92 488.09 470.35 488.09 473.27C488.09 484.11 488.21 494.95 487.98 505.78C487.98 508.03 489.79 511.78 486.21 512.36C483.36 512.83 481.04 510.2 479.58 507.55C478.12 504.9 477.96 502.07 478 499.14C478.07 493.6 478 488.06 478 482.52C478.053 482.036 478.002 481.547 477.85 481.084C477.698 480.622 477.449 480.197 477.119 479.839C476.789 479.481 476.387 479.198 475.939 479.008C475.49 478.819 475.007 478.727 474.52 478.74C472.36 478.61 470.41 479.79 470.52 481.97C470.89 493.97 466.87 506.79 477.13 516.89L454.76 517.11C454.67 515.44 454.57 513.77 454.48 512.11C454.34 509.43 453.34 507.21 450.33 507.36C447.77 507.5 446.97 509.57 446.68 511.94C446.47 513.66 447.68 516.28 445.1 516.81C442.52 517.34 440.7 515.38 439.18 513.47C436.37 509.93 437.39 505.7 437.18 501.7C437.03 499.19 436.49 496.55 433.5 496.4C430.12 496.24 429.29 498.91 429.09 501.77C428.607 507.032 429.503 512.329 431.69 517.14C350.863 517.14 270.03 517.14 189.19 517.14C183.34 517.14 177.67 517.84 172.45 520.5C154.89 529.5 147.13 543.91 148.76 563.5C148.83 565.42 148.9 567.35 148.96 569.27C148.882 569.619 148.828 569.973 148.8 570.33C112.24 570.43 75.6801 570.53 39.1201 570.63C25.4001 570.63 11.6801 570.38 -2.0199 570.77C-7.4799 570.92 -8.8799 569.24 -8.8599 563.87C-8.6499 517.87 -8.7699 471.87 -8.7299 425.93C-8.7299 386.463 -8.66323 346.987 -8.5299 307.5L87.9201 307.26C96.8601 307.69 96.9201 307.68 94.1401 299.33C90.5001 288.33 87.3001 277.39 92.1401 265.77C93.7801 261.86 94.0001 257.37 95.1401 253.24C96.4701 248.64 96.0801 246.24 90.2101 246.63C82.8001 247.13 75.3201 246.69 67.8701 246.63L66.7501 245.14C64.5101 231.67 59.6101 218.9 56.2401 205.72C55.3801 202.35 52.8801 202.28 50.1301 202.09C42.9101 201.56 35.8501 202.95 28.7201 203.55C26.8119 203.542 24.9057 203.429 23.0101 203.21C14.7701 201.81 10.0101 205.11 6.6301 212.89C2.3401 222.67 -3.4399 231.8 -8.5699 241.2C-8.5699 210.747 -8.5699 180.297 -8.5699 149.85L12.9801 149.7H90.7601C94.8401 150.54 97.1301 149.49 96.7001 144.7C96.3901 141.17 96.6301 137.6 96.6201 134.05C100.45 122.05 99.1901 117.62 88.8301 113.05C82.5701 110.27 80.3201 105.99 79.0801 99.66C75.7701 82.77 71.6301 66.06 68.1901 49.2C67.3801 45.2 65.7901 43.78 62.0001 44.41H54.7601C46.7601 42.86 41.4401 45.41 39.9001 54.01C39.4901 56.33 38.0201 58.46 37.5801 60.79C35.8201 70.06 31.0001 76 21.3401 77.09C12.3401 78.09 9.0001 83.82 6.8801 92.09C2.2701 110.09 -3.3899 127.9 -8.6199 145.78C-8.6199 94.7067 -8.6199 43.6333 -8.6199 -7.43999L395.55 -7.49999L395.99 -7.37999C393.99 1.23001 391.76 9.81001 389.99 18.48C389.2 22.32 386.87 22.64 383.74 22.77C371.66 23.26 371.67 23.32 369.39 35.69C369.26 36.4 368.93 37.06 368.81 37.77C365.657 56.87 362.51 75.97 359.37 95.07L358.17 96.75L306.17 96.81H254H202.11C186.03 96.75 169.96 96.81 153.88 96.55C149.75 96.5 148.49 98.09 148.55 102.06C148.78 117.66 148.76 133.27 148.84 148.87C148.75 164.52 148.84 180.17 148.45 195.81C148.31 201.14 150.35 202.21 155.15 202.12C170.31 201.84 185.47 201.98 200.63 201.95L201.14 251.32L200.99 255.26C200.88 269.45 200.47 283.64 200.8 297.82C200.95 304.17 199.53 306.75 192.55 306.42C180.08 305.83 167.55 306.42 155.06 306.15C150 306.03 148.42 307.67 148.51 312.71C148.77 328.34 148.58 343.98 148.57 359.62C133.47 359.62 118.37 359.87 103.28 359.54C97.8101 359.42 96.2801 361.21 96.4301 366.54C96.7801 381.65 96.6001 396.76 96.6201 411.87C96.5301 427.96 96.5601 444.05 96.2601 460.14C96.1801 464.6 98.2601 465.19 101.94 465.14C115.62 465 129.31 464.92 142.99 465.14C147.42 465.23 148.78 463.9 148.7 459.45C148.41 443.61 148.51 427.75 148.46 411.89C163.56 411.83 178.66 411.55 193.76 411.81C199.03 411.9 200.87 410.52 200.76 405C200.43 389.9 200.7 374.78 200.76 359.66C201.212 359.651 201.663 359.611 202.11 359.54C217.41 359.54 232.72 359.45 248.01 359.72C252.75 359.81 254.2 358.22 254.12 353.56C253.87 338.25 254 322.94 253.98 307.63C254.091 307.216 254.148 306.789 254.15 306.36L306.15 306.18C321.48 306.18 336.81 306.06 352.15 306.31C356.85 306.38 358.39 304.83 358.32 300.13C358.07 284.8 358.2 269.46 358.18 254.13C358.18 236.797 358.18 219.447 358.18 202.08C358.18 184.26 358.18 166.437 358.18 148.61C358.18 131.73 358.197 114.85 358.23 97.97L361.23 97.63H463.51C465.06 97.27 465 96.17 464.74 94.98C464.687 78.2 464.64 61.4167 464.6 44.63C462.39 37.79 460.15 31 458.29 24C457.12 19.63 455.65 16.51 450.15 17.16C443.95 17.9 446.21 22.56 446.45 25.44C446.94 31.44 444.71 33.84 438.87 33.18C435.87 21.86 436.74 10.08 434.65 -1.33999C434.27 -3.40999 433.83 -5.47999 433.41 -7.54999ZM136.41 54.5C134.88 56.72 131.91 58.18 132.58 61.5H162C162.28 57.81 158.61 56.5 158.48 53.5C161.89 51.81 163.48 47.58 167.74 46.95C169 46.77 170.67 45.11 169.38 43.74C165.5 39.62 167.31 36.05 169.76 32.25C170.31 31.39 170.3 28.92 169.15 29.55C164.3 32.18 165.15 27.23 163.63 25.72C160.45 22.55 157.69 18.85 152.39 18.72C152.6 21.72 160.03 21.72 154.39 25.72L154.47 25.64C152.76 26.34 149.62 18.51 149.14 26.54C148.884 26.8676 148.603 27.1751 148.3 27.46L145.76 27.15C145.12 25.36 146.17 21.24 141.94 24.43C140.14 25.78 139.07 24.43 138.06 23.43C138.9 21.33 142.36 22.02 142.25 18.43C136.61 19.28 133.25 22.72 130.25 26.89C129.43 28.06 128.46 30.45 127.99 30.35C122.39 29.11 124.63 31.48 125.88 34.15C127.27 37.15 129.43 42.15 126.79 43.28C122.79 45.03 125.04 46.28 126.37 46.67C130.91 47.89 133.26 51.63 136.38 54.5H136.41ZM47.4101 477.5C38.0401 472.32 28.7101 474.71 23.4101 483.55C21.6001 486.55 21.5101 488.33 25.8601 488.16C31.6001 487.94 37.3401 488 43.0901 487.93C56.9901 488.03 70.8901 488.06 84.7901 488.26C88.4901 488.31 89.6901 487.34 87.7901 483.76C80.3301 469.84 62.7901 464.05 51.0701 475.33C49.9162 476.194 48.6642 476.919 47.3401 477.49L47.4101 477.5ZM515.56 189C514.92 182.1 510.09 179.47 504.22 178C504.05 177.95 503.69 178.63 503.14 179.33L507.51 182.4C505.75 184.95 503.08 182.28 501.21 184.59C506.93 189.75 501.67 194.48 500.01 199.54C499.82 195.89 499.63 192.24 499.42 188.19C497.18 188.74 496.9 193.19 494.14 190.57C490.97 187.57 497.88 186.57 495.77 183.63C494.15 182.63 491.99 184.71 490.57 182.77C490.64 180.4 494.95 181.37 494 178.01C485.15 177.93 483.5 188.56 475.91 190.14C475.997 190.82 476.151 191.49 476.37 192.14C478.15 196.08 481.65 199.85 477.07 204.26C476.49 204.82 477.41 206.12 478.39 206.43C482.51 207.72 484.75 211.43 488.12 213.72C487.12 215 485.97 216.24 485.01 217.59C483.14 220.25 483.41 222.12 487.12 222.15C494.973 222.217 502.827 222.217 510.68 222.15C514.56 222.15 514.45 220.1 512.68 217.56C511.68 216.2 510.61 214.96 509.58 213.66C513.37 208.98 523.2 207.79 518.58 198.15C518.425 197.695 518.38 197.209 518.448 196.733C518.515 196.257 518.694 195.804 518.97 195.41C523.88 190.05 519.66 189.6 515.56 189ZM407.07 400.14C406.6 398.8 406.15 397.45 405.65 396.14C400.28 381.69 400.28 381.69 385.65 385.51C384.65 378.92 383.19 372.36 382.76 365.74C382.42 360.47 380.19 359.01 375.48 359.96C364.9 359.86 354.29 360.14 343.75 359.52C337.75 359.16 335.9 361.7 334.94 366.96C332.62 379.69 329.71 392.31 327.4 405.04C326.46 410.17 324.4 412.31 318.89 411.93C313.38 411.55 307.19 410.45 302.21 414.53C294.364 421.008 284.371 424.302 274.21 423.76C271.04 422.99 269.48 424.34 268.33 427.36C264.11 438.313 259.74 449.193 255.22 460C253.63 463.78 254.22 465.32 258.48 465.15C263.75 464.95 269.03 464.98 274.31 464.9C318.31 464.98 362.23 464.99 406.18 465.22C410.93 465.22 412.18 463.52 411.31 459.29C411.38 446.42 411.19 433.54 411.63 420.69C411.99 413.554 410.415 406.454 407.07 400.14ZM228.07 48.84V48.78C230.476 48.8935 232.886 48.8768 235.29 48.73C238.56 48.36 238.94 45.99 236.78 44.34C233.45 41.79 229.78 38.82 225.01 41.07C222.15 42.41 218.39 44.21 218.92 47.32C219.45 50.43 223.48 48.32 225.92 48.82C226.628 48.8948 227.341 48.9015 228.05 48.84H228.07ZM497.59 411.67C498.302 411.781 499.028 411.781 499.74 411.67C502.49 410.75 507.74 414.06 507.65 408.89C507.57 404.95 502.65 404.51 498.98 404.47C498.022 404.394 497.058 404.434 496.11 404.59C493.04 405.35 488.89 406.59 489.11 409.68C489.38 413.68 493.75 410.87 496.17 411.68C496.641 411.746 497.12 411.743 497.59 411.67ZM36.7701 365.42C37.7275 365.52 38.6927 365.52 39.6501 365.42C42.0601 364.92 46.3001 366.93 46.5201 363.86C46.7601 360.56 43.2601 358.31 39.4201 358.24C37.9701 358.24 36.5301 358.24 35.0801 358.24C31.5001 358.3 28.2301 360.54 28.2501 363.43C28.2501 367.18 32.3901 364.74 34.6201 365.43C35.3337 365.527 36.0574 365.524 36.7701 365.42ZM466.54 439.13C467.248 439.251 467.972 439.251 468.68 439.13C471.01 438.23 475.54 441.28 475.48 436.98C475.48 433.87 471.77 431.67 467.88 431.93C466.685 431.881 465.488 431.928 464.3 432.07C461.24 432.81 457.09 434.07 457.3 437.15C457.58 441.04 461.93 438.4 464.37 439.15C465.091 439.246 465.821 439.239 466.54 439.13ZM451.78 181.84C452.491 181.93 453.21 181.93 453.92 181.84C456.4 181.18 460.86 183.57 461.06 180.04C461.26 176.51 456.92 175.25 453.54 174.81C451.657 174.6 449.751 174.812 447.96 175.43C445.52 176.27 442.19 177.63 442.71 180.43C443.23 183.23 446.77 181.43 448.93 181.88C449.879 181.957 450.833 181.943 451.78 181.84ZM498.56 154.66C501.43 153.09 506.74 156.88 507.19 152.06C507.48 148.93 503.04 146.8 498.94 147.11C495.1 147.4 489.94 147.58 490.2 152.11C490.46 156.64 495.75 153.19 498.56 154.66ZM67.0001 176.05C72.6101 176.05 77.7201 176.05 82.8401 176.05C83.9801 176.05 85.5801 176.15 85.6801 174.68C85.5534 173.54 85.0336 172.479 84.2101 171.68C79.6001 166.34 72.5501 167.88 67.0001 176.05ZM35.0001 515.73C41.0001 515.73 46.0001 515.73 51.0601 515.73C52.2201 515.73 53.6401 515.87 54.0601 514.36C54.4101 513.02 53.3201 512.19 52.4801 511.36C47.4401 506.52 40.8501 507.86 35.0001 515.73ZM83.8301 551.89C89.9801 551.89 94.9501 551.89 99.9301 551.89C101.07 551.89 102.51 552.14 103.04 550.76C103.7 549.07 102.27 548.17 101.24 547.26C96.1701 542.82 90.3301 544.08 83.7801 551.89H83.8301ZM20.0901 541.77H27.6201C30.5001 541.77 33.3701 541.77 36.2501 541.77C37.4001 541.77 38.8201 542.04 39.4101 540.77C40.1601 539.07 38.7001 538.16 37.6901 537.25C32.7201 532.71 26.9001 533.91 20.0901 541.77ZM467.88 132.68C474.36 132.68 479.55 132.68 484.74 132.63C485.19 132.636 485.637 132.55 486.053 132.378C486.468 132.206 486.845 131.952 487.16 131.63C488.03 130.38 486.83 129.46 486.05 128.63C481.46 123.6 474.88 124.69 467.88 132.68ZM529.52 424.68C523.44 416.8 516.89 415.49 511.98 420.39C511.15 421.21 510.06 422.02 510.48 423.39C510.9 424.76 512.35 424.66 513.48 424.67C518.52 424.69 523.54 424.67 529.52 424.67V424.68ZM139.12 261.34C145.04 261.34 150.04 261.34 155.05 261.34C156.19 261.34 157.6 261.48 157.98 259.98C158.32 258.64 157.27 257.79 156.41 256.98C151.1 252.2 144.77 253.54 139.12 261.34ZM96.7501 189.34C99.7501 187.92 104.89 191.46 105.63 186.89C106.11 183.89 101.38 181.83 98.0001 182.1C94.3801 182.38 88.9301 182.95 89.0001 187.19C89.0001 191 94.1201 188.05 96.7501 189.34Z" fill="#FED58D"/>
<path d="M463.38 97.67H361.1C361.01 96.83 360.93 95.98 360.84 95.14C366.26 89.85 373.84 87.23 378.29 80.72C386.775 74.6181 396.638 70.7118 407 69.35C410.77 68.85 411.74 65.88 412.94 62.94C416.2 54.94 419.69 47.11 422.89 39.13C424.36 35.49 426.6 33.64 430.57 34.55C434.54 35.46 432.9 38.67 433.2 41.03C434.2 49.03 434.92 57.13 436.26 65.1C437.13 70.31 442.02 73.2 445.12 76.96C450.57 83.56 457.28 89.12 463.47 95.12L463.38 97.67Z" fill="#D15970"/>
<path d="M378.29 80.67C373.88 87.18 366.29 89.8 360.84 95.09H359.35C362.497 75.99 365.643 56.89 368.79 37.79C368.91 37.08 369.24 36.42 369.37 35.71C371.65 23.34 371.64 23.28 383.72 22.79C386.85 22.66 389.18 22.34 389.97 18.5C391.76 9.83 393.97 1.25 395.97 -7.36L415.85 -7.47C412.91 5.67 407.48 17.96 402.8 30.53C401.37 34.38 397.19 33.79 394.18 34.31C387.66 35.43 383.77 37.41 383.29 45.36C382.6 57.16 378.17 68.61 378.29 80.67Z" fill="#EC7C76"/>
<path d="M438.87 33.19C444.71 33.85 446.94 31.48 446.45 25.45C446.21 22.57 443.95 17.91 450.15 17.17C455.65 16.52 457.15 19.64 458.29 24.01C460.15 30.95 462.39 37.79 464.47 44.67C459.74 44.74 455.82 47.28 451.74 49.08C447.66 50.88 444.83 50.39 443.34 45.97C441.85 41.55 439.24 37.84 438.87 33.19Z" fill="#EC7E77"/>
<path d="M463.38 97.67L463.44 95.12L464.61 95.02C464.87 96.21 464.93 97.31 463.38 97.67Z" fill="#EC7E77"/>
<path d="M87.8101 307.28L-8.63989 307.52V278.66C-6.73989 277.77 -6.21989 275.81 -5.17989 274.24C0.820108 265.15 5.26011 254.99 12.8201 246.89C17.0501 252.57 20.0901 260.61 25.7501 263.46C38.5701 269.93 52.6801 273.85 66.2701 278.8C67.2701 280.42 68.9601 280.11 70.4901 280.21C70.8701 283.21 73.0201 285.21 74.6201 287.49C79.2201 294 84.0901 300.23 87.8101 307.28Z" fill="#D15970"/>
<path d="M-8.61989 145.81C-3.38989 127.93 2.27011 110.16 6.88011 92.12C9.00011 83.82 12.3301 78.12 21.3401 77.12C31.0001 76.02 35.8201 70.12 37.5301 60.92C37.9701 58.59 39.4401 56.46 39.8501 54.14C41.3901 45.5 46.7001 42.99 54.7101 44.54V102.8C49.3101 96.91 45.0501 92.48 41.0001 87.86C37.5401 83.86 32.8601 84.05 29.0601 85.6C25.2601 87.15 28.1401 90.96 28.4201 93.88C29.1501 101.5 29.5901 109.15 30.1401 116.79C24.8001 127.99 17.0401 137.91 12.9101 149.79L-8.63989 149.94L-8.61989 145.81Z" fill="#EC7C76"/>
<path d="M12.8201 246.89C5.29011 254.99 0.880108 265.15 -5.17989 274.24C-6.17989 275.81 -6.73989 277.77 -8.63989 278.66V241.24C-3.50989 231.84 2.27011 222.71 6.56011 212.93C9.97011 205.15 14.7001 201.85 22.9401 203.25C24.8357 203.469 26.742 203.582 28.6501 203.59C30.9401 220.42 35.0001 236.81 40.0001 253.52C43.8501 243.91 50.2801 242.38 58.8901 245.25C61.2501 246.03 64.1201 245.25 66.7601 245.18L67.8801 246.68C69.9801 257.76 68.0701 269.16 70.5401 280.21C69.0101 280.11 67.3501 280.42 66.3201 278.8C53.1801 267 38.1201 257.73 24.2101 247C22.5867 245.734 20.592 245.038 18.5337 245.018C16.4754 244.998 14.4677 245.656 12.8201 246.89Z" fill="#E3616E"/>
<path d="M568.81 569.35L148.81 569.29C148.75 567.37 148.68 565.44 148.61 563.52C149.195 562.503 149.687 561.435 150.08 560.33C154.84 542.06 172.96 530.7 190.08 531.33C211.23 532.14 232.43 531.46 253.61 531.42C258.44 542.82 273.31 551.74 283.24 548.87C276.87 544.45 276.58 538.13 277.41 531.47H446.02C447.11 543.99 448.52 545.3 459.87 543.59C456.18 540.2 453.62 536.53 454.74 531.52H487.92C488 538.68 488.12 545.84 488.14 553.01C488.14 555.66 488.46 557.63 491.89 557.71C495.32 557.79 496.53 556.39 496.49 553.05C496.41 545.89 496.57 538.73 496.63 531.56H527.17C527.83 538.19 527.89 544.68 522.75 550.43C534.63 547.08 546.15 543.89 551.75 531.43H569L568.81 569.35Z" fill="#F08292"/>
<path d="M496.65 531.48C496.59 538.65 496.43 545.81 496.51 552.97C496.51 556.31 495.37 557.71 491.91 557.63C488.45 557.55 488.16 555.63 488.16 552.93C488.16 545.76 488.02 538.6 487.94 531.44C489.17 524.86 488.65 519.35 480.26 518.36C479.13 518.044 478.054 517.559 477.07 516.92C466.8 506.82 470.82 493.97 470.45 482C470.38 479.82 472.33 478.64 474.45 478.77C474.937 478.757 475.42 478.849 475.868 479.038C476.317 479.228 476.719 479.511 477.049 479.869C477.379 480.227 477.628 480.652 477.78 481.114C477.932 481.577 477.983 482.066 477.93 482.55C477.93 488.09 478.01 493.63 477.93 499.17C477.93 502.1 478.07 504.96 479.51 507.58C480.95 510.2 483.29 512.86 486.14 512.39C489.72 511.8 487.87 508.06 487.91 505.81C488.14 494.98 488.01 484.14 488.02 473.3C488.02 470.38 487.69 466.95 491.84 466.89C495.99 466.83 495.78 470.4 495.84 473.23C495.91 484.79 495.84 496.36 495.92 507.92C495.92 509.44 495.11 511.56 497.3 512.25C499.07 512.81 500.51 511.48 501.79 510.45C504.63 508.17 505.6 505.08 505.54 501.5C505.45 495.96 505.54 490.42 505.54 484.88C505.54 482.09 505.63 479.15 509.12 478.88C512.61 478.61 513.48 481.1 513.71 484.08C513.83 485.58 512.96 487.79 515.44 488.15C517.25 488.41 518.7 487.15 519.71 485.85C520.763 484.241 521.721 482.571 522.58 480.85C522.997 479.962 523.747 479.274 524.668 478.935C525.589 478.596 526.607 478.634 527.5 479.04C529.95 480.04 530.39 482.04 529.5 484.43C527.5 489.95 524.06 494.13 518.32 495.81C515.06 496.76 513.77 498.37 513.84 501.88C513.97 507.99 511.01 512.88 506.79 517.13C505.53 517.72 504.32 518.64 503 518.84C494.84 520.05 494.74 525.23 496.65 531.48Z" fill="#8489C1"/>
<path d="M551.77 531.4C546.17 543.81 534.65 547 522.77 550.4C527.91 544.65 527.85 538.16 527.19 531.53C528.68 526.76 531.85 524.36 534.69 529.53C538.05 535.71 540.69 533.53 543.57 530.09C547.32 525.68 549.93 525.35 551.77 531.4Z" fill="#8489C1"/>
<path d="M567.33 359.84L464.92 359.69C478.58 347.52 489.31 330.88 510.48 330.16C513.31 330.07 515.85 328.64 515.63 324.63C514.75 308.56 516.96 292.41 514.28 276.38C513.89 274.05 513.56 271.43 515.49 269.51C520.73 264.31 525.95 259.08 532.62 255.66L542.82 322.51C542.82 325.65 542.95 328.63 545.27 331.24C553.21 340.15 560.99 349.19 568.84 358.18C568.963 358.646 568.898 359.141 568.66 359.56C568.204 359.579 567.755 359.674 567.33 359.84Z" fill="#D15970"/>
<path d="M568.84 358.18C560.99 349.18 553.21 340.18 545.27 331.24C542.95 328.63 542.81 325.65 542.82 322.51C546.24 313.26 545.46 303.37 547.16 293.84C548.71 285.2 549.39 276.39 550.16 267.63C550.51 263.86 552.44 262.78 555.81 262.85C560.11 262.94 564.41 262.85 568.7 262.85C568.76 294.63 568.807 326.407 568.84 358.18Z" fill="#EC7C76"/>
<path d="M232.849 296.795C232.434 279.043 232.939 261.288 233.072 243.5H267.042L299.411 243.985C299.436 265.196 299.466 286.406 299.5 307.616C299.497 307.987 299.46 308.357 299.393 308.722C280.299 308.724 261.222 308.921 242.153 308.557H242.125L242.098 308.559C239.589 308.792 237.831 308.757 236.608 308.674C235.995 308.632 235.514 308.578 235.128 308.538C234.761 308.5 234.43 308.468 234.176 308.49C234.042 308.502 233.889 308.532 233.744 308.61C233.587 308.696 233.47 308.824 233.396 308.98C233.27 309.242 233.276 309.57 233.293 309.853C233.326 310.423 233.435 311.192 233.483 312.443L233.5 313.01C233.865 332.013 233.479 355.314 233.474 374.413C233.068 374.463 232.659 374.491 232.25 374.499L166.581 374.437C166.585 354.839 166.832 335.222 166.505 315.623V315.622C166.448 312.483 166.928 310.557 168.064 309.409C169.199 308.263 171.118 307.761 174.303 307.836V307.837C182.236 308.033 190.176 307.932 198.102 307.875C206.031 307.818 213.95 307.806 221.858 308.179H221.893C225.762 308.094 228.338 308.412 230.028 308.678C230.858 308.808 231.527 308.935 232.002 308.987C232.244 309.014 232.475 309.027 232.681 309.004C232.89 308.98 233.116 308.915 233.304 308.749C233.494 308.58 233.585 308.361 233.627 308.147C233.667 307.941 233.669 307.707 233.654 307.463C233.626 306.978 233.522 306.302 233.405 305.434C233.168 303.673 232.849 300.951 232.849 296.807V296.795Z" fill="#F5A165" stroke="black"/>
<path d="M253.63 531.44C232.45 531.44 211.25 532.16 190.1 531.35C173 530.7 154.88 542.06 150.1 560.35C149.707 561.455 149.215 562.523 148.63 563.54C147 543.95 154.76 529.54 172.32 520.54C177.54 517.88 183.21 517.17 189.06 517.18C269.9 517.22 350.737 517.22 431.57 517.18C434.37 520.47 437.42 523.74 441.84 524.32C446.84 524.97 446.61 527.93 446.02 531.46H277.41C277.14 529.33 276.89 527.24 273.99 527.14C271.09 527.04 269.99 528.85 269.68 531.45L262.44 531.66C260.83 529.9 260.44 526.84 256.97 527.06C253.91 527.27 253.92 529.36 253.63 531.44Z" fill="#F9BE64"/>
<path d="M411.31 459.32C412.2 463.55 410.93 465.27 406.18 465.25C362.23 465.02 318.27 465.01 274.31 464.94C273.44 460.07 275.93 455.54 275.74 450.74C275.56 446.3 277.68 446.1 281.18 447.48C288.28 450.3 295.79 452.26 302.53 455.73C308.6 458.86 311.32 456.88 314.6 451.86C318.48 445.94 320.85 438.02 327.6 435.15C337.43 431.01 347.27 426.47 357.97 424.71C362.71 428.52 368.85 429.9 373.66 433.41C379.27 437.51 380.82 434.81 382.21 429.69C384.39 421.69 385.63 413.31 389.8 405.9C391.3 408.385 393.405 410.45 395.92 411.9C402 415.72 404.92 421.29 405.82 428.47C407.23 438.79 408.5 449.2 411.31 459.32Z" fill="#D15970"/>
<path d="M358 424.71C347.3 426.47 337.46 431.01 327.63 435.15C320.84 438.02 318.47 445.94 314.63 451.86C311.35 456.86 308.63 458.86 302.56 455.73C295.82 452.26 288.31 450.3 281.21 447.48C277.71 446.1 275.59 446.3 275.77 450.74C275.96 455.54 273.47 460.07 274.34 464.94C269.06 465.01 263.78 464.94 258.51 465.18C254.22 465.35 253.66 463.81 255.25 460.03C259.79 449.21 264.153 438.31 268.34 427.33C269.49 424.33 271.05 422.96 274.22 423.73C278.37 429.79 285.91 429.73 291.45 433.24C294.95 435.48 297.92 434.98 301.11 432.02C310.11 423.66 319.99 416.68 333.11 417.57C338.25 417.92 339.82 415.29 340.66 411.11C342.61 401.52 344.78 391.96 346.55 382.34C347.77 375.75 350.32 371.34 357.44 368.94C363.67 366.82 371.06 366 375.51 359.94C380.22 358.99 382.45 360.45 382.79 365.72C383.22 372.34 384.67 378.9 385.68 385.49C385.15 386.27 384.68 387.06 384.08 387.83C375.17 400 365.05 411.26 358 424.71Z" fill="#E3616E"/>
<path d="M241.51 223.47L241 174.1C241.1 167.74 241.197 161.38 241.29 155.02C244.626 154.939 247.963 155.029 251.29 155.29C256.73 155.96 259.44 153.83 261 148.52C263.62 139.62 267 130.95 270 122.18L294.43 122H296.1L297.57 123.45C294.29 129.01 298.97 133.2 300.23 137.91C302.12 145 308.04 152.18 305.45 159.04C300.95 170.93 298.24 185.67 280.59 186.45C275.94 186.65 271.43 189.16 266.75 189.83C262.07 190.5 260.05 193.18 257.67 196.83C252 205.54 249.37 216.16 241.51 223.47Z" fill="#EC7C76"/>
<path d="M241.51 223.47C249.41 216.13 252 205.54 257.69 196.82C260.07 193.18 262.14 190.49 266.77 189.82C271.4 189.15 275.96 186.64 280.61 186.44C298.26 185.66 300.97 170.92 305.47 159.03C308.06 152.17 302.14 145.03 300.25 137.9C298.99 133.19 294.31 129 297.59 123.44C302.14 125.52 306.59 128.06 311.28 129.57C323.2 133.35 329.93 140.87 333.02 153.29C335.49 163.29 338.38 173.66 346.38 181.29L346.53 226.29H340.73C340.6 220.8 339.23 215.47 339.06 209.93C338.687 201.367 337.748 192.839 336.25 184.4C335.15 177.66 328.74 175.32 323.76 172.58C320.1 170.58 317.7 175.16 315.08 177.4C309.45 182.2 303.8 186.97 298.22 191.82C286.37 202.16 277.1 214.46 268.52 227.37H241.35C241.37 226.1 241.46 224.78 241.51 223.47Z" fill="#E3616E"/>
<path d="M532.62 255.66C525.95 259.08 520.73 264.31 515.49 269.51C513.56 271.43 513.89 274.05 514.28 276.38C516.96 292.38 514.75 308.56 515.63 324.63C515.85 328.63 513.31 330.07 510.48 330.16C489.31 330.88 478.58 347.52 464.92 359.69C462.74 353.45 466.04 347.69 466.79 341.76C468.52 328.01 471.5 314.44 473.64 300.76C474.76 293.63 480.12 295.64 483.64 296.42C489.17 297.65 490.64 295.76 491.64 290.79C493.8 280.24 496.81 269.88 499.04 259.35C499.92 255.18 501.79 253.74 505.86 254.18C514.75 255.12 523.85 252.46 532.62 255.66Z" fill="#EC7C76"/>
<path d="M165.189 441.5C165.25 461.572 165.128 481.671 165.496 501.741C165.547 504.565 165.127 506.218 164.155 507.182C163.243 508.086 161.726 508.499 159.219 508.5L158.704 508.495L155.422 508.438C139.016 508.176 122.605 508.279 106.266 508.494C103.89 508.494 102.208 508.306 101.117 507.526C100.08 506.784 99.453 505.401 99.5029 502.622C99.8835 482.246 99.8492 461.867 99.9609 441.5H165.189Z" fill="#70B12E" stroke="black"/>
<path d="M431.5 107.601V174.5H366.827L366.501 107.5L431.5 107.601Z" fill="#F5A165" stroke="black"/>
<path d="M231.5 150.486C231.377 158.416 231.258 166.346 231.143 174.276C212.245 174.274 193.334 174.141 174.426 174.494C171.407 174.551 169.434 174.218 168.217 173.175C167.023 172.152 166.421 170.319 166.508 166.973C167.032 147.217 166.888 127.443 166.996 107.689L231.201 107.501L231.5 150.486Z" fill="#E3616E" stroke="black"/>
<path d="M172.762 41.501C193.013 41.7888 213.255 41.7539 233.499 41.8271C233.499 63.3195 233.466 84.8078 233.399 106.292C232.999 106.314 232.598 106.321 232.197 106.311H232.183L166.868 106.498C166.782 89.4494 166.788 72.3838 166.598 55.3262L166.503 47.9443L166.5 47.4863C166.515 45.2514 166.908 43.8074 167.756 42.9033C168.653 41.9471 170.179 41.4701 172.762 41.501Z" fill="#F5A165" stroke="black"/>
<path d="M299.398 41.5C299.399 63.7575 299.432 86.015 299.498 108.272L269.095 108.499C263.294 106.674 257.418 106.512 251.573 106.675C245.832 106.835 240.156 107.3 234.5 106.861C234.5 85.0784 234.534 63.2913 234.601 41.5H299.398Z" fill="#F29262" stroke="black"/>
<path d="M365.5 41.5V107.089C351.612 107.086 337.689 106.854 323.793 107.045L320.995 107.09C319.458 107.118 317.904 107.029 316.33 106.925C314.762 106.821 313.168 106.704 311.579 106.68C308.434 106.632 305.254 106.95 302.143 108.497L300.601 108.47C300.6 86.1299 300.567 63.8066 300.501 41.5H365.5Z" fill="#F5A165" stroke="black"/>
<path d="M431.5 42.54C431.5 63.8596 431.478 85.1794 431.437 106.499L366.5 106.449V41.5752L431.5 41.5V42.54Z" fill="#F29262" stroke="black"/>
<path d="M231.491 375.576C231.485 394.77 231.118 413.994 231.493 433.182V433.183C231.568 436.699 231.016 438.711 229.789 439.866C228.552 441.029 226.494 441.455 223.169 441.397C204.297 441.067 185.42 441.39 166.563 441.496L166.638 375.513L231.491 375.576Z" fill="#F29262" stroke="black"/>
<path d="M431.5 175.5V240.5H366.688L366.5 183.951L366.703 175.5H431.5Z" fill="#F29262" stroke="black"/>
<path d="M431.319 241.5C431.317 259.519 431.2 277.547 431.443 295.555L431.497 299.188C431.541 302.136 431.07 303.928 430.003 304.998C428.936 306.067 427.147 306.541 424.2 306.497C404.981 306.184 385.746 306.342 366.5 306.332V241.5H431.319Z" fill="#F5A165" stroke="black"/>
<path d="M107.797 375.503V375.504C127.027 375.992 146.275 375.699 165.499 375.682L165.424 440.5H99.7539C99.7572 422.808 99.9298 405.1 99.585 387.395L99.5078 383.82C99.431 380.491 99.8867 378.445 101.075 377.217C102.26 375.992 104.305 375.447 107.797 375.503Z" fill="#F5A165" stroke="black"/>
<path d="M241.426 309.505C260.721 309.868 280.034 309.661 299.328 309.67C299.326 327.636 299.196 345.614 299.441 363.591L299.496 367.22C299.547 370.142 299.1 371.932 298.038 373.002C296.977 374.071 295.174 374.552 292.153 374.495L288.468 374.438C270.206 374.175 251.921 374.3 233.66 374.268C233.664 356.481 233.849 338.679 233.568 320.89L233.506 317.298L233.5 316.719C233.505 313.893 234.003 312.14 235.085 311.072C236.241 309.931 238.195 309.442 241.426 309.505Z" fill="#F29262" stroke="black"/>
<path d="M365.5 306.273L300.588 306.498C300.587 285.439 300.559 264.376 300.501 243.309C313.116 243.311 325.743 243.394 338.359 243.117L340.916 243.056C342.367 243.018 343.84 243.103 345.336 243.203C346.825 243.303 348.344 243.419 349.854 243.439C352.843 243.479 355.861 243.142 358.773 241.537L365.5 241.502V306.273Z" fill="#F29262" stroke="black"/>
<path d="M30.16 116.79C29.61 109.15 29.16 101.5 28.44 93.88C28.16 90.96 25.35 87.11 29.08 85.6C32.81 84.09 37.56 83.89 41 87.86C45 92.48 49.29 96.86 54.69 102.77V44.51H61.93C67.2001 67.95 72.78 91.32 77.52 114.87C78.88 121.47 81.0001 125 88.0501 124C93.2601 123.32 95.68 125.59 95.27 131C95.19 132 96.11 133.1 96.57 134.15C96.57 137.7 96.34 141.27 96.65 144.8C97.08 149.58 94.7901 150.63 90.7201 149.8C82 142.83 73.55 135.59 64.6 129C54.44 121.52 42.53 118.36 30.16 116.79Z" fill="#E3616E"/>
<path d="M375.48 359.93C371.03 366 363.64 366.82 357.41 368.93C350.29 371.35 347.74 375.74 346.52 382.33C344.75 391.95 342.58 401.51 340.63 411.1C339.79 415.28 338.22 417.91 333.08 417.56C319.96 416.67 310.08 423.65 301.08 432.01C297.89 435.01 294.92 435.47 291.42 433.23C285.88 429.68 278.34 429.78 274.19 423.72C284.35 424.262 294.344 420.968 302.19 414.49C307.19 410.41 313.25 411.49 318.87 411.89C324.49 412.29 326.44 410.13 327.38 405C329.69 392.27 332.6 379.65 334.92 366.92C335.92 361.66 337.75 359.12 343.73 359.48C354.29 360.11 364.9 359.83 375.48 359.93Z" fill="#EC7C76"/>
<path d="M30.1599 116.79C42.5299 118.36 54.4399 121.52 64.5999 129C73.5999 135.59 82.0299 142.83 90.7199 149.78H12.9299C17.0599 137.91 24.8199 128 30.1599 116.79Z" fill="#D15970"/>
<path d="M66.7099 245.18C64.0699 245.25 61.1999 246.03 58.8399 245.25C50.2299 242.38 43.8399 243.91 39.9499 253.52C35.0199 236.81 30.9499 220.42 28.6799 203.59C35.8099 202.99 42.8699 201.59 50.0899 202.13C52.8399 202.32 55.3399 202.39 56.1999 205.76C59.5699 218.94 64.4699 231.71 66.7099 245.18Z" fill="#EC7C76"/>
<path d="M70.4901 280.21C68.0201 269.21 69.9301 257.76 67.8301 246.68C75.2801 246.68 82.7601 247.15 90.1701 246.68C96.0401 246.29 96.4301 248.68 95.1001 253.29C93.9201 257.42 93.7001 261.91 92.1001 265.82C87.2301 277.44 90.4301 288.37 94.1001 299.38C96.8501 307.73 96.8201 307.74 87.8801 307.31C84.1601 300.31 79.2901 293.99 74.6901 287.52C73.0001 285.25 70.8701 283.19 70.4901 280.21Z" fill="#EC7C76"/>
<path d="M358 424.71C365 411.26 375.16 399.98 384 387.82C384.56 387.05 385.07 386.26 385.6 385.48C400.23 381.66 400.23 381.66 405.6 396.11C406.1 397.45 406.6 398.8 407.02 400.11C400.68 400.23 395.3 403.23 389.79 405.87C385.62 413.28 384.38 421.63 382.2 429.66C380.81 434.78 379.26 437.48 373.65 433.38C368.89 429.9 362.75 428.52 358 424.71Z" fill="#EC7C76"/>
<path d="M488.14 213.78C484.76 211.53 482.52 207.78 478.4 206.49C477.4 206.18 476.5 204.88 477.08 204.32C481.66 199.91 478.16 196.14 476.38 192.2C476.161 191.55 476.007 190.88 475.92 190.2C483.51 188.58 485.16 178 494 178C494.95 181.36 490.64 180.39 490.57 182.76C491.99 184.7 494.15 182.66 495.77 183.62C497.88 186.62 490.97 187.53 494.14 190.56C496.9 193.19 497.14 188.73 499.42 188.18C499.63 192.18 499.82 195.88 500.01 199.53C501.67 194.47 506.93 189.74 501.21 184.58C503.08 182.27 505.75 184.94 507.51 182.39L503.14 179.32C503.69 178.62 504.05 177.94 504.22 177.99C510.09 179.5 514.92 182.13 515.56 188.99C513 187.61 510.02 184.33 507.56 187.2C505.47 189.64 508.27 191.89 510.94 193.15C511.24 193.29 510.86 194.88 510.79 195.8C510.11 196.39 508.86 196.96 508.84 197.55C508.84 199.85 506.94 203.11 510.16 204.03C511.3 204.36 512.82 206.39 514.29 204.92C517.29 201.92 512.8 200.66 512.62 198.36C512.62 198.13 512.62 197.89 512.62 197.65C515.2 198.76 517.27 199.06 516.62 195.1C516.28 193.1 515.91 191.01 515.55 188.96C519.65 189.53 523.87 189.96 518.95 195.41C518.674 195.804 518.495 196.257 518.427 196.733C518.36 197.209 518.405 197.695 518.56 198.15C523.21 207.79 513.38 208.98 509.56 213.66C505.18 213.45 502.09 207.79 496.97 210.66C496.703 210.158 496.304 209.738 495.816 209.445C495.327 209.153 494.769 208.999 494.2 209C493.88 208.36 494.07 206.87 493 207.42C492.16 207.86 492.91 208.91 493.67 209.42L493.97 210.86C492.4 212.447 490.351 213.474 488.14 213.78ZM489.99 205.14C486.61 198.14 488.99 192.45 490.85 186.48C481.19 188.58 480.54 190.04 484.92 197.65C485.039 197.853 485.108 198.081 485.122 198.315C485.136 198.55 485.094 198.785 485 199C480.19 204.07 485.37 203.53 490 205.14H489.99ZM504.55 200.67C503.67 201.44 501.99 202.21 501.75 203.29C501.33 205.17 503.81 205.5 504.68 206.82C505.299 205.629 505.85 204.404 506.33 203.15C506.73 201.91 506.54 200.79 504.55 200.67ZM491.55 199.72C492.82 198.1 496.16 198.09 494.44 194.98C494.08 194.34 492.52 193.57 492.24 193.79C490.27 195.35 490.83 197.4 491.56 199.72H491.55ZM496.17 199.54L495.89 200.03L496.31 200.09L496.17 199.54ZM495.75 204.16L496.16 204.47L496.23 203.97L495.75 204.16ZM491.53 204.25L491.89 204.51L491.96 204.11L491.53 204.25ZM505.64 197.17L506.08 197.4V197L505.64 197.17Z" fill="#C48359"/>
<path d="M47.34 477.49C48.6403 476.911 49.8686 476.183 51 475.32C62.77 464.04 80.26 469.83 87.72 483.75C89.65 487.33 88.45 488.3 84.72 488.25C70.82 488.05 56.92 488.02 43.02 487.93C42.71 483.72 47.18 481.49 47.34 477.49Z" fill="#EC7E77"/>
<path d="M446 531.44C446.59 527.91 446.78 524.95 441.82 524.3C437.4 523.72 434.35 520.45 431.55 517.16C429.376 512.346 428.497 507.048 429 501.79C429.2 498.93 430 496.26 433.41 496.42C436.41 496.57 436.94 499.21 437.09 501.72C437.34 505.72 436.32 509.95 439.09 513.49C440.61 515.4 442.47 517.35 445.01 516.83C447.55 516.31 446.38 513.68 446.59 511.96C446.88 509.59 447.68 507.52 450.24 507.38C453.24 507.23 454.24 509.45 454.39 512.13C454.48 513.8 454.58 515.47 454.67 517.13C454.093 521.897 454.117 526.718 454.74 531.48C453.62 536.48 456.18 540.16 459.87 543.55C448.54 545.27 447.13 544 446 531.44Z" fill="#8489C1"/>
<path d="M96.57 134.14C96.11 133.14 95.19 132 95.27 130.99C95.68 125.63 93.27 123.36 88.05 123.99C80.97 124.9 78.88 121.42 77.54 114.78C72.8 91.28 67.22 67.91 62 44.47C65.79 43.84 67.38 45.3 68.19 49.26C71.58 66.12 75.72 82.83 79 99.72C80.24 106.05 82.49 110.33 88.75 113.11C99.14 117.71 100.4 122.12 96.57 134.14Z" fill="#EC7E77"/>
<path d="M149.09 26.58C149.57 18.58 152.71 26.38 154.42 25.68L155.87 27.14C155.98 28.94 155.76 32.51 157.23 31.97C163.68 29.61 158.85 34.87 160.12 35.8C155.84 36.35 157.91 39.8 157.46 41.95C157.27 42.87 157.01 45.05 158.46 44.53C159.134 44.2169 159.877 44.0802 160.619 44.1326C161.36 44.1851 162.077 44.4251 162.7 44.83C163.044 44.2101 163.158 43.4884 163.02 42.7928C162.883 42.0971 162.504 41.4726 161.95 41.03C161.261 40.3796 160.741 39.5698 160.438 38.6719C160.135 37.774 160.056 36.8153 160.21 35.88C161.4 36.51 162.82 37.88 163.73 37.59C165.29 37.11 164.53 35.2 164.38 33.93C163.76 28.93 161.04 26.43 155.82 27.21L154.35 25.76C160.04 21.76 152.61 21.76 152.35 18.76C157.65 18.87 160.41 22.57 163.59 25.76C165.11 27.27 164.26 32.22 169.11 29.59C170.26 28.96 170.27 31.43 169.72 32.29C167.27 36.09 165.46 39.66 169.34 43.78C170.63 45.15 168.96 46.78 167.7 46.99C163.41 47.62 161.85 51.85 158.44 53.54L151.55 51.7L150.43 49.96C150.95 48.45 147.52 44.26 153.17 46.19C154.92 46.78 154.4 44.62 154.35 43.72C154.25 41.72 153.03 41.52 151.42 42.34C147.42 44.39 148.03 47.46 149.55 50.74C149.64 51.0345 149.67 51.3437 149.64 51.65L145.59 51.58C144.754 49.6988 143.224 48.2124 141.32 47.43V47.51C145.6 43.81 148.57 39.98 143.19 34.8C142.44 34.07 142.11 32.64 143.97 32.26C147.4 31.55 145.27 28.95 145.66 27.21L148.2 27.52C148.42 31.42 148.64 35.33 148.89 39.81C152.45 35.06 152.3 29 149.09 26.58ZM153.71 37.7L153.43 38.14L153.89 38.2L153.71 37.7Z" fill="#C48359"/>
<path d="M454.76 531.49C454.137 526.728 454.113 521.907 454.69 517.14L477.06 516.92C478.049 517.557 479.128 518.042 480.26 518.36C488.65 519.36 489.17 524.86 487.94 531.44L454.76 531.49Z" fill="#F9BE64"/>
<path d="M389.84 405.9C395.35 403.26 400.73 400.26 407.07 400.14C410.42 406.463 411.996 413.574 411.63 420.72C411.19 433.57 411.38 446.45 411.31 459.32C408.5 449.2 407.23 438.79 405.86 428.44C404.91 421.26 402.04 415.69 395.96 411.87C393.449 410.428 391.344 408.374 389.84 405.9Z" fill="#E3616E"/>
<path d="M136.38 54.5C133.26 51.63 130.91 47.89 126.38 46.64C125.05 46.27 122.79 45 126.8 43.25C129.44 42.1 127.28 37.07 125.89 34.12C124.64 31.45 122.4 29.12 128 30.32C128.47 30.42 129.44 28.03 130.26 26.86C133.17 22.69 136.58 19.25 142.26 18.4C142.37 22.03 138.91 21.34 138.07 23.4C139.07 24.4 140.15 25.78 141.95 24.4C146.18 21.21 145.13 25.33 145.77 27.12C141.68 26.61 140.69 30.17 140.55 32.5C140.25 37.44 142.3 42.35 141.43 47.42V47.34C141.63 48.69 141.83 50.03 142.04 51.34C140.602 53.048 138.589 54.1718 136.38 54.5ZM134.38 35.67C135.51 34.67 131.06 29.67 137.13 32.12C138.58 32.71 138.78 30.01 138.93 28.82C139.24 26.37 137.11 27.27 135.98 27.31C130.98 27.51 128.98 33.14 131.34 40.17C132.1 41.53 130.15 43.91 132.26 44.38C133.63 44.68 136.69 43.38 136.71 42.7C136.75 40.25 138.73 36.72 134.33 35.67H134.38Z" fill="#C48359"/>
<path d="M497 210.75C502.12 207.86 505.21 213.52 509.59 213.75C510.59 215.05 511.74 216.29 512.69 217.65C514.45 220.19 514.56 222.21 510.69 222.24C502.837 222.3 494.983 222.3 487.13 222.24C483.42 222.24 483.13 220.34 485.02 217.68C486.02 216.33 487.09 215.09 488.14 213.81C490.343 213.519 492.388 212.51 493.96 210.94L497 210.75Z" fill="#EC7E77"/>
<path d="M47.3401 477.49C47.1801 481.49 42.7101 483.72 43.0601 487.93C37.3101 487.99 31.5701 487.93 25.8301 488.15C21.4801 488.32 21.5701 486.59 23.3801 483.54C28.6401 474.7 38.0001 472.31 47.3401 477.49Z" fill="#D15970"/>
<path d="M136.38 54.5C138.565 54.1879 140.562 53.0934 142 51.42L145.67 51.53L149.72 51.61H151.63L158.52 53.45C158.65 56.45 162.32 57.76 162.04 61.45H132.55C131.88 58.18 134.85 56.72 136.38 54.5Z" fill="#EC7E77"/>
<path d="M240.209 27.5469C239.49 27.617 238.767 27.617 238.049 27.5469C235.619 27.0469 231.569 29.0569 231.049 26.0469C230.529 23.0369 234.279 21.1369 237.139 19.7969C241.939 17.5469 245.579 20.5169 248.909 23.0669C251.069 24.7169 250.689 27.0669 247.419 27.4569C245.015 27.6036 242.605 27.6203 240.199 27.5069L240.209 27.5469Z" fill="#F9BB83"/>
<path d="M497.59 411.67C497.116 411.74 496.634 411.74 496.16 411.67C493.74 410.86 489.37 413.67 489.1 409.67C488.89 406.55 493.04 405.34 496.1 404.58C497.048 404.424 498.012 404.384 498.97 404.46C502.67 404.46 507.56 404.94 507.64 408.88C507.75 414.05 502.48 410.74 499.73 411.66C499.021 411.773 498.3 411.776 497.59 411.67Z" fill="#F9BB83"/>
<path d="M36.77 365.42C36.0569 365.521 35.3331 365.521 34.62 365.42C32.39 364.75 28.27 367.19 28.25 363.42C28.25 360.53 31.5 358.29 35.08 358.23C36.53 358.23 37.97 358.23 39.42 358.23C43.26 358.3 46.76 360.55 46.52 363.85C46.3 366.92 42.06 364.91 39.65 365.41C38.693 365.514 37.7277 365.517 36.77 365.42Z" fill="#F9BB83"/>
<path d="M466.54 439.13C465.827 439.23 465.103 439.23 464.39 439.13C461.95 438.4 457.6 441.04 457.32 437.13C457.09 434.02 461.24 432.79 464.32 432.05C465.508 431.908 466.705 431.861 467.9 431.91C471.79 431.65 475.46 433.85 475.5 436.96C475.56 441.26 471.03 438.21 468.7 439.11C467.986 439.24 467.256 439.246 466.54 439.13Z" fill="#F9BB83"/>
<path d="M451.78 181.84C450.832 181.93 449.878 181.93 448.93 181.84C446.77 181.41 443.26 183.28 442.71 180.39C442.16 177.5 445.52 176.27 447.96 175.39C449.751 174.772 451.657 174.56 453.54 174.77C456.92 175.21 461.26 176.61 461.06 180C460.86 183.39 456.4 181.14 453.92 181.8C453.211 181.904 452.492 181.917 451.78 181.84Z" fill="#F5A165"/>
<path d="M498.56 154.66C495.75 153.19 490.46 156.66 490.2 152.08C489.94 147.5 495.1 147.4 498.94 147.08C503.04 146.77 507.48 148.9 507.19 152.03C506.74 156.88 501.43 153.09 498.56 154.66Z" fill="#F9BB83"/>
<path d="M67 176.05C72.53 167.88 79.58 166.34 84.21 171.68C85.0335 172.479 85.5533 173.54 85.68 174.68C85.58 176.15 83.98 176.04 82.84 176.05C77.74 176.07 72.63 176.05 67 176.05Z" fill="#F9BB83"/>
<path d="M35 515.73C40.9 507.86 47.49 506.52 52.45 511.36C53.29 512.18 54.38 513.01 54.03 514.36C53.64 515.87 52.22 515.72 51.03 515.73C46 515.75 40.93 515.73 35 515.73Z" fill="#F9BB83"/>
<path d="M83.78 551.89C90.33 544.08 96.17 542.82 101.19 547.24C102.19 548.15 103.65 549.05 102.99 550.74C102.46 552.12 100.99 551.86 99.88 551.87C94.9 551.91 89.93 551.89 83.78 551.89Z" fill="#F9BB83"/>
<path d="M20.0901 541.77C26.9001 533.91 32.7201 532.71 37.6901 537.17C38.6901 538.08 40.1601 538.99 39.4101 540.69C38.8201 542.01 37.4101 541.69 36.2501 541.69C33.3701 541.69 30.5001 541.69 27.6201 541.69L20.0901 541.77Z" fill="#F9BB83"/>
<path d="M467.88 132.68C474.88 124.68 481.46 123.6 486.05 128.59C486.83 129.44 488.05 130.36 487.16 131.59C486.845 131.912 486.468 132.166 486.052 132.338C485.636 132.51 485.19 132.596 484.74 132.59C479.55 132.72 474.36 132.68 467.88 132.68Z" fill="#F9BB83"/>
<path d="M529.52 424.67C523.52 424.67 518.52 424.67 513.52 424.67C512.37 424.67 510.96 424.87 510.52 423.39C510.08 421.91 511.19 421.22 512.02 420.39C516.89 415.48 523.44 416.79 529.52 424.67Z" fill="#F9BB83"/>
<path d="M139.12 261.34C144.77 253.54 151.12 252.2 156.41 256.99C157.27 257.77 158.32 258.62 157.98 259.99C157.6 261.49 156.19 261.34 155.05 261.35C150 261.36 145 261.34 139.12 261.34Z" fill="#F9BB83"/>
<path d="M96.75 189.34C94.12 188.05 89 191 89 187.19C88.94 182.95 94.39 182.38 98 182.1C101.38 181.83 106.11 183.93 105.63 186.89C104.89 191.46 99.74 187.92 96.75 189.34Z" fill="#F9BB83"/>
<path d="M358.14 98C358.14 97.59 358.14 97.19 358.14 96.79L359.34 95.11H360.83C360.92 95.95 361 96.8 361.09 97.64L358.14 98Z" fill="#EC7E77"/>
<path d="M12.8201 246.89C14.4665 245.655 16.4737 244.995 18.532 245.013C20.5903 245.031 22.5855 245.726 24.2101 246.99C38.1201 257.73 53.2101 266.99 66.2701 278.8C52.6801 273.85 38.5701 269.93 25.7501 263.46C20.0901 260.61 17.0501 252.57 12.8201 246.89Z" fill="#EC7C76"/>
<path d="M253.63 531.44C253.92 529.36 253.91 527.27 256.99 527.09C260.5 526.87 260.85 529.93 262.46 531.69C263.2 534.86 265.75 536.82 268.46 536.61C271.17 536.4 269.56 533.32 269.75 531.48C270.02 528.88 271.02 527.06 274.06 527.17C277.1 527.28 277.21 529.36 277.48 531.49C276.65 538.15 276.94 544.49 283.31 548.89C273.33 551.76 258.46 542.84 253.63 531.44Z" fill="#8489C1"/>
<path d="M340.69 226.37C336.21 228.9 331.35 227.45 326.69 227.57C315.94 227.85 305.18 227.73 294.42 227.77L268.52 227.38C277.1 214.46 286.37 202.16 298.18 191.9C303.76 187.05 309.41 182.28 315.04 177.48C317.66 175.24 320.04 170.64 323.72 172.66C328.72 175.4 335.11 177.74 336.21 184.48C337.708 192.919 338.647 201.447 339.02 210.01C339.19 215.55 340.56 220.88 340.69 226.37Z" fill="#D15970"/>
<path d="M269.7 531.48C269.51 533.32 271.17 536.38 268.41 536.61C265.65 536.84 263.2 534.86 262.41 531.69L269.7 531.48Z" fill="#F08292"/>
<path d="M490 205.14C485.38 203.53 480.2 204.07 485 198.96C485.089 198.751 485.129 198.524 485.117 198.297C485.105 198.07 485.041 197.849 484.93 197.65C480.55 190.04 481.2 188.58 490.86 186.48C489 192.45 486.61 198.09 490 205.14ZM486.16 190.19C485.99 190.19 485.72 190.19 485.66 190.34C485.599 190.437 485.559 190.546 485.542 190.66C485.525 190.773 485.531 190.889 485.56 191C485.9 191.57 486.24 191.49 486.38 190.8C486.41 190.62 486.23 190.39 486.15 190.19H486.16Z" fill="#F9BB83"/>
<path d="M510.82 195.87C510.89 194.95 511.27 193.36 510.97 193.22C508.3 191.96 505.5 189.71 507.59 187.27C510.03 184.4 513.01 187.68 515.59 189.06C515.95 191.11 516.32 193.15 516.66 195.2C517.31 199.2 515.24 198.86 512.66 197.75V197.8L511.4 196.53C511.21 196.3 511 196.09 510.82 195.87Z" fill="#F9BB83"/>
<path d="M512.63 197.72C512.63 197.96 512.63 198.2 512.63 198.43C512.81 200.73 517.3 202 514.3 204.99C512.83 206.46 511.3 204.43 510.17 204.1C506.95 203.18 508.81 199.92 508.85 197.62C508.85 197.03 510.12 196.46 510.8 195.87C510.99 196.09 511.19 196.3 511.39 196.5L512.65 197.77L512.63 197.72Z" fill="#F9BB83"/>
<path d="M504.55 200.67C506.55 200.79 506.73 201.91 506.33 203.15C505.85 204.404 505.3 205.629 504.68 206.82C503.81 205.5 501.33 205.17 501.75 203.29C502 202.21 503.67 201.44 504.55 200.67Z" fill="#FED58D"/>
<path d="M491.56 199.72C490.83 197.4 490.27 195.35 492.25 193.79C492.53 193.57 494.09 194.34 494.45 194.98C496.17 198.09 492.83 198.1 491.56 199.72Z" fill="#FED58D"/>
<path d="M497 210.75L493.95 210.91C493.86 210.43 493.76 209.91 493.66 209.47L494.2 209.01C494.782 209.013 495.351 209.177 495.846 209.484C496.34 209.792 496.739 210.23 497 210.75Z" fill="#FED58D"/>
<path d="M493.67 209.47C492.91 208.93 492.16 207.88 493 207.47C494.07 206.92 493.88 208.41 494.2 209.05L493.67 209.47Z" fill="#FED58D"/>
<path d="M496.18 199.54L496.32 200.09L495.9 200.03L496.18 199.54Z" fill="#FED58D"/>
<path d="M495.76 204.16L496.24 203.97L496.17 204.47L495.76 204.16Z" fill="#FED58D"/>
<path d="M491.54 204.25L491.97 204.11L491.9 204.51L491.54 204.25Z" fill="#FED58D"/>
<path d="M505.65 197.17L506.1 196.95L506.09 197.4L505.65 197.17Z" fill="#FED58D"/>
<path d="M141.4 47.46C142.27 42.39 140.22 37.46 140.52 32.54C140.66 30.21 141.65 26.65 145.74 27.16C145.35 28.9 147.48 31.5 144.05 32.21C142.19 32.59 142.52 34.02 143.27 34.75C148.65 39.93 145.68 43.76 141.4 47.46Z" fill="#FED58D"/>
<path d="M160.12 35.8C158.85 34.87 163.68 29.61 157.23 31.97C155.76 32.51 155.98 28.97 155.87 27.14L155.81 27.21C161.03 26.43 163.75 28.92 164.37 33.93C164.52 35.2 165.28 37.11 163.72 37.59C162.81 37.88 161.39 36.51 160.2 35.88L160.12 35.8Z" fill="#FED58D"/>
<path d="M160.2 35.88C160.051 36.8106 160.132 37.7634 160.435 38.6556C160.739 39.5478 161.255 40.3526 161.94 41C162.494 41.4426 162.873 42.0671 163.01 42.7627C163.148 43.4583 163.034 44.1801 162.69 44.8C162.066 44.395 161.35 44.1551 160.609 44.1026C159.867 44.0501 159.124 44.1869 158.45 44.5C157.01 45.02 157.27 42.84 157.45 41.92C157.9 39.72 155.83 36.32 160.11 35.77L160.2 35.88Z" fill="#FED58D"/>
<path d="M149.09 26.58C152.3 28.97 152.45 35.06 148.94 39.79C148.69 35.31 148.47 31.4 148.25 27.5C148.553 27.2151 148.834 26.9075 149.09 26.58Z" fill="#FED58D"/>
<path d="M149.58 50.69C148.07 47.41 147.44 44.34 151.46 42.29C153.07 41.47 154.29 41.67 154.39 43.67C154.44 44.57 154.96 46.73 153.21 46.14C147.56 44.21 150.99 48.4 150.47 49.91C150.18 50.18 149.89 50.44 149.58 50.69Z" fill="#FED58D"/>
<path d="M145.63 51.53L142 51.42L141.4 47.42C143.282 48.2013 144.795 49.6713 145.63 51.53Z" fill="#FED58D"/>
<path d="M151.59 51.65H149.68C149.711 51.3404 149.68 51.0278 149.59 50.73C149.89 50.48 150.18 50.22 150.47 49.95C150.85 50.49 151.22 51.07 151.59 51.65Z" fill="#FED58D"/>
<path d="M153.71 37.7L153.89 38.2L153.43 38.14L153.71 37.7Z" fill="#FED58D"/>
<path d="M155.87 27.14L154.42 25.68L154.34 25.76L155.81 27.21L155.87 27.14Z" fill="#FED58D"/>
<path d="M131.29 40.17C128.93 33.17 130.93 27.51 135.93 27.31C137.06 27.31 139.19 26.37 138.88 28.82C138.73 30.01 138.53 32.71 137.08 32.12C131.01 29.64 135.46 34.72 134.33 35.67L134.1 35.94C133.575 36.1738 133.148 36.5833 132.892 37.098C132.637 37.6128 132.569 38.2005 132.7 38.76C132.501 38.7358 132.299 38.7571 132.11 38.8224C131.921 38.8877 131.748 38.9953 131.607 39.1369C131.465 39.2786 131.358 39.4506 131.292 39.64C131.227 39.8294 131.206 40.0312 131.23 40.23L131.29 40.17Z" fill="#FED58D"/>
<path d="M134.33 35.67C138.73 36.67 136.75 40.25 136.66 42.67C136.66 43.34 133.58 44.67 132.21 44.35C130.1 43.88 132.05 41.5 131.29 40.14C131.492 40.1801 131.7 40.1699 131.897 40.1102C132.094 40.0506 132.273 39.9433 132.418 39.7979C132.563 39.6525 132.671 39.4736 132.73 39.2768C132.79 39.0801 132.8 38.8716 132.76 38.67C134.57 38.39 134.13 37 134.16 35.85L134.33 35.67Z" fill="#FED58D"/>
<path d="M486.15 190.19C486.23 190.39 486.41 190.62 486.37 190.8C486.23 191.49 485.89 191.57 485.55 191C485.521 190.889 485.514 190.773 485.532 190.66C485.549 190.546 485.589 190.437 485.65 190.34C485.71 190.23 486 190.23 486.15 190.19Z" fill="#C48359"/>
<path d="M134.1 35.94C134.1 37.09 134.51 38.48 132.7 38.76C132.569 38.2005 132.637 37.6128 132.892 37.098C133.148 36.5833 133.575 36.1738 134.1 35.94Z" fill="#C48359"/>
<path d="M132.73 38.73C132.77 38.9316 132.76 39.1401 132.7 39.3368C132.641 39.5336 132.533 39.7126 132.388 39.8579C132.243 40.0033 132.064 40.1106 131.867 40.1703C131.67 40.2299 131.462 40.2401 131.26 40.2C131.236 40.0011 131.257 39.7994 131.322 39.61C131.388 39.4206 131.495 39.2486 131.637 39.1069C131.779 38.9653 131.951 38.8577 132.14 38.7924C132.329 38.7271 132.531 38.7058 132.73 38.73Z" fill="#C48359"/>
</g>
<defs>
<clipPath id="clip0_2_296">
<rect width="560.13" height="563.51" fill="white"/>
</clipPath>
</defs>
</svg>
