<svg width="561" height="564" viewBox="0 0 561 564" fill="none" xmlns="http://www.w3.org/2000/svg">
<g clip-path="url(#clip0_2_486)">
<path d="M564.12 -0.529999V82.75C561.3 82.75 558.43 82.4 555.67 82.82C549.37 83.82 546.33 81.13 544.72 75.09C542.91 68.31 540.13 61.79 537.72 55.17C536.94 52.98 536.45 50.33 533.37 50.42C526.15 50.64 518.86 49.21 511.71 51.23C502.99 55.28 494.34 59.49 485.51 63.29C481.45 65.03 479.51 67.81 478.07 71.85C473.68 84.42 470.83 97.66 462.53 108.59C461.465 110.154 460.964 112.034 461.11 113.92C461.11 125.42 461.21 136.92 461.11 148.42C461.06 152.04 462.36 153.42 466.03 153.36C481.76 153.17 497.5 153.17 513.23 153.09L524.47 152.99L564.12 153.32V455.37C559.02 448.74 554.31 450.84 549.65 455.95C548.44 457.28 547.01 458.43 545.65 459.66C543.11 471.78 542.14 484.07 541.47 496.39C540.82 498.08 540.17 499.77 539.27 502.14C533.55 494.19 529.9 498.48 526.48 503.97C525.75 505.13 525.03 506.3 524.31 507.47C522.68 508.69 523.31 510.11 523.64 511.75C525.5 522.6 527.16 533.49 528.89 544.36C512.5 545.3 499.89 554.28 487.6 563.84L355.6 563.76C356.813 560.1 358.027 556.433 359.24 552.76C359.96 548.31 356.4 545.32 355.4 541.46C354.4 537.6 352.46 537.73 349.26 538.99C347.1 539.83 344.97 543.18 342.1 540.1L345.16 531.47C346.55 530.32 347.35 528.47 346.83 527.11C344.64 521.52 343.24 514.87 339.24 511C336.04 507.9 331.24 513.5 326.91 514.76C324.98 515.34 323.26 516.63 321.45 517.59C315.95 528.87 312.13 540.8 307.88 552.59C295.3 553.14 292.31 555 289.88 563.8H212.37C193.3 553.58 173.19 545.6 153.66 536.38C151.45 535.38 149.01 535.65 146.66 536.03C128.13 539.03 109.66 542.22 91.0801 545.22C84.6601 546.22 78.4701 547.22 71.9401 544.07C60.5301 538.55 48.5301 534.25 37.0201 528.92C31.2401 526.25 26.1901 525.92 20.3601 528.76C13.4201 532.13 6.36009 535.51 -1.20991 537.33C-1.20991 534.03 -1.31991 530.74 -1.31991 527.45L-1.40991 102.73L50.4401 102.22H61.0701H71.0001C78.2901 102.29 85.5701 102.55 92.8501 102.35C95.6101 102.27 98.9301 104.01 101.15 100.76L101.41 97.55C102.2 94.7547 102.2 91.7953 101.41 89C101.61 68.0733 101.813 47.15 102.02 26.23C94.8401 12.07 93.6101 11.75 81.8501 21C80.9801 21.68 79.7401 22.08 79.7401 23.5C77.8813 32.724 76.8339 42.0932 76.6101 51.5L72.7601 49.94L65.3801 -0.519999H65.8201C105.713 -0.519999 145.6 -0.503332 185.48 -0.469999C204.95 -0.469999 224.42 -0.269999 243.89 -0.159999C240.8 1.52 237.89 3.73 234.58 4.78C224.88 7.87 221.25 13.68 222.2 24.16C223.2 35.56 222.2 47.16 221.99 58.67C218.99 59.73 215.48 59.76 213.58 62.97C209.58 74.42 208.05 86.49 205.04 98.19C204.04 102.19 206.15 102.48 209.11 102.45C218.69 102.36 228.26 102.33 237.84 102.28H301.29C305.5 103.07 307.98 102.01 307.94 97.04C307.82 80.04 307.94 63.04 307.87 45.96C307.87 43.96 308.09 41.56 305.33 40.86C304.307 40.5721 303.219 40.6231 302.227 41.0052C301.236 41.3873 300.395 42.0801 299.83 42.98C298.73 44.48 297.71 46.04 296.66 47.58L296.25 47.68C294.1 46.34 294.42 44.14 294.25 42.06C293.38 32.55 292.2 23.06 291.64 13.52C291.39 9.39 290.2 7.22 285.91 8C280.08 9 276 6.78 273.22 1.83L272.86 -0.409999L564.12 -0.529999ZM157.12 46.11C147.89 38.82 135.01 41.78 132.05 51.85C129.36 65.31 130.41 67.12 142 69C150.34 71.42 158.53 69.82 166.67 67.9C168.4 67.49 170.52 66.73 170.6 64.5C170.69 61.96 168.6 61.02 166.54 60.44C165.374 60.1978 164.19 60.0506 163 60L161.14 53.06C160.93 50.11 160.08 47.5 157.14 46.11H157.12ZM440.05 69.8L436.73 58.8C436.19 53.13 432.35 50.41 427.54 48.56C422 46.42 416.25 46 410.42 46L408.47 37.57C408.07 31.15 404.2 27.62 398.56 25.39C386.66 20.67 374.8 21.1 363.17 25.93C358.83 27.73 354.99 30.64 355.11 36.26C354.4 38.98 353.67 41.69 352.99 44.42C350.3 55.42 352.26 58.74 363.05 61.71C369.83 63.6212 376.858 64.511 383.9 64.35C386.12 64.29 389.15 63.78 388.09 67.79C386.09 75.57 390.9 78.5 397.01 80.25C404.025 82.2163 411.314 83.0269 418.59 82.65C425.87 82.77 433.14 83.12 440.33 81.42C444.99 80.31 452.57 80.74 452.56 75.71C452.54 69.66 445 70.53 440.05 69.8ZM137.42 256.17C133.89 256.23 130.36 256.5 126.84 256.31C123.32 256.12 121.67 257.65 120.11 260.92C111.851 277.891 108.63 296.874 110.83 315.62C101.49 328.33 100.15 342.89 101 357.96C86.4101 357.96 71.8101 358.2 57.2201 357.96C51.9101 357.87 49.6301 359.19 49.7801 365.03C50.1801 380.03 49.9801 395.12 50.0101 410.17C50.0401 425.22 50.1301 440.17 49.8601 455.17C49.7801 459.75 51.1601 461.23 55.8001 461.17C68.7001 460.88 81.6101 460.84 94.5001 461.17C99.6601 461.31 101.44 459.93 101.31 454.55C100.95 439.8 101.16 425.03 101.15 410.27C101.5 410.17 101.85 410.05 102.15 409.92L152.94 410.23C152.94 425.03 153.09 439.84 152.84 454.64C152.76 459.52 154.35 461.24 159.3 461.14C174.11 460.84 188.93 460.94 203.75 460.88H256.1C271.15 460.93 286.19 460.88 301.23 461.09C305.5 461.15 307.04 459.61 306.98 455.35C306.77 440.35 306.82 425.29 306.77 410.27C306.863 392.883 306.957 375.5 307.05 358.12C321.63 358.12 336.23 358.27 350.8 357.9C356.48 357.76 358.09 359.76 358.03 365.22C357.87 380.22 358.21 395.29 358.35 410.32C358.23 425.54 358.18 440.75 357.96 455.97C357.9 460.1 359.96 461.11 363.61 461.07C379.08 460.92 394.55 460.92 410.02 460.87H462.38C476.74 460.92 491.1 460.82 505.46 461.1C510.32 461.2 512.12 459.61 512.02 454.65C511.75 439.84 511.86 425.02 511.83 410.2C511.83 392.8 511.83 375.4 511.83 358V255C511.83 240.2 511.83 225.41 512.01 210.61C512.06 206.33 511.01 204.1 506.13 204.19C491.57 204.47 476.99 204.42 462.42 204.49C447.42 204.41 432.32 204.13 417.28 204.34C411.87 204.42 409.72 202.92 409.9 197.19C410.27 184.98 409.79 172.75 410.11 160.54C410.25 155.12 408.67 153.04 402.95 153.18C387.9 153.55 372.85 153.36 357.8 153.39H307C292.43 153.39 277.85 153.51 263.29 153.19C257.84 153.07 255.78 154.69 255.94 160.37C256.31 172.8 255.94 185.25 256.13 197.69C256.21 202.47 254.73 204.42 249.7 204.32C236.547 204.073 223.39 204.073 210.23 204.32C205.23 204.42 203.7 202.54 203.79 197.73C204.02 185.05 203.69 172.37 203.94 159.73C204.04 154.79 202.26 153.16 197.39 153.24C182.59 153.5 167.78 153.39 152.98 153.42H102.12C87.0701 153.42 72.0101 153.49 56.9701 153.24C52.0301 153.16 49.6801 154.34 49.8101 159.87C50.1601 175.13 50.0401 190.4 50.1101 205.67C50.1101 222.61 50.1101 239.55 50.1101 256.49C50.1101 271.54 50.1101 286.58 49.8801 301.62C49.8201 305.89 51.2001 307.39 55.5301 307.32C68.9401 307.1 82.3601 307.13 95.7701 307.32C99.7701 307.32 101.17 305.93 101.11 301.99C100.92 286.72 100.93 271.44 100.86 256.16C100.86 239.333 100.843 222.5 100.81 205.66L102.1 204.21L152.93 204.38C152.954 204.813 153.007 205.244 153.09 205.67C153.09 222.197 153.09 238.727 153.09 255.26C147.88 255.72 142.53 254.18 137.42 256.17ZM231.23 545.67C233.64 544.76 238.74 547.57 239.23 543.91C239.81 539.91 234.8 538.32 231.16 537.85C227.06 537.32 221.96 539.01 221.64 542.85C221.24 547.69 226.57 544.8 229.29 545.64C229.933 545.725 230.584 545.735 231.23 545.67ZM435.69 157.76C438.58 156.5 443.84 159.5 444.13 155.66C444.42 151.82 439.58 149.4 435.4 149.4C431.48 149.4 426.71 151.88 427.03 155.27C427.45 159.75 432.76 156.44 435.69 157.76ZM334.11 436C336.42 433.72 341.99 438.19 342.36 433.35C342.65 429.52 337.71 428.43 333.67 428.47C329.63 428.51 324.89 429.7 325.26 433.66C325.63 437.62 330.8 434.53 334.11 436ZM30.0001 344.13C32.9001 342.72 38.1301 346.13 38.5801 341.53C38.9001 338.17 34.3801 336.63 30.5201 336.79C26.6601 336.95 21.4501 337.9 21.5701 341.51C21.7601 346.17 27.1901 342.68 30.0001 344.13ZM526.92 195.66C528.075 195.755 529.235 195.755 530.39 195.66C532.46 195.29 535.98 196.93 536.18 193.83C536.35 190.99 533.37 189.19 530.41 188.78C526.41 188.22 522.5 188.71 519.49 191.83C518.92 192.42 518.29 193.83 518.56 194.17C520.85 196.92 524.11 195.17 526.92 195.66ZM410.46 547.43C413.02 545.91 418.35 549.07 418.69 545.3C419.06 541.3 413.98 540.13 410.09 540.14C406.2 540.15 401.14 541.33 401.53 545.34C401.89 549 407.18 546.2 410.46 547.43ZM24.8501 185.79C27.3501 185.19 30.6301 187.01 33.1701 184.56C33.9601 183.8 33.1701 182.75 32.5201 182.1C31.217 180.726 29.577 179.717 27.763 179.173C25.949 178.629 24.0242 178.569 22.1801 179C19.3701 179.55 15.8401 180.71 16.0801 183.83C16.3701 187.44 20.1701 185.19 22.3501 185.83C23.1823 185.911 24.0209 185.897 24.8501 185.79ZM178.19 31.94C179.6 31.94 181.02 32.04 182.42 31.94C184.17 31.78 186.82 32.75 187.26 30.38C187.7 28.01 185.26 26.96 183.33 26.04C182.297 25.4825 181.167 25.1294 180 25C175.83 24.74 170.51 25.22 170.35 29.69C170.17 34 175.47 31 178.19 31.94ZM122.94 465.25C124.58 465.25 126.22 465.34 127.84 465.25C129.46 465.16 131.54 465.89 132.11 463.88C132.73 461.65 130.63 460.65 129.04 459.82C127.658 458.96 126.077 458.474 124.45 458.41C120.53 458.66 114.89 458.95 114.82 463.22C114.75 467.23 120.14 464.31 122.94 465.25ZM36.5201 318.44C30.8801 310.78 24.4001 309.32 19.9901 313.76C19.0501 314.71 17.7001 315.65 18.4401 317.28C19.0201 318.54 20.3801 318.41 21.5101 318.42C26.1401 318.46 30.7701 318.44 36.5201 318.44ZM452 38.09C455 39.57 457.63 38.84 460.14 38.97C462.48 39.08 464.84 38.97 467.19 38.97C468.32 38.97 469.91 39.04 470.01 37.6C469.867 36.479 469.311 35.4518 468.45 34.72C463.76 30.15 457.46 31.34 452 38.09ZM507.29 181.57C508.448 181.675 509.612 181.675 510.77 181.57C512.77 181.19 516.14 182.97 516.43 179.57C516.64 176.99 513.63 176.22 511.43 175.57C510.1 175.18 508.64 174.52 507.43 174.75C504.03 175.4 499.33 176.21 499.43 179.99C499.54 182.99 504.1 180.99 506.62 181.57C506.833 181.592 507.047 181.592 507.26 181.57H507.29ZM56.7301 331.14C50.1201 323.68 44.5901 322.61 39.7301 326.77C38.8451 327.472 38.2677 328.49 38.1201 329.61C38.1201 330.99 39.6901 331.11 40.8501 331.12C45.6901 331.16 50.5101 331.14 56.7301 331.14ZM176.36 114C178.89 112.65 183.71 116 184.17 111.41C184.46 108.57 180.17 106.84 177.17 107.02C173.57 107.23 168.27 107.69 168.41 112.02C168.47 115.39 173.51 113.05 176.36 114Z" fill="#FED58D"/>
<path d="M301.29 102.26H237.84C237.03 94.16 239.69 86.46 240.55 78.55C245.98 78.05 250.55 75 255.55 73.35C260.55 71.7 261.63 68.85 259 64.42C259.52 56.88 257.81 49.54 256.91 42.14C256.68 40.3 255.52 37.71 257.49 37.03C263.22 35.03 261.79 30.52 261.82 26.54C261.87 17.41 261.73 8.27999 261.66 -0.850013C261.658 -1.21073 261.702 -1.57023 261.79 -1.92001H270.26C270.73 -0.710013 271.86 -0.640013 272.88 -0.390013L273.24 1.84999C272.18 18.5 275.96 34.85 276.04 51.46C276.04 55.61 279.54 56.56 282.83 57.36C280.54 61.09 278.31 64.87 275.95 68.56C270.79 76.56 272.04 80.46 281.55 85.56C287.17 84.37 292.37 82.48 295.41 77.08C300.28 84.78 300.61 93.56 301.29 102.26ZM261.83 78.46L259 76.89C254.78 75.42 253.16 79.2 251.63 81.4C249.78 84.05 253.56 85.04 255.02 86.4C256.96 88.27 258.5 90.99 261.76 91.03C265.02 91.07 268.34 91.64 268.76 86.67C269.23 81.3 266.64 79.03 261.76 78.4L261.83 78.46Z" fill="#D15970"/>
<path d="M355.64 563.76L487.64 563.84L564.13 564.05C562.86 566.97 560.31 565.38 558.48 565.38C476.06 565.48 393.643 565.507 311.23 565.46C208.09 565.46 104.95 565.507 1.81 565.6C-3.03 565.6 -3.98 564.6 -3.98 559.82C-3.82667 374.453 -3.83333 189.083 -4 3.70999C-4 -1.12001 -3.08 -2.29001 1.79 -2.08001C12.61 -1.62001 23.45 -1.94001 34.28 -1.94001C34.255 -1.58712 34.255 -1.2329 34.28 -0.880011C33.8139 -0.811814 33.3616 -0.670049 32.94 -0.460011C23.53 -0.460011 14.13 -0.460011 4.73 -0.650011C0.639999 -0.740011 -1.19 0.43999 -1.16 4.89999C-1 33.31 -1 61.72 -1 90.13L-1.67 101C-2.54 101.79 -2.16 102.34 -1.32 102.81L-1.23 527.53C-1.23 530.82 -1.16 534.11 -1.12 537.4C-1.31263 537.788 -1.40868 538.217 -1.4 538.65C-3.28 545.36 -1.09 552.16 -1.84 558.9C-2.28 562.82 -0.71 564.16 3.33 564.14C42.39 563.93 81.44 563.91 120.5 563.83L212.42 563.88H289.93H328.2H332.39H343.74L355.64 563.76Z" fill="#FFF9F1"/>
<path d="M511.75 51.23C518.9 49.23 526.19 50.64 533.41 50.42C536.49 50.33 536.98 52.98 537.76 55.17C540.13 61.79 542.91 68.31 544.76 75.09C546.37 81.09 549.41 83.77 555.71 82.82C558.47 82.4 561.34 82.75 564.16 82.75V122.27C559.01 121.14 554.75 118.03 550.05 115.91C541.68 112.13 533.97 107.81 528.17 100.02C521.05 90.48 512.67 81.87 504.84 72.86C507.133 65.62 509.437 58.41 511.75 51.23Z" fill="#EB7C77"/>
<path d="M564.12 564.05L487.63 563.84C499.94 554.28 512.53 545.3 528.92 544.36C536.6 544.49 536.79 537.17 540.21 533.06C543.134 529.774 545.544 526.066 547.36 522.06L555.42 510.26C558.77 506.89 560.09 501.93 564.12 499.09V564.05Z" fill="#D15970"/>
<path d="M504.8 72.86C512.63 81.86 521.01 90.48 528.13 100.02C533.93 107.81 541.64 112.13 550.01 115.91C554.71 118.03 559.01 121.14 564.12 122.27V123.68C556.71 124.1 547.43 122.51 542.48 126.78C534.259 133.763 528.046 142.81 524.48 152.99L513.24 153.09C513.37 143.96 515.46 134.95 514.79 125.78C518.9 124.78 523.34 125.07 527.12 122.57C518.99 111.63 518.99 111.63 508.5 117.91C508.291 118.012 508.074 118.096 507.85 118.16C502.658 116.124 498.15 112.656 494.85 108.16C497.056 107.506 499.3 106.992 501.57 106.62C506.43 106.11 508.74 104.62 506.3 99.19C503.86 93.76 502.3 88.37 500.36 82.94C501.84 79.6 503.32 76.24 504.8 72.86Z" fill="#E2606E"/>
<path d="M524.47 153C528.035 142.82 534.248 133.773 542.47 126.79C547.42 122.52 556.7 124.11 564.11 123.69V153.33L524.47 153Z" fill="#EB7C77"/>
<path d="M564.12 499.13C560.12 501.97 558.77 506.93 555.42 510.3C553.68 508.06 554.11 505.4 554.27 502.92C554.97 492.31 556.12 481.73 555.7 471.08C559.12 470.77 560.56 466.7 564.12 466.66V499.13Z" fill="#654393"/>
<path d="M564.12 466.66C560.56 466.66 559.12 470.77 555.7 471.08C551.35 468.15 549.57 462.99 545.7 459.66C547.03 458.43 548.46 457.28 549.7 455.95C554.36 450.84 559.07 448.74 564.17 455.37L564.12 466.66Z" fill="#8869AB"/>
<path d="M357.83 153.35C372.89 153.35 387.94 153.51 402.99 153.14C408.71 153 410.29 155.08 410.15 160.5C409.83 172.71 410.31 184.94 409.94 197.15C409.76 202.88 411.94 204.38 417.32 204.3C432.32 204.09 447.41 204.37 462.46 204.45C462.46 218.72 462.71 233 462.26 247.25C462.06 253.66 464.46 255.25 470.43 255.06C484.23 254.7 498.06 254.95 511.87 254.96V307.16L461.3 307.23C461.21 292.23 460.91 277.18 461.16 262.16C461.26 256.53 459.35 254.84 453.84 254.94C439.28 255.23 424.7 255 410.13 254.94C410.13 240.83 409.89 226.71 410.23 212.61C410.37 206.9 408.23 205.31 402.83 205.42C388 205.73 373.17 205.57 358.34 205.6C358.17 205.11 358.01 204.6 357.84 204.12L357.83 153.35Z" fill="#F5A165"/>
<path d="M153 153.35C167.8 153.35 182.61 153.43 197.41 153.17C202.28 153.09 204.06 154.72 203.96 159.66C203.71 172.33 204.04 185.01 203.81 197.66C203.72 202.47 205.25 204.35 210.25 204.25C223.397 204.003 236.553 204.003 249.72 204.25C254.72 204.35 256.23 202.4 256.15 197.62C255.92 185.18 256.33 172.73 255.96 160.3C255.8 154.62 257.86 153 263.31 153.12C277.87 153.44 292.45 153.29 307.02 153.32C307.02 170.3 307.02 187.28 307.02 204.26C306.996 204.693 306.943 205.124 306.86 205.55C292.31 205.55 277.75 205.75 263.21 205.4C257.52 205.27 255.92 207.35 256.03 212.77C256.31 226.83 256.11 240.9 256.11 254.97H203.86C203.86 240.91 203.66 226.84 203.94 212.78C204.05 207.35 202.43 205.29 196.75 205.42C182.21 205.77 167.66 205.56 153.11 205.57C153.027 205.144 152.974 204.713 152.95 204.28L153 153.35Z" fill="#F5A165"/>
<path d="M358.41 410.3C358.26 395.3 357.92 380.23 358.08 365.2C358.14 359.74 356.53 357.74 350.85 357.88C336.28 358.25 321.68 358.06 307.1 358.1L306.9 357.9C306.9 341.053 306.9 324.2 306.9 307.34H359.3C359.3 321.68 359.48 336.02 359.15 350.34C359.02 356.07 360.72 358.24 366.7 358.08C381.05 357.7 395.41 357.92 409.76 357.9C409.92 375.287 410.077 392.68 410.23 410.08L410.03 410.28L358.41 410.3Z" fill="#F5A165"/>
<path d="M462.43 460.86H410.07C410.07 444 410.07 427.147 410.07 410.3L410.27 410.1C424.84 410.1 439.4 409.91 453.96 410.25C459.57 410.38 461.28 408.48 461.2 402.97C460.96 387.97 461.26 372.97 461.34 357.97L511.91 358.04C511.91 375.44 511.91 392.84 511.91 410.24C497.83 410.24 483.76 410.44 469.69 410.16C464.27 410.05 462.18 411.64 462.31 417.33C462.63 431.8 462.42 446.33 462.43 460.86Z" fill="#F5A165"/>
<path d="M494.84 108.2C498.14 112.696 502.648 116.164 507.84 118.2C508.09 122.62 512.98 122.81 514.78 125.82C515.45 134.99 513.36 144 513.23 153.13C497.5 153.21 481.76 153.21 466.03 153.4C462.36 153.4 461.03 152.08 461.11 148.46C461.25 136.96 461.17 125.46 461.11 113.96C460.964 112.074 461.465 110.194 462.53 108.63C470.83 97.7 473.68 84.46 478.07 71.89C479.48 67.89 481.45 65.07 485.51 63.33C494.34 59.53 502.99 55.33 511.71 51.27C509.43 58.4233 507.127 65.62 504.8 72.86C503.32 76.24 501.837 79.6133 500.35 82.98C496.25 75.68 490.6 75.29 483.97 79.33C483.38 79.69 482.83 80.13 482.26 80.54C477.69 96.14 479.96 102.54 492.04 107.88L494.84 108.2Z" fill="#D15970"/>
<path d="M-1.40009 538.6C-1.40878 538.167 -1.31272 537.738 -1.12009 537.35C6.47991 535.54 13.5099 532.16 20.4499 528.79C26.2799 525.97 31.3299 526.28 37.1099 528.95C48.6199 534.28 60.6199 538.58 72.0299 544.1C78.5599 547.26 84.7499 546.29 91.1699 545.25C109.71 542.25 128.22 539.1 146.75 536.06C149.06 535.68 151.5 535.37 153.75 536.41C173.28 545.63 193.39 553.61 212.46 563.83L120.54 563.78C127.89 561.39 135.44 563.3 142.87 562.66C144.4 562.52 146.87 563.44 147.21 561.55C147.75 558.15 144.94 555.6 143.66 552.64C142.6 550.21 140.72 550.38 138.36 550.77C117.58 554.2 96.7299 557.23 75.9799 560.91C68.6999 562.19 62.5899 561.65 56.2899 557.25C46.9999 550.81 37.1099 545.41 27.5999 539.38C25.0499 537.77 22.4599 536.77 19.5999 537.51C12.6699 539.34 5.60991 538.33 -1.40009 538.6Z" fill="#EB7C77"/>
<path d="M102.2 409.88C101.85 410.01 101.5 410.13 101.14 410.23L50.0001 410.17C50.0001 395.12 50.1701 380.07 49.7701 365.03C49.6201 359.19 51.9001 357.87 57.2101 357.96C71.8001 358.2 86.4001 357.96 100.99 357.96L102.17 359.22C102.19 376.113 102.2 393 102.2 409.88Z" fill="#F5A165"/>
<path d="M102.11 204.12L100.82 205.57H50.11C50.04 190.3 50.11 175.03 49.81 159.77C49.68 154.24 52.03 153.06 56.97 153.14C71.97 153.39 87.07 153.29 102.12 153.32C102.107 170.26 102.103 187.193 102.11 204.12Z" fill="#F5A165"/>
<path d="M256.16 460.86H203.8C203.84 443.94 203.887 427.023 203.94 410.11L255.85 409.95L256.15 410.25C256.15 427.117 256.153 443.987 256.16 460.86Z" fill="#F5A165"/>
<path d="M410 410.29C410 427.137 410 443.99 410 460.85C394.53 460.85 379.06 460.85 363.59 461.05C359.9 461.05 357.88 460.05 357.94 455.95C358.16 440.73 358.21 425.52 358.33 410.3L410 410.29Z" fill="#F29262"/>
<path d="M307.1 358.1C307 375.48 306.907 392.86 306.82 410.24H256.15L255.85 409.94L256.15 357.94L306.9 357.87L307.1 358.1Z" fill="#F5A165"/>
<path d="M256.15 410.24H306.82C306.87 425.24 306.82 440.3 307.03 455.33C307.09 459.59 305.55 461.13 301.28 461.07C286.28 460.86 271.2 460.91 256.15 460.86V410.24Z" fill="#F29262"/>
<path d="M203.94 410.1C203.887 427.02 203.84 443.937 203.8 460.85C188.98 460.85 174.16 460.8 159.35 461.1C154.4 461.2 152.81 459.48 152.89 454.6C153.14 439.8 152.99 424.99 152.99 410.19H203.92L203.94 410.1Z" fill="#F29262"/>
<path d="M100.87 256.07C100.94 271.35 100.93 286.63 101.12 301.9C101.18 305.84 99.75 307.27 95.78 307.23C82.37 307.06 68.95 307.03 55.54 307.23C51.21 307.3 49.83 305.8 49.89 301.53C50.13 286.53 50.07 271.45 50.11 256.41L100.87 256.07Z" fill="#EA5267"/>
<path d="M102.2 409.88C102.2 392.993 102.2 376.107 102.2 359.22L123.96 358.86C124.336 358.872 124.712 358.818 125.07 358.7L153.07 359.58C153.07 376.453 153.07 393.317 153.07 410.17L102.2 409.88Z" fill="#F29262"/>
<path d="M511.87 358L461.3 357.93V307.23L511.87 307.16V358Z" fill="#F29262"/>
<path d="M102.11 204.12C102.11 187.2 102.11 170.277 102.11 153.35H153V204.29L102.11 204.12Z" fill="#F29262"/>
<path d="M307 204.29V153.35H357.84C357.84 170.29 357.84 187.223 357.84 204.15L307 204.29Z" fill="#F29262"/>
<path d="M50 410.17L101.13 410.23C101.13 424.99 100.94 439.76 101.3 454.51C101.43 459.89 99.65 461.27 94.49 461.13C81.6 460.79 68.69 460.83 55.79 461.13C51.15 461.23 49.79 459.75 49.85 455.13C50.13 440.17 50 425.17 50 410.17Z" fill="#6FB12E"/>
<path d="M100.87 256.07L50.1101 256.43V205.6H100.82C100.84 222.413 100.857 239.237 100.87 256.07Z" fill="#F29262"/>
<path d="M153.1 205.58C167.65 205.58 182.2 205.78 196.74 205.43C202.42 205.3 204.04 207.36 203.93 212.79C203.65 226.85 203.85 240.92 203.85 254.98C199.44 254.98 195.03 254.88 190.63 255.13C181.9 255.63 173.07 253.78 164.43 256.24C160.65 255.92 156.7 257.24 153.09 255.17C153.09 238.643 153.093 222.113 153.1 205.58Z" fill="#F29262"/>
<path d="M462.43 460.86C462.43 446.33 462.63 431.8 462.28 417.28C462.15 411.59 464.28 410 469.66 410.11C483.73 410.39 497.8 410.2 511.88 410.19C511.88 425.01 511.8 439.83 512.07 454.64C512.17 459.64 510.37 461.19 505.51 461.09C491.15 460.81 476.79 460.91 462.43 460.86Z" fill="#F29262"/>
<path d="M511.87 255C498.06 255 484.23 254.74 470.43 255.1C464.43 255.26 462.06 253.7 462.26 247.29C462.71 233.04 462.44 218.76 462.46 204.49C477.03 204.42 491.61 204.49 506.17 204.19C511.04 204.1 512.1 206.33 512.05 210.61C511.86 225.37 511.91 240.16 511.87 255Z" fill="#F29262"/>
<path d="M63.94 -0.48999H65.38C67.84 16.37 70.3034 33.2267 72.77 50.08L63.8801 54.8C57.8 70.17 55.11 86.49 50.53 102.28L-1.31995 102.79C-2.15995 102.32 -2.53995 101.79 -1.65995 100.98C0.590046 100.58 1.78005 98.67 3.45005 97.43C16.45 87.71 26.2 72.56 45.25 73.17C49.34 73.31 50.1 70.17 49.79 66.81C48.67 54.42 48.87 42 48.21 29.65C47.63 18.73 49.44 9.85001 59.74 4.16001C61.47 3.20001 62.5601 1.09001 63.94 -0.48999Z" fill="#D15970"/>
<path d="M110.83 315.62C108.63 296.874 111.851 277.891 120.11 260.92C121.67 257.65 123.24 256.12 126.84 256.31C130.44 256.5 133.84 256.23 137.42 256.17C140.68 270.677 143.943 285.19 147.21 299.71C147.5 301 147.01 302.78 148.66 303.33C150.66 303.98 151.83 302.33 152.55 301.05C154.92 296.89 158.29 295.18 162.97 295.9C167.14 299.33 172.27 298.33 177.05 298.9C176.998 304.248 177.302 309.593 177.96 314.9C178.69 320.22 179.89 325.96 176.87 331.2C175.34 331.2 173.87 331.12 172.71 329.9C173.83 327.97 172.1 327.54 171.05 326.75C161.29 319.48 151.26 312.55 141.88 304.81C136.24 300.16 130.47 297.72 123.26 298.73C117.07 302.85 116.22 310.9 110.83 315.62Z" fill="#E2606E"/>
<path d="M243.89 -0.199985L261.64 -0.859985C261.71 8.26001 261.85 17.39 261.8 26.52C261.8 30.52 263.2 35.03 257.47 37.01C255.47 37.69 256.66 40.28 256.89 42.12C257.79 49.52 259.5 56.86 258.98 64.4L253.9 65.21L254.18 64.83L253.44 63.03C250.993 55.03 248.537 47 246.07 38.94C237.42 27.7 235.71 27.57 227.89 37.6C227.76 44.93 230.89 51.6 231.89 58.75L222 58.63C222.16 47.12 223.24 35.52 222.21 24.12C221.26 13.64 224.89 7.83001 234.59 4.74001C237.87 3.69001 240.8 1.48001 243.89 -0.199985Z" fill="#EB7C77"/>
<path d="M436.73 58.78C437.837 62.4467 438.943 66.1133 440.05 69.78C440.46 74.43 437.91 76.84 433.97 78.78C429.06 81.22 423.52 80.59 418.59 82.62C411.313 83.011 404.021 82.2139 397 80.26C390.89 78.51 386 75.58 388.08 67.8C389.14 63.8 386.08 64.3 383.89 64.36C376.847 64.521 369.82 63.6312 363.04 61.72C352.25 58.72 350.29 55.38 352.98 44.43C353.66 41.7 354.39 38.99 355.1 36.27C358.54 41.12 363.29 43.73 369.1 44.92C383.26 47.84 396.57 46.51 408.49 37.58L410.42 46C405.98 46.57 401.59 47.38 397.58 49.47C394.46 51.1 390.58 52.85 390.92 56.82C391.26 60.79 394.74 63.15 398.43 64.44C412.16 69.25 425.14 68.62 436.73 58.78Z" fill="#EB7C77"/>
<path d="M110.83 315.62C116.22 310.9 117.07 302.85 123.26 298.71C128.11 305.14 129.92 314.15 138.86 317.12C137.48 319.29 134.21 319.76 133.76 322.77C130.493 334.77 127.22 346.8 123.94 358.86L102.18 359.22L101 358C100.15 342.89 101.49 328.33 110.83 315.62Z" fill="#D15970"/>
<path d="M240.55 78.53C239.69 86.44 237.03 94.14 237.84 102.24C228.26 102.29 218.69 102.32 209.11 102.41C206.11 102.41 204.01 102.13 205.04 98.15C208.04 86.45 209.54 74.38 213.58 62.93C223.08 67.26 230.63 74.93 240.55 78.53Z" fill="#EB7C77"/>
<path d="M163 295.9C158.32 295.18 154.95 296.9 152.58 301.05C151.86 302.31 150.64 303.98 148.69 303.33C147.04 302.78 147.53 301 147.24 299.71C143.967 285.203 140.703 270.69 137.45 256.17C142.56 254.17 147.91 255.72 153.12 255.17C156.73 257.28 160.68 255.92 164.46 256.24L168.7 269.87C165.94 271 163.25 272.25 161.19 274.51C159.42 276.07 160.54 277.85 160.76 279.6C161.4 285 163.27 290.32 163 295.9Z" fill="#EB7C77"/>
<path d="M282.81 57.34C279.52 56.54 276.04 55.59 276.02 51.44C275.94 34.85 272.16 18.44 273.22 1.82999C276 6.77999 280.08 8.99999 285.89 7.99999C290.18 7.21999 291.37 9.38999 291.62 13.52C292.18 23.05 293.36 32.52 294.23 42.06C294.42 44.14 294.1 46.34 296.23 47.68C293.75 50.21 289.09 47.88 287.23 51.73L282.81 57.34Z" fill="#E2606E"/>
<path d="M101.42 97.62C101.33 98.69 101.25 99.76 101.16 100.83C95.9201 96.54 91.8901 91.19 87.8901 85.83C87.4601 68.83 90.3201 51.89 89.4001 34.83C94.4701 33.26 97.6701 28.91 102.03 26.29C101.83 47.21 101.627 68.1267 101.42 89.04C100.718 91.857 100.718 94.803 101.42 97.62Z" fill="#654393"/>
<path d="M545.68 459.66C549.57 462.99 551.35 468.15 555.68 471.08C556.1 481.73 554.95 492.31 554.25 502.92C554.09 505.4 553.66 508.06 555.4 510.3L547.34 522.1C546.68 516.57 546.01 511.03 542.9 506.18C541 503.12 541.81 499.67 541.48 496.39C542.17 484.07 543.14 471.78 545.68 459.66Z" fill="#6F4E9B"/>
<path d="M89.3999 34.84C90.3199 51.84 87.4599 68.84 87.8899 85.84C83.4399 82.84 81.6599 77.15 76.7599 74.56C77.6799 70.24 78.5932 65.9067 79.4999 61.56C78.9799 58.11 76.3899 55.27 76.6199 51.56C76.8437 42.1532 77.891 32.784 79.7499 23.56C83.7799 26.63 86.1499 31.11 89.3999 34.84Z" fill="#6F4E9B"/>
<path d="M301.29 102.26C300.61 93.56 300.29 84.78 295.39 77.07C296.83 74.18 298.15 71.22 299.73 68.41C305.4 58.41 305.18 56.67 296.66 47.56C297.66 46.02 298.73 44.46 299.83 42.96C300.395 42.0601 301.236 41.3673 302.228 40.9852C303.219 40.603 304.307 40.5521 305.33 40.84C308.09 41.54 307.87 43.91 307.87 45.94C307.92 62.94 307.82 80 307.94 97.02C308 102 305.5 103.05 301.29 102.26Z" fill="#E2606E"/>
<path d="M307.92 552.58C312.17 540.82 315.99 528.89 321.49 517.58C325.31 522.58 326.63 528.89 329.58 534.35C326.773 542.27 323.96 550.19 321.14 558.11L307.92 552.58Z" fill="#6F4E9B"/>
<path d="M76.76 74.53C81.66 77.12 83.44 82.77 87.89 85.81C91.89 91.19 95.89 96.54 101.16 100.81C98.94 104.06 95.62 102.32 92.86 102.4C85.58 102.6 78.3 102.34 71.01 102.27C72.93 93.0367 74.8467 83.79 76.76 74.53Z" fill="#D15970"/>
<path d="M408.47 37.58C396.55 46.51 383.24 47.84 369.08 44.92C363.3 43.73 358.55 41.12 355.08 36.27C354.96 30.65 358.8 27.74 363.14 25.94C374.77 21.11 386.63 20.68 398.53 25.4C404.2 27.63 408.07 31.16 408.47 37.58ZM399 36.39C404.47 32.08 399.25 30.02 396.82 28.29C389.75 23.29 373.21 23.6 365.97 28.63C362.51 31.04 360.41 33.92 364.54 37.63C374.08 44.41 384.34 43.49 394.76 40.4C396.73 39.83 398.85 39.09 399 36.39Z" fill="#F5A165"/>
<path d="M50.53 102.25C55.11 86.46 57.8 70.14 63.89 54.77L68.21 65.77C67.75 78.3 63.35 90.07 61.21 102.26L50.53 102.25Z" fill="#6F4E9B"/>
<path d="M240.55 78.53C230.63 74.93 223.08 67.26 213.55 62.93C215.45 59.72 218.97 59.69 221.96 58.63L231.84 58.75C231.91 67.63 238.28 67.97 244.71 68.2C246.73 68.3357 248.736 68.63 250.71 69.08C255.18 70.41 254.48 67.85 253.85 65.21L259 64.4C261.63 68.83 260.49 71.69 255.55 73.33C250.61 74.97 246 78 240.55 78.53Z" fill="#E2606E"/>
<path d="M321.14 558.14C323.96 550.22 326.773 542.3 329.58 534.38C333.42 532.93 337.28 531.56 341.07 530C343.07 529.19 344.59 528.85 345.2 531.49L342.14 540.11C340.611 541.576 339.693 543.565 339.57 545.68C335.12 550.91 333.8 557.37 332.39 563.79H328.2L321.14 558.14Z" fill="#654393"/>
<path d="M345.2 531.49C344.59 528.85 343.04 529.19 341.07 530C337.28 531.56 333.42 532.93 329.58 534.38C326.63 528.92 325.31 522.66 321.49 517.61C323.3 516.61 325.02 515.36 326.95 514.78C331.23 513.52 336.08 507.92 339.28 511.02C343.28 514.89 344.68 521.54 346.87 527.13C347.39 528.47 346.59 530.34 345.2 531.49Z" fill="#8869AB"/>
<path d="M161.18 53.06L163 60C162.91 66.11 158.4 67.65 153.7 68.4C149.85 69.02 145.85 68.81 141.92 68.97C130.37 67.12 129.32 65.31 132.03 51.87C141.43 60.61 151.22 59.09 161.18 53.06Z" fill="#EB7C77"/>
<path d="M61.1599 102.28C63.3499 90.09 67.7499 78.28 68.1599 65.79C72.5999 66.2 75.4499 62.33 79.4499 61.57C78.5432 65.89 77.6299 70.2233 76.7099 74.57C74.8299 83.7967 72.9266 93.0367 70.9999 102.29L61.1599 102.28Z" fill="#654393"/>
<path d="M540.21 533.06C536.79 537.17 536.6 544.49 528.92 544.36C527.19 533.49 525.53 522.6 523.67 511.75C523.39 510.11 522.67 508.69 524.34 507.47C528.28 509.79 530.87 514.22 535.92 514.78C535.946 521.12 537.413 527.37 540.21 533.06Z" fill="#6F4E9B"/>
<path d="M436.73 58.78C425.14 68.62 412.16 69.25 398.43 64.45C394.74 63.16 391.25 60.79 390.92 56.83C390.59 52.87 394.46 51.11 397.58 49.48C401.58 47.39 405.98 46.58 410.42 46.01C416.25 46.01 422.03 46.42 427.54 48.54C432.35 50.39 436.19 53.11 436.73 58.78ZM428.73 58.78C433.56 54.52 428.98 52.16 426.35 51.07C418.16 47.66 409.62 47.41 401.35 51.15C397.99 52.66 395.95 55.01 398.75 58.8C406.64 65.67 421.21 65.66 428.75 58.79L428.73 58.78Z" fill="#F29262"/>
<path d="M296.66 47.56C305.18 56.67 305.4 58.37 299.73 68.41C298.15 71.22 296.83 74.18 295.39 77.07C292.39 82.47 287.15 84.36 281.53 85.55C283.03 80.55 286.63 76.79 289.4 72.55C295.81 62.73 295.66 60.63 287.22 51.71C289.11 47.86 293.77 50.19 296.22 47.66L296.66 47.56Z" fill="#6F4E9B"/>
<path d="M321.14 558.14L328.2 563.76H289.93C292.35 554.96 295.34 553.1 307.93 552.55L321.14 558.14Z" fill="#EB7C77"/>
<path d="M89.4 34.84C86.15 31.11 83.78 26.63 79.75 23.57C79.75 22.15 80.99 21.75 81.86 21.07C93.62 11.82 94.86 12.14 102.03 26.3C97.67 28.92 94.47 33.27 89.4 34.84Z" fill="#8869AB"/>
<path d="M339.57 545.68C339.693 543.566 340.611 541.576 342.14 540.11C345.01 543.2 347.14 539.85 349.3 539.01C352.5 537.75 354.48 537.77 355.44 541.48C356.4 545.19 360 548.33 359.28 552.78C354.4 553.69 350.28 557.05 345.13 557.15C343.44 553.25 342.64 548.91 339.57 545.68Z" fill="#8869AB"/>
<path d="M535.92 514.78C530.92 514.22 528.28 509.78 524.34 507.47C525.06 506.3 525.78 505.13 526.51 503.97C529.93 498.48 533.58 494.19 539.3 502.14C540.2 499.77 540.85 498.08 541.5 496.39C541.83 499.67 541.02 503.12 542.92 506.18L535.92 514.78Z" fill="#8869AB"/>
<path d="M418.59 82.66C423.52 80.66 429.06 81.26 433.97 78.82C437.91 76.82 440.46 74.45 440.05 69.82C444.98 70.55 452.54 69.68 452.56 75.74C452.56 80.74 444.99 80.34 440.33 81.45C433.14 83.13 425.87 82.78 418.59 82.66Z" fill="#E7AE5D"/>
<path d="M79.4999 61.57C75.4999 62.33 72.6499 66.2 68.2099 65.79L63.8899 54.79L72.7699 50.07L76.6199 51.63C76.3899 55.28 78.9999 58.12 79.4999 61.57Z" fill="#8869AB"/>
<path d="M161.18 53.06C151.18 59.06 141.43 60.61 132.07 51.87C135.07 41.8 147.92 38.87 157.16 46.13C152.38 45.29 147.58 43.62 142.75 44.85C139.59 45.65 134.41 45.77 137.42 51.72C143.6 57.2 149.74 57.2 155.92 51.72C157.6 50.12 157.05 48.04 157.14 46.1C160.08 47.5 160.93 50.11 161.18 53.06Z" fill="#F29262"/>
<path d="M231.23 545.67C230.599 545.741 229.961 545.741 229.33 545.67C226.61 544.83 221.28 547.72 221.68 542.88C222 539.03 227.1 537.34 231.2 537.88C234.84 538.35 239.85 539.96 239.27 543.94C238.74 547.57 233.64 544.76 231.23 545.67Z" fill="#F9BB82"/>
<path d="M435.69 157.76C432.76 156.44 427.45 159.76 427.03 155.27C426.71 151.88 431.48 149.4 435.4 149.4C439.58 149.4 444.4 151.7 444.13 155.66C443.86 159.62 438.58 156.5 435.69 157.76Z" fill="#F9BB82"/>
<path d="M334.11 436C330.8 434.51 325.62 437.6 325.26 433.66C324.9 429.72 329.61 428.5 333.67 428.47C337.73 428.44 342.67 429.52 342.36 433.35C342 438.21 336.42 433.74 334.11 436Z" fill="#F9BB82"/>
<path d="M29.9999 344.13C27.1599 342.68 21.7299 346.13 21.5699 341.51C21.4499 337.9 26.6399 336.95 30.5699 336.79C34.4999 336.63 38.9499 338.17 38.6299 341.53C38.1599 346.17 32.9299 342.72 29.9999 344.13Z" fill="#F9BB82"/>
<path d="M526.92 195.66C524.11 195.17 520.85 196.92 518.56 194.14C518.29 193.81 518.92 192.39 519.49 191.8C522.49 188.68 526.38 188.19 530.41 188.75C533.41 189.16 536.35 190.96 536.18 193.8C535.98 196.9 532.46 195.26 530.39 195.63C529.236 195.735 528.076 195.745 526.92 195.66Z" fill="#F9BB82"/>
<path d="M345.13 557.15C350.27 557.05 354.4 553.69 359.28 552.78C358.073 556.44 356.86 560.107 355.64 563.78L343.74 563.84C344.2 561.6 344.67 559.37 345.13 557.15Z" fill="#654393"/>
<path d="M410.46 547.43C407.18 546.2 401.89 548.97 401.53 545.34C401.14 541.34 406.21 540.16 410.09 540.14C413.97 540.12 419.09 541.3 418.69 545.3C418.35 549.07 413 545.91 410.46 547.43Z" fill="#F9BB82"/>
<path d="M24.85 185.79C24.0193 185.884 23.1806 185.884 22.35 185.79C20.17 185.19 16.35 187.44 16.08 183.79C15.84 180.67 19.37 179.51 22.18 178.96C24.0267 178.533 25.9531 178.597 27.7672 179.147C29.5814 179.696 31.22 180.711 32.52 182.09C33.16 182.74 33.96 183.79 33.17 184.55C30.63 187 27.35 185.19 24.85 185.79Z" fill="#F9BB82"/>
<path d="M178.19 31.94C175.47 31.04 170.19 33.94 170.33 29.7C170.49 25.23 175.81 24.75 179.98 25.01C181.151 25.1244 182.288 25.464 183.33 26.01C185.21 26.93 187.72 27.96 187.26 30.35C186.8 32.74 184.17 31.75 182.42 31.91C181 32 179.6 31.94 178.19 31.94Z" fill="#F9BB82"/>
<path d="M122.94 465.25C120.14 464.31 114.75 467.25 114.82 463.19C114.89 458.92 120.53 458.63 124.45 458.38C126.076 458.444 127.658 458.93 129.04 459.79C130.63 460.62 132.73 461.62 132.11 463.85C131.54 465.85 129.37 465.11 127.84 465.22C126.31 465.33 124.58 465.25 122.94 465.25Z" fill="#F9BB82"/>
<path d="M36.52 318.44C30.77 318.44 26.14 318.44 21.52 318.44C20.39 318.44 19.03 318.56 18.45 317.3C17.71 315.67 19.06 314.73 20 313.78C24.4 309.32 30.88 310.78 36.52 318.44Z" fill="#F9BB82"/>
<path d="M452 38.09C457.49 31.34 463.79 30.15 468.45 34.69C469.307 35.4235 469.86 36.4505 470 37.57C469.9 39.01 468.31 38.91 467.18 38.94C464.83 39.01 462.47 39.08 460.13 38.94C457.6 38.84 455 39.57 452 38.09Z" fill="#F29262"/>
<path d="M507.26 181.57C507.031 181.595 506.799 181.595 506.57 181.57C504.05 181 499.49 182.99 499.38 179.99C499.24 176.21 503.94 175.4 507.38 174.75C508.62 174.52 510.08 175.18 511.38 175.57C513.61 176.23 516.62 177 516.38 179.57C516.09 182.93 512.74 181.15 510.72 181.57C509.569 181.674 508.411 181.674 507.26 181.57Z" fill="#F9BB82"/>
<path d="M56.7299 331.14C50.5099 331.14 45.7299 331.14 40.8799 331.14C39.7199 331.14 38.1899 331.01 38.1499 329.63C38.2975 328.51 38.8749 327.492 39.7599 326.79C44.5899 322.61 50.1199 323.68 56.7299 331.14Z" fill="#F9BB82"/>
<path d="M142 69C145.93 68.84 149.93 69 153.78 68.43C158.48 67.68 162.99 66.14 163.08 60.03C164.242 60.075 165.399 60.2121 166.54 60.44C168.61 61.02 170.69 61.96 170.6 64.5C170.52 66.73 168.4 67.5 166.67 67.9C158.49 69.79 150.3 71.39 142 69Z" fill="#E7AE5D"/>
<path d="M176.36 114C173.51 113 168.47 115.36 168.36 112C168.22 107.7 173.52 107.24 177.12 107C180.18 106.82 184.45 108.55 184.12 111.39C183.71 116 178.89 112.68 176.36 114Z" fill="#F9BB82"/>
<path d="M101.42 97.62C100.72 94.8062 100.72 91.8638 101.42 89.05C102.21 91.852 102.21 94.8179 101.42 97.62Z" fill="#D15970"/>
<path d="M287.22 51.71C295.66 60.63 295.81 62.71 289.4 72.55C286.63 76.79 283.03 80.55 281.53 85.55C272.02 80.44 270.77 76.55 275.93 68.55C278.29 64.86 280.52 61.08 282.81 57.35L287.22 51.71Z" fill="#654393"/>
<path d="M261.76 91.08C258.5 91.08 256.96 88.32 255.02 86.45C253.56 85.04 249.78 84.05 251.63 81.45C253.16 79.25 254.78 75.45 259 76.94C259.289 77.4303 259.703 77.8345 260.201 78.1105C260.699 78.3866 261.261 78.5245 261.83 78.51C263.74 82.67 262.47 86.87 261.76 91.08Z" fill="#654393"/>
<path d="M261.76 91.08C262.47 86.87 263.76 82.67 261.82 78.45C266.66 79.08 269.25 81.35 268.82 86.72C268.34 91.69 265 91.08 261.76 91.08Z" fill="#6F4E9B"/>
<path d="M261.83 78.46C261.261 78.4745 260.699 78.3366 260.201 78.0605C259.704 77.7845 259.289 77.3803 259 76.89L261.83 78.46Z" fill="#6F4E9B"/>
<path d="M63.9401 -0.490005C62.5601 1.09 61.4701 3.2 59.7401 4.16C49.4401 9.84999 47.6301 18.73 48.2101 29.65C48.8701 42.01 48.6701 54.42 49.7901 66.78C50.1001 70.18 49.3401 73.28 45.2501 73.14C26.2501 72.53 16.4201 87.68 3.45009 97.4C1.78009 98.64 0.590088 100.55 -1.65991 101C-1.43991 97.39 -1.20991 93.79 -0.979912 90.18C-0.416988 88.6513 0.0211127 87.0795 0.330088 85.48C2.84009 65.09 5.27009 44.68 7.75009 24.27C8.34009 19.37 9.33009 14.55 16.0801 16.5C22.8301 18.45 25.9201 15.36 28.0801 9.60999C29.3901 6.13999 31.3001 2.89 32.9501 -0.460005C33.3717 -0.670044 33.824 -0.811808 34.2901 -0.880005L63.9401 -0.490005ZM39.9401 46.06C35.6801 32.82 31.7101 30.84 20.6401 36.39C19.7501 39.55 18.7601 42.69 18.0001 45.88C16.2401 53.25 22.3501 59.49 31.7401 61.66C42.3201 64.12 38.1301 55.66 39.7401 51.66C40.3401 50 39.8701 47.93 39.9101 46.06H39.9401Z" fill="#EB7C77"/>
<path d="M-1.40011 538.6C5.59989 538.33 12.6699 539.34 19.5999 537.51C22.4299 536.77 25.0199 537.77 27.5999 539.38C37.1099 545.38 47.0399 550.81 56.2499 557.25C62.5499 561.65 68.6599 562.19 75.9399 560.91C96.6899 557.23 117.54 554.2 138.32 550.77C140.68 550.38 142.56 550.21 143.62 552.64C144.9 555.64 147.71 558.15 147.17 561.55C146.86 563.44 144.36 562.55 142.83 562.66C135.4 563.3 127.83 561.39 120.5 563.78C81.4399 563.86 42.3899 563.88 3.32989 564.09C-0.670107 564.09 -2.28011 562.77 -1.84011 558.85C-1.09011 552.11 -3.28011 545.31 -1.40011 538.6Z" fill="#D15970"/>
<path d="M32.94 -0.459996C31.29 2.89 29.38 6.14 28.07 9.61C25.92 15.36 22.69 18.4 16.07 16.5C9.44996 14.6 8.32996 19.37 7.73996 24.27C5.26996 44.68 2.83996 65.09 0.329962 85.48C0.0118653 87.0631 -0.432899 88.6181 -1.00004 90.13C-1.00004 61.72 -1.00004 33.31 -1.16004 4.9C-1.19004 0.440004 0.639962 -0.739996 4.72996 -0.649996C14.13 -0.419996 23.53 -0.499996 32.94 -0.459996Z" fill="#FED58D"/>
<path d="M345.13 557.15C344.67 559.37 344.2 561.6 343.74 563.82H332.39C333.8 557.4 335.12 550.94 339.57 545.71C342.64 548.91 343.44 553.25 345.13 557.15Z" fill="#6F4E9B"/>
<path d="M535.92 514.78L542.92 506.18C546.03 511.03 546.7 516.57 547.36 522.1C545.544 526.106 543.134 529.814 540.21 533.1C537.408 527.398 535.94 521.133 535.92 514.78Z" fill="#654393"/>
<path d="M482.26 80.54C482.83 80.13 483.38 79.69 483.97 79.33C490.6 75.33 496.25 75.68 500.35 82.98C502.3 88.41 503.93 93.98 506.29 99.23C508.65 104.48 506.42 106.15 501.56 106.66C499.29 107.032 497.045 107.546 494.84 108.2L492.04 107.88C493.29 97.16 492.21 87.26 482.26 80.54Z" fill="#6F4E9B"/>
<path d="M514.78 125.78C512.98 122.78 508.09 122.58 507.84 118.16C508.063 118.096 508.281 118.012 508.49 117.91C518.98 111.63 518.98 111.63 527.11 122.57C523.33 125.07 518.89 124.83 514.78 125.78Z" fill="#6F4E9B"/>
<path d="M168.67 269.87L164.43 256.24C173.07 253.78 181.9 255.63 190.63 255.13C195.03 254.88 199.44 255.02 203.85 254.98H256.1C270.93 254.98 285.76 254.89 300.59 255.16C305.59 255.25 307.15 253.46 307.06 248.59C306.78 234.25 306.89 219.9 306.85 205.59C306.933 205.164 306.986 204.733 307.01 204.3L357.84 204.16C358.01 204.66 358.17 205.16 358.33 205.64C358.23 219.72 358.19 233.8 358.02 247.88C357.96 253.23 360.24 255.31 365.72 255.19C380.52 254.89 395.32 255.02 410.13 254.98C424.7 254.98 439.28 255.24 453.84 254.98C459.35 254.88 461.26 256.57 461.16 262.2C460.91 277.2 461.16 292.2 461.3 307.27V357.96C461.22 372.96 460.92 387.96 461.16 402.96C461.24 408.47 459.53 410.37 453.92 410.24C439.36 409.9 424.8 410.1 410.23 410.09C410.077 392.69 409.92 375.297 409.76 357.91C409.85 342.91 409.85 327.91 410.08 312.91C410.14 308.7 408.66 307.06 404.36 307.12C389.36 307.34 374.36 307.29 359.3 307.35H306.94C292.12 307.29 277.29 307.35 262.47 307.1C257.59 307.01 255.84 308.61 255.93 313.56C256.21 328.37 256.1 343.18 256.15 357.98L255.85 409.98L203.94 410.14V358.19C203.58 356.12 203.68 353.82 202.79 352.01C196.06 338.22 197.84 324.54 201.92 310.38C205.74 297.09 205.16 298.84 192.75 298.38C188.59 290.38 186.51 281.24 180.01 274.47L168.67 269.87ZM252.86 287.48C247.67 271.57 243.51 268.48 230.66 270.79C223.66 272.06 219.66 278.44 219.8 288.32C219.91 294.18 224.8 294.97 229.07 296.32C233.34 297.67 237.47 297.04 241.69 297.16C245.622 297.513 249.585 297.174 253.4 296.16C256.05 295.35 259.67 295.16 259.62 291.76C259.56 287.92 256 287.56 252.86 287.48ZM355.49 283.39C358.36 282.08 363.74 285.44 364.01 280.49C364.23 276.57 359.23 276.29 355.69 276.13C351.81 275.96 347.55 277.53 347.79 281.13C348.05 285 352.83 282.26 355.49 283.39ZM325.92 262C331.5 262 335.92 262 340.38 262C341.72 262 343.49 262.35 344.05 260.69C344.72 258.69 342.93 257.81 341.63 256.89C336.6 253.34 331.55 254.71 325.92 262ZM225.76 372.1C231.24 372.1 235.67 372.1 240.1 372.1C241.43 372.1 243.22 372.45 243.73 370.77C244.33 368.77 242.6 367.9 241.23 367.06C235.55 363.57 231.07 364.8 225.76 372.1ZM431 301.92C432.94 299.66 438.17 304.32 438.47 299.2C438.66 296.02 434.13 294.6 430.72 294.61C427.06 294.61 422.39 295.91 422.65 299.61C422.91 303.31 427.81 300.68 431 301.92ZM215.27 394.7H223.45C226.02 394.7 228.58 394.7 231.15 394.64C232.31 394.64 233.69 394.53 233.94 393.14C234.19 391.75 233.01 391.19 232.07 390.47C226.38 386.18 222.06 386.93 215.27 394.7Z" fill="#FED58D"/>
<path d="M410.13 255C395.32 255 380.52 254.91 365.72 255.21C360.24 255.33 357.96 253.21 358.02 247.9C358.19 233.82 358.23 219.74 358.33 205.66C373.17 205.66 388 205.79 402.83 205.48C408.26 205.37 410.37 206.96 410.23 212.67C409.89 226.74 410.12 240.86 410.13 255Z" fill="#F29262"/>
<path d="M306.85 205.58C306.85 219.92 306.78 234.27 307.06 248.58C307.15 253.45 305.56 255.24 300.59 255.15C285.76 254.88 270.93 255 256.1 254.97C256.1 240.9 256.3 226.83 256.02 212.77C255.91 207.35 257.51 205.27 263.2 205.4C277.74 205.78 292.3 205.57 306.85 205.58Z" fill="#F29262"/>
<path d="M256.15 358C256.15 343.2 256.21 328.39 255.93 313.58C255.84 308.63 257.59 307.03 262.47 307.12C277.29 307.4 292.12 307.31 306.94 307.37C306.94 324.223 306.94 341.077 306.94 357.93L256.15 358Z" fill="#F29262"/>
<path d="M359.3 307.34C374.3 307.28 389.3 307.34 404.36 307.11C408.66 307.05 410.14 308.69 410.08 312.9C409.85 327.9 409.85 342.9 409.76 357.9C395.41 357.9 381.05 357.7 366.7 358.08C360.7 358.24 359.02 356.08 359.15 350.34C359.48 336 359.28 321.68 359.3 307.34Z" fill="#F29262"/>
<path d="M482.26 80.54C492.21 87.26 493.26 97.16 492.04 107.88C480 102.51 477.69 96.14 482.26 80.54Z" fill="#654393"/>
<path d="M203.9 358.18V410.13H152.98C152.98 393.27 152.98 376.407 152.98 359.54C156.2 358.9 159.72 359.93 162.68 357.81C165.06 359.92 168.02 359.43 170.68 359.06C178.98 357.91 187.31 358.27 195.62 358.06L203.9 358.18Z" fill="#F5A165"/>
<path d="M162.7 357.85C159.7 359.97 156.22 358.94 153 359.58L125.05 358.7C128.31 356.3 134.26 360.7 135.93 354.86C138.3 346.58 142.11 338.6 141.71 329.69C147.02 328.29 150.19 323.64 154.71 321.08C155.71 321.87 155.42 322.92 155.31 323.94C154.55 326.79 153.8 329.65 153.04 332.5L151.75 336.66C146.18 340 146.48 346.61 143.6 351.46C142.47 353.36 140.03 356.39 144.14 357.62C147.2 358.54 151.14 358.79 152.26 354.55C153.53 349.63 156.06 344.98 155.75 339.69C159.21 339.12 161.11 336.59 162.93 333.96C165.28 336.06 164.12 338.76 164 341.17C163.73 346.74 163.16 352.29 162.7 357.85Z" fill="#6F4E9B"/>
<path d="M141.71 329.69C142.11 338.6 138.3 346.58 135.93 354.86C134.26 360.71 128.31 356.3 125.05 358.7C124.692 358.818 124.316 358.872 123.94 358.86C127.22 346.86 130.493 334.83 133.76 322.77C137.56 323.76 139.46 326.92 141.71 329.69Z" fill="#654393"/>
<path d="M203.9 358.18H195.61C190.18 348.62 184.85 339 176.87 331.18C179.87 325.94 178.69 320.18 177.96 314.88C177.302 309.573 176.998 304.228 177.05 298.88L176.93 298.45L192.71 298.37C205.12 298.79 205.71 297.04 201.88 310.37C197.8 324.53 196.02 338.21 202.75 352C203.64 353.81 203.54 356.11 203.9 358.18Z" fill="#EB7C77"/>
<path d="M176.87 331.18C184.87 338.97 190.18 348.59 195.61 358.18C187.3 358.34 178.97 357.98 170.67 359.18C168.04 359.55 165.08 360.04 162.67 357.93C163.13 352.37 163.67 346.82 163.99 341.25C164.11 338.84 165.27 336.14 162.92 334.04C160.24 329.41 156.59 331.28 153.03 332.58C153.79 329.73 154.54 326.87 155.3 324.02L172.68 329.96C173.85 331.1 175.34 331.2 176.87 331.18Z" fill="#D15970"/>
<path d="M172.71 329.88L155.33 323.94C155.44 322.94 155.72 321.87 154.73 321.08C146.78 311.49 146.78 311.49 138.86 317.08C129.92 314.08 128.11 305.08 123.26 298.67C130.47 297.67 136.26 300.1 141.88 304.75C151.26 312.49 161.29 319.42 171.05 326.69C172.1 327.52 173.83 328 172.71 329.88Z" fill="#EB7C77"/>
<path d="M163 295.9C163.3 290.32 161.43 285.04 160.76 279.6C160.54 277.85 159.42 276.07 161.19 274.51L174.19 277.64C174.28 284.7 175.64 291.64 176.99 298.49L177.11 298.92C172.27 298.33 167.14 299.33 163 295.9Z" fill="#654393"/>
<path d="M253.9 65.21C254.53 67.85 255.23 70.41 250.76 69.08C248.786 68.63 246.78 68.3357 244.76 68.2C242.6 60.44 239.3 52.95 239.21 44.71L246.09 38.94C248.55 46.94 251.007 54.9667 253.46 63.02C253.71 63.63 253.95 64.23 254.2 64.83L253.9 65.21Z" fill="#654393"/>
<path d="M239.19 44.71C239.28 52.95 242.58 60.44 244.74 68.2C238.31 67.97 231.94 67.63 231.87 58.75C230.87 51.64 227.76 44.93 227.87 37.6C231.67 40 234.59 43.66 239.19 44.71Z" fill="#6F4E9B"/>
<path d="M239.19 44.71C234.59 43.66 231.67 39.95 227.89 37.6C235.71 27.6 237.42 27.7 246.07 38.94L239.19 44.71Z" fill="#8869AB"/>
<path d="M138.86 317.12C146.78 311.49 146.78 311.49 154.73 321.12C150.19 323.68 147.02 328.33 141.73 329.73C139.48 326.96 137.58 323.8 133.73 322.81C134.21 319.76 137.48 319.29 138.86 317.12Z" fill="#8869AB"/>
<path d="M174.13 277.64L161.13 274.51C163.19 272.25 165.88 271 168.64 269.87L180 274.5L174.13 277.64Z" fill="#8869AB"/>
<path d="M364.51 37.65C360.38 33.92 362.51 31.04 365.94 28.65C373.18 23.65 389.72 23.27 396.79 28.31C399.22 30.04 404.44 32.1 398.97 36.41C387.31 32.15 375.79 31.52 364.51 37.65Z" fill="#EB7C77"/>
<path d="M364.51 37.65C375.79 31.52 387.31 32.15 398.97 36.39C398.85 39.09 396.73 39.83 394.73 40.39C384.31 43.51 374.05 44.43 364.51 37.65Z" fill="#6978AD"/>
<path d="M398.75 58.81C395.95 55.02 397.99 52.67 401.35 51.16C409.64 47.42 418.18 47.67 426.35 51.08C428.98 52.17 433.56 54.53 428.73 58.79C418.75 53.75 408.75 55.24 398.75 58.81Z" fill="#EB7C77"/>
<path d="M398.75 58.81C408.75 55.24 418.75 53.75 428.75 58.81C421.21 65.66 406.64 65.67 398.75 58.81Z" fill="#6978AD"/>
<path d="M157.14 46.11C157.05 48.05 157.6 50.11 155.92 51.73C149.75 48.06 143.59 48.98 137.42 51.73C134.42 45.78 139.59 45.66 142.75 44.86C147.58 43.63 152.38 45.3 157.16 46.14L157.14 46.11Z" fill="#EB7C77"/>
<path d="M137.42 51.72C143.59 48.98 149.75 48.06 155.92 51.72C149.74 57.2 143.6 57.2 137.42 51.72Z" fill="#6978AD"/>
<path d="M39.91 46.06C39.91 47.93 40.34 50.01 39.69 51.65C38.1 55.65 42.29 64.12 31.69 61.65C22.32 59.49 16.21 53.25 18 45.88C18.76 42.69 19.75 39.55 20.64 36.39C22.53 37.54 23.35 39.5 24.24 41.39C26.67 46.39 30.07 48.92 35.83 46.39C37 45.89 38.53 46.15 39.91 46.06Z" fill="#6F4E9B"/>
<path d="M39.9101 46.06C38.5301 46.15 37.0001 45.89 35.8001 46.41C30.0401 48.89 26.6401 46.41 24.2101 41.41C23.3201 39.55 22.5001 37.59 20.6101 36.41C31.6801 30.84 35.6501 32.82 39.9101 46.06Z" fill="#8869AB"/>
<path d="M241.69 297.15C237.47 297.03 233.21 297.63 229.07 296.31C224.93 294.99 219.91 294.18 219.8 288.31C219.62 278.43 223.7 272.05 230.66 270.78C243.51 268.43 247.66 271.56 252.86 287.48C252.73 294.86 246.24 294.89 241.69 297.15ZM227.29 279.51C234.2 284.43 239.06 284.36 245.35 279.22C239.13 276.12 233.4 276.27 227.29 279.51Z" fill="#EB7C77"/>
<path d="M174.13 277.64L180 274.5C186.5 281.27 188.58 290.4 192.74 298.41L176.96 298.49C175.58 291.6 174.22 284.7 174.13 277.64Z" fill="#6F4E9B"/>
<path d="M355.49 283.39C352.83 282.26 348.05 285.02 347.79 281.17C347.55 277.53 351.79 275.96 355.69 276.17C359.23 276.33 364.23 276.61 364.01 280.53C363.74 285.44 358.36 282.08 355.49 283.39Z" fill="#F9BB82"/>
<path d="M325.92 262C331.55 254.7 336.6 253.33 341.63 256.87C342.93 257.79 344.72 258.68 344.05 260.67C343.49 262.33 341.72 261.96 340.38 261.98C335.94 262.05 331.5 262 325.92 262Z" fill="#F9BB82"/>
<path d="M225.76 372.1C231.07 364.8 235.55 363.57 241.23 367.04C242.6 367.88 244.33 368.77 243.73 370.75C243.22 372.43 241.43 372.06 240.1 372.08C235.67 372.14 231.24 372.1 225.76 372.1Z" fill="#F9BB82"/>
<path d="M431 301.92C427.78 300.68 422.91 303.27 422.65 299.63C422.39 295.99 427.06 294.63 430.72 294.63C434.13 294.63 438.66 296.04 438.47 299.22C438.2 304.32 433 299.66 431 301.92Z" fill="#F9BB82"/>
<path d="M215.27 394.7C222.06 386.93 226.38 386.18 232.07 390.47C233.01 391.19 234.17 391.86 233.94 393.14C233.71 394.42 232.31 394.62 231.15 394.64C228.58 394.7 226.02 394.69 223.45 394.7H215.27Z" fill="#F9BB82"/>
<path d="M241.69 297.15C246.24 294.89 252.69 294.86 252.86 287.49C255.99 287.56 259.56 287.92 259.62 291.74C259.67 295.12 256.05 295.33 253.4 296.14C249.585 297.158 245.622 297.499 241.69 297.15Z" fill="#E7AE5D"/>
<path d="M155.77 339.69C156.08 344.98 153.55 349.63 152.28 354.55C151.19 358.79 147.22 358.55 144.16 357.62C140.05 356.39 142.49 353.36 143.62 351.46C146.5 346.61 146.2 340 151.77 336.66L155.77 339.69Z" fill="#654393"/>
<path d="M155.77 339.69L151.77 336.69L153.06 332.53C156.62 331.23 160.27 329.36 162.95 333.99C161.13 336.59 159.23 339.12 155.77 339.69Z" fill="#8869AB"/>
<path d="M227.29 279.51C233.4 276.27 239.13 276.12 245.35 279.22C239.06 284.36 234.2 284.43 227.29 279.51Z" fill="#6978AD"/>
<rect x="50.5" y="410.5" width="50" height="50" stroke="black"/>
<rect x="50.5" y="358.5" width="50" height="52" stroke="black"/>
<rect x="101.5" y="358.5" width="50" height="52" stroke="black"/>
<rect x="152.5" y="358.5" width="50" height="52" stroke="black"/>
<rect x="152.5" y="410.5" width="50" height="50" stroke="black"/>
<rect x="202.5" y="410.5" width="53" height="50" stroke="black"/>
<rect x="256.5" y="410.5" width="49" height="50" stroke="black"/>
<rect x="256.5" y="359.5" width="49" height="50" stroke="black"/>
<rect x="256.5" y="308.5" width="49" height="50" stroke="black"/>
<rect x="306.5" y="308.5" width="52" height="50" stroke="black"/>
<rect x="358.5" y="308.5" width="50" height="50" stroke="black"/>
<rect x="358.5" y="358.5" width="50" height="50" stroke="black"/>
<rect x="358.5" y="408.5" width="50" height="52" stroke="black"/>
<rect x="409.5" y="410.5" width="50" height="50" stroke="black"/>
<rect x="460.5" y="410.5" width="50" height="50" stroke="black"/>
<rect x="460.5" y="359.5" width="50" height="50" stroke="black"/>
<rect x="460.5" y="308.5" width="50" height="50" stroke="black"/>
<rect x="460.5" y="257.5" width="50" height="50" stroke="black"/>
<rect x="460.5" y="206.5" width="50" height="50" stroke="black"/>
<rect x="410.5" y="205.5" width="50" height="50" stroke="black"/>
<rect x="360.5" y="204.5" width="50" height="50" stroke="black"/>
<rect x="359.5" y="155.5" width="50" height="50" stroke="black"/>
<rect x="308.5" y="155.5" width="50" height="50" stroke="black"/>
<rect x="257.5" y="155.5" width="50" height="50" stroke="black"/>
<rect x="256.5" y="205.5" width="50" height="50" stroke="black"/>
<rect x="205.5" y="205.5" width="50" height="50" stroke="black"/>
<rect x="154.5" y="205.5" width="50" height="50" stroke="black"/>
<rect x="153.5" y="154.5" width="51" height="50" stroke="black"/>
<rect x="102.5" y="154.5" width="50" height="50" stroke="black"/>
<rect x="51.5" y="154.5" width="50" height="50" stroke="black"/>
<rect x="51.5" y="204.5" width="50" height="50" stroke="black"/>
</g>
<defs>
<clipPath id="clip0_2_486">
<rect width="560.13" height="563.51" fill="white"/>
</clipPath>
</defs>
</svg>
