<svg width="561" height="564" viewBox="0 0 561 564" fill="none" xmlns="http://www.w3.org/2000/svg">
<g clip-path="url(#clip0_2_397)">
<rect width="560.13" height="563.51" fill="#FED58D"/>
<path d="M279.27 571C184.843 571 90.4201 571.057 -3.99991 571.17C-9.11991 571.17 -9.77991 569.88 -9.76991 565.17C-9.62991 376.323 -9.62991 187.467 -9.76991 -1.39999C-9.76991 -6.51999 -8.47991 -7.17999 -3.76991 -7.16999C185.09 -7.02999 373.947 -7.02999 562.8 -7.16999C567.92 -7.16999 568.58 -5.88999 568.58 -1.16999C568.433 187.677 568.433 376.533 568.58 565.4C568.58 570.52 567.3 571.18 562.58 571.18C468.14 570.993 373.703 570.933 279.27 571ZM567.08 282C567.08 188.78 567.127 95.5567 567.22 2.33001C567.22 -4.02999 565.55 -5.66999 559.22 -5.66999C372.767 -5.48999 186.317 -5.49333 -0.129909 -5.67999C-6.99991 -5.68999 -8.26991 -3.48999 -8.25991 2.80001C-8.11324 189.007 -8.11324 375.217 -8.25991 561.43C-8.25991 567.92 -6.67991 569.85 0.0200911 569.84C186.233 569.66 372.443 569.66 558.65 569.84C565.76 569.84 567.26 567.66 567.24 560.92C567.02 467.947 566.967 374.973 567.08 282Z" fill="#FFF6E8"/>
<path d="M567.08 282C567.08 374.993 567.127 467.977 567.22 560.95C567.22 567.69 565.74 569.88 558.63 569.87C372.423 569.67 186.213 569.67 -2.95639e-05 569.87C-6.70003 569.87 -8.28003 567.95 -8.28003 561.46C-8.09336 375.233 -8.0867 189.013 -8.26003 2.80001C-8.27003 -3.48999 -7.00003 -5.68999 -0.13003 -5.67999C186.317 -5.47999 372.767 -5.47999 559.22 -5.67999C565.55 -5.67999 567.22 -4.06999 567.22 2.32001C567.013 95.5467 566.967 188.773 567.08 282ZM45.3 443.9C46.54 436.3 47.7766 428.7 49.01 421.1L66.15 423.05C71.15 423.3 83.15 414.27 81.8 410.75C79.58 404.85 79.08 398.03 73.88 393.48C68.16 389.48 60.88 391.32 54.88 388.4C54.5 385.26 58.49 380.31 53.37 379.33C47.7 378.23 49.8 384.56 48.27 387.51C42.82 386.82 37.38 385.97 31.91 385.51C28.28 385.2 25.48 386.27 27.37 390.83C27.7 391.64 28.48 391.83 27.49 392.93C22.55 398.2 23.8 405.38 22.05 411.64C21.05 415.16 22.8 416.87 26.56 417.07C31.99 417.37 37.47 417.68 42.5 420.15L39.44 434.32C36.63 430.81 35.44 425.94 30.33 423.01V438.35C26.4 437.54 24.45 433.73 20.33 433.53C21.38 440.68 24.77 446.4 27.85 452.25L16.17 464.25H63.74L48.81 451.53C49.81 447.47 53.24 443.91 51.51 438.67L45.3 443.9ZM161.53 409.76H182.33C182.126 405.808 181.054 401.95 179.19 398.46C176.31 392.58 173.33 385.99 165.9 385.95C158.47 385.91 155.27 392.24 152.62 398.32C142.83 392.14 134.04 398.26 129.4 404.32C128.4 405.61 127 407.07 127.63 408.78C128.4 410.83 130.54 409.96 132.07 409.96C141.89 409.94 151.71 409.83 161.53 409.76ZM384.3 281.93L372.61 288.93V274L364.07 285.37C360.99 281.65 361.37 276.72 357.36 273.77C356.44 278.05 355.6 281.93 354.68 286.2C350.36 284.2 348.68 279.59 344.47 278.09C343.56 282.03 345.78 285.32 345.81 288.87C334.33 291 325.24 296.27 320.96 307.87C315.96 310.65 310.48 308.8 305.25 309.34C304.04 307.83 302.32 307.95 300.66 307.96C284.913 308.02 269.167 308.093 253.42 308.18H201.77C186.05 308.11 170.32 307.9 154.6 308.05C149.97 308.1 148.35 306.64 148.42 301.93C148.67 286.69 148.53 271.44 148.55 256.19L201.77 255.92H253.49H263.66H305.27H351.27L358.27 255.87L410.42 255.92C425.74 255.92 441.06 255.87 456.37 256.11C460.67 256.18 462.28 254.94 462.21 250.45C461.97 236.57 461.97 222.687 462.21 208.8C462.29 204.26 460.54 203.11 456.31 203.17C441 203.38 425.68 203.31 410.36 203.34L410.26 202.93V152.62C429.04 152.62 447.82 152.71 466.59 152.56C471.28 152.56 476.08 153.63 480.66 151.71L506.56 151.18C514.68 151.18 515.65 150.53 512.42 143.34C506.68 130.58 507.22 118.2 511.83 105.45C512.94 102.36 512.92 98.86 513.96 95.73C515.32 91.63 513.73 90.73 509.96 90.82C502.11 90.97 494.25 90.82 486.39 90.82C482.7 78.01 478.88 65.23 475.39 52.36C474.49 49.03 473.22 47.52 469.63 47.68C462.25 48.01 454.85 48 447.46 48.13H444.81C439.81 48.28 433.44 45.04 430.23 50.13C423.83 60.36 417.74 70.9 413.23 82.22C408.5 87.14 410.44 93.48 409.62 99.22L357 99.39H253.47C237.9 99.39 222.32 99.39 206.75 99.22C202.42 99.16 200.14 99.97 200.25 105.07C200.58 120.4 200.48 135.73 200.54 151.07C200.47 166.07 200.19 181.15 200.44 196.18C200.53 201.52 198.87 203.18 193.52 203.11C178.52 202.9 163.46 203.24 148.42 203.36L122.56 203.12C115.73 190.74 105.2 184.93 91.12 185.43C92.57 180.18 94.2 175 94.51 169C89.96 170.82 88.14 175.51 84.25 177.52C82.25 173.38 83.32 168.71 80.15 164.66C78.23 169.05 76.58 172.86 74.63 177.32C72.99 174.83 71.88 173.01 70.63 171.32C69.38 169.63 68.79 167.44 66.25 166.74C64.25 170.49 67.79 176.18 64.64 177.97C61.14 179.97 58.35 173.86 53.53 173.34C54.98 177.44 56.34 181.28 57.78 185.34C53.36 186.58 49.64 182.81 43.95 185.72L54.21 194.46C51.53 197.94 47.13 200.11 45.61 205.51H88.26L96.59 205.93L96.77 256.14C96.77 273.88 96.77 291.62 96.77 309.36C96.77 324.14 96.86 338.93 96.6 353.71C96.52 358.37 98.07 359.96 102.75 359.88C118.01 359.63 133.28 359.74 148.54 359.71C163.54 359.71 178.63 359.88 193.67 359.71C198.36 359.65 200.58 360.71 200.46 366C200.13 379.61 200.19 393.22 200.46 406.83C200.54 411.5 199.01 413.07 194.32 413.01C179.04 412.82 163.75 413.01 148.47 413.01C132.93 413.01 117.39 413.01 101.86 412.81C97.86 412.81 96.39 413.86 96.45 418.03C96.67 431.89 96.67 445.753 96.45 459.62C96.39 463.82 97.99 464.88 101.9 464.82C117.44 464.6 132.98 464.63 148.52 464.57H201.78H253.5C260.66 467.2 268.01 465.44 275.28 465.57L296.64 465.75L298.14 465.83L351.26 465.67C356.96 466.95 359.01 464.76 358.57 458.92C358.04 451.78 358.24 444.59 358.12 437.41C360.12 430.94 355.76 429.15 350.94 427.41C347.55 426.2 343.26 426.29 342.21 421.3C337.88 400.79 332.53 380.49 329.54 359.71L357.03 359.79C357.08 360.24 357.18 360.683 357.33 361.11C357.33 376.42 357.33 391.73 357.14 407.04C357.08 411.33 358.43 412.97 362.87 412.9C378.66 412.65 394.45 412.73 410.24 412.68H463.51C478.29 412.68 493.06 412.68 507.83 412.89C512.46 412.98 514.09 411.5 514.01 406.78C513.75 391.54 513.86 376.28 513.84 361.03C513.84 345.46 513.69 329.89 513.98 314.32C514.08 309.25 512.38 307.68 507.38 307.79C494.447 308.083 481.513 308.083 468.58 307.79C463.58 307.68 461.88 309.24 461.99 314.31C462.29 327.48 461.99 340.66 462.16 353.83C462.22 358.06 460.97 359.83 456.46 359.78C443.05 359.56 429.62 359.53 416.21 359.78C411.37 359.87 410.07 358.01 410.15 353.46C410.37 340.29 410.06 327.1 410.31 313.93C410.4 309.18 408.74 307.68 404.08 307.79C396.2 307.97 388.29 307.57 380.4 307.41C384.92 302.79 390.59 299.19 394.11 292.48L380.71 294.78C381.04 289.94 385.46 286.68 384.28 281.89L384.51 281.77L384.3 281.93ZM345.35 531.66L387.5 531.98C390.64 531.98 392.12 530.98 390.29 527.71C383.89 516.09 367.8 505.6 353.54 518.96C352.403 519.774 351.17 520.446 349.87 520.96C343.13 515.42 333.18 517.27 326.76 526.07C324.23 529.55 324.59 531.88 329.56 531.82C334.83 531.81 340.09 531.73 345.35 531.66ZM469.35 494.66L464.81 481.9C464.04 474.97 458.81 472.31 453.2 470.75C438.691 466.563 423.29 466.597 408.8 470.85C403.5 472.42 397.52 474.47 397.35 481.9C396.35 485.05 395.35 488.2 394.35 491.36C391.76 499.75 393.75 503.73 402.27 506.09C409.57 508.09 417 509.64 424.66 509.31C425.26 509.67 425.85 510.31 426.47 510.31C442.348 511.07 458.263 510.32 474 508.07C477.963 507.366 481.868 506.363 485.68 505.07C487.27 504.59 488.8 503.65 488.95 501.69C489.12 499.54 487.31 498.94 485.87 498.25C480.673 495.891 475.037 494.654 469.33 494.62L469.35 494.66ZM122.51 115.55C122.17 114.94 121.59 114.35 121.51 113.71C119.57 91.55 115.32 69.71 112.29 47.71C104.02 44.39 95.38 47.33 87 46.19C81.34 45.42 79.41 48.4 78.35 53.19C76.22 63 73.57 72.68 71.61 82.51C70.61 87.73 68.98 90.06 63.06 88.32C59.95 87.41 54.69 85.72 53.91 91.72C51.38 111.12 46.3 130.12 44.79 149.67C46.14 152.12 48.53 151.36 50.54 151.36C81.26 151.407 111.98 151.407 142.7 151.36C144.7 151.36 147.09 152.25 148.43 149.73C148.49 122.25 148.553 94.7667 148.62 67.28C148.62 53.75 148.62 53.85 135.29 54.8C131.77 55.05 130.18 56.29 129.85 59.87C129.02 68.87 128.33 77.93 126.85 86.87C125.16 96.38 125.79 106.26 122.51 115.55ZM214.56 50.21H228.15C230.82 50.21 231.4 49.33 230.27 46.71C225.08 34.71 209.91 32.56 201.46 42.65C199.94 44.47 197.56 46.56 198.24 48.74C199.12 51.6 202.37 49.99 204.56 50.16C207.88 50.4 211.23 50.22 214.56 50.21ZM514.26 468.78C518.56 468.78 522.86 468.78 527.16 468.78C531.46 468.78 531.37 467.09 529.57 463.95C523.31 453.06 510.4 451.7 502.02 461.26C500.37 463.14 497.62 465.26 498.95 467.9C499.95 469.84 502.87 468.65 504.95 468.75C508 468.9 511.15 468.8 514.26 468.78ZM228.07 548.53C230.47 546.13 236.07 550.64 236.43 545.67C236.66 542.33 231.78 539.51 227.76 539.67C223.74 539.83 217.99 540.67 218.26 545.26C218.6 550.86 224.57 546.52 228.07 548.53ZM527.78 548.47C530.55 546.25 536.25 550.74 536.98 545.74C537.44 542.52 532.41 539.61 528.44 539.66C524.47 539.71 518.86 541.22 518.83 545.26C518.81 550.5 524.55 546.7 527.78 548.47ZM490.26 297.78C491.444 297.89 492.636 297.89 493.82 297.78C496.11 297.33 499.76 299.37 500.32 295.57C500.79 292.33 497.11 291.98 495.01 290.64C494.611 290.381 494.177 290.182 493.72 290.05C489.35 288.86 485.88 290.54 482.87 293.55C482.06 294.36 480.7 295.55 481.56 296.55C484 299.05 487.34 297.3 490.26 297.78ZM275 74.89C275.706 74.9956 276.424 74.9956 277.13 74.89C279.54 74.12 283.99 76.81 284.07 72.89C284.13 69.71 280.41 67.64 276.58 67.79C275.153 67.7114 273.723 67.7381 272.3 67.87C269.3 68.43 265.3 68.98 265.61 72.79C265.92 76.6 269.83 74.45 272.15 74.93C273.099 75.0119 274.054 74.9985 275 74.89ZM66.16 499.12C76.25 499.12 76.79 498.84 75.67 496.74C73.19 492.13 68.67 491.66 63.94 491.96C63.7023 491.965 63.4651 491.985 63.23 492.02C60.23 492.67 57.23 494.61 57.4 497.34C57.59 500.53 61.23 498.63 63.32 499.09C64.2632 499.195 65.2147 499.205 66.16 499.12ZM523.44 210.12C524.154 210.2 524.876 210.2 525.59 210.12C528.13 209.5 532.59 211.78 532.85 208.28C533.11 204.78 528.7 203.64 525.31 203.01C524.835 202.96 524.355 202.96 523.88 203.01C519.88 203.13 514.88 204.31 514.88 208.27C514.88 212.03 519.97 209.43 522.69 210.17C522.943 210.179 523.196 210.148 523.44 210.08V210.12ZM291.8 502C292.515 502.07 293.235 502.07 293.95 502C296.54 501.44 301.22 503.5 301.34 500.3C301.47 496.5 296.9 495.3 293.19 494.87C292.239 494.736 291.272 494.763 290.33 494.95C287.25 495.68 283.09 496.85 283.33 499.95C283.6 503.85 287.96 501.2 290.4 501.95C290.862 502.034 291.333 502.051 291.8 502ZM34.7 526.44C43.98 526.44 44.37 526.29 43.62 524.31C41.74 519.37 37.32 519.17 32.92 519.31C31.9738 519.269 31.0295 519.429 30.15 519.78C28.03 520.89 25.35 522.44 25.68 524.78C26.07 527.58 29.2 526.13 31.14 526.42C32.3246 526.512 33.5144 526.518 34.7 526.44ZM37.26 51.91C37.9749 51.9802 38.695 51.9802 39.41 51.91C42.01 51.36 46.69 53.4 46.81 50.2C46.95 46.38 42.37 45.2 38.66 44.78C37.7092 44.6411 36.7415 44.6682 35.8 44.86C32.73 45.6 28.56 46.75 28.8 49.86C29.06 53.77 33.43 51.1 35.86 51.86C36.3218 51.9439 36.7933 51.9608 37.26 51.91ZM488.45 194.27C490.87 193.05 496.81 196.47 496.63 192.08C496.45 187.69 490.3 187.08 486.01 187.27C482.9 187.41 478.8 189 478.89 192.1C479 196.29 483.4 193.4 485.76 194.23C486.651 194.367 487.556 194.38 488.45 194.27ZM59.94 24.57C65.67 24.57 70.62 24.57 75.56 24.57C76.69 24.57 78.05 24.78 78.62 23.4C79.19 22.02 78.12 21.23 77.33 20.4C72.46 15.27 64 16.82 59.94 24.57ZM59.27 540.83C60.4484 540.939 61.6351 540.922 62.81 540.78C64.66 540.36 67.73 542.26 68.16 539.27C68.52 536.75 65.97 535.27 63.65 534.44C62.5531 534.023 61.4007 533.77 60.23 533.69C55.96 533.49 50.66 534.58 50.51 538.69C50.36 542.8 55.74 540.04 58.56 540.84C58.7961 540.867 59.0347 540.863 59.27 540.83ZM527.27 517.83C522.27 510.15 515.65 508.59 510.55 513.35C509.73 514.11 508.66 515.35 508.75 516.21C508.95 518.04 510.75 517.8 512.17 517.81C517 517.83 521.92 517.81 527.24 517.81L527.27 517.83ZM524.87 33.22C518.87 25.69 513.65 24.28 508.47 28.08C507.19 29.02 505.39 29.95 506 31.93C506.53 33.67 508.35 33.18 509.68 33.19C514.39 33.26 519.1 33.22 524.87 33.22ZM178.06 291.66C170.95 282.82 165.66 282.92 159.62 291.66H178.06ZM357.06 53.36C358.418 53.4686 359.782 53.4686 361.14 53.36C362.98 53.03 366.14 54.57 366.14 51.36C366.2 49.14 363.79 47.93 361.46 47.69C360.266 47.5866 359.068 47.5532 357.87 47.59C354.31 47.59 349.18 47.15 349.41 51.65C349.65 55 354.79 52.53 357.08 53.36H357.06Z" fill="#FED58D"/>
<path d="M253.35 204.32C253.39 197.653 253.433 190.96 253.48 184.24C257.78 184.24 262.07 184.14 266.36 184.24C268.83 184.24 270.26 183.44 271.11 180.96C274.51 171.07 278.74 161.45 281.11 151.19L305.27 151.06L307.11 151.28L306.87 152.16C311.934 170.427 318.157 188.354 325.5 205.83C320.478 213.311 313.521 219.29 305.37 223.13C299.14 223.13 292.89 223.37 286.69 222.95C281.45 222.6 278.31 224.28 276.18 229.29C272.35 238.29 267.89 247.05 263.7 255.91H253.54L253.35 204.32Z" fill="#EB7C76"/>
<path d="M112.32 47.7C115.32 69.7 119.6 91.55 121.54 113.7C121.54 114.34 122.17 114.93 122.54 115.54C122.64 117.41 122.27 119.44 123.62 120.98C131.98 130.49 139.03 141.13 148.46 149.72C147.12 152.24 144.71 151.34 142.73 151.35C112.01 151.397 81.2901 151.397 50.5701 151.35C48.5701 151.35 46.1701 152.11 44.8201 149.66C49.1371 146.7 53.2344 143.431 57.0801 139.88C66.5701 131.43 75.3401 121.58 89.8801 122.19C93.8801 122.35 95.6001 119.67 95.4201 115.51C94.7201 98.82 96.5101 82.08 94.3101 65.42C94.1101 63.89 94.0901 62.24 95.3101 61.5C101.67 57.72 105.19 50.48 112.32 47.7Z" fill="#D15870"/>
<path d="M506.55 151.13L480.66 151.66L410.19 151.27L410.05 151.15L410.23 123.82C412.5 120.25 414.54 116.5 417.08 113.15C422.27 106.32 424.7 97.56 431.85 92.15C433.5 94.47 435.01 96.89 436.85 99.07C439.56 102.32 440.54 107.83 444.67 108.89C457.67 112.22 469.31 118.89 482.16 122.43C483.24 124.02 484.93 123.84 486.53 123.89C486.98 123.89 487.43 123.89 487.88 123.89C494.08 132.97 500.303 142.05 506.55 151.13Z" fill="#D15870"/>
<path d="M358.07 437.39C358.19 444.57 357.99 451.76 358.52 458.9C358.96 464.74 356.91 466.9 351.21 465.65C350.88 464.78 350.79 463.65 350.21 463.09C332.91 448.99 315.45 435.15 292.4 431.57C292.197 423.478 291.324 415.418 289.79 407.47C289.14 403.85 289.64 401.6 293.96 400.94C297.18 400.45 300.24 399.27 301.78 395.52C306.66 383.59 311.87 371.79 316.95 359.94H323.84C328.773 382.853 333.703 405.763 338.63 428.67C340.89 439.2 343.02 440.51 353.93 438.08C355.26 437.77 356.67 437.62 358.07 437.39Z" fill="#E3616E"/>
<path d="M112.32 47.7C105.19 50.48 101.67 57.7 95.3201 61.51C94.0701 62.25 94.0901 63.9 94.3201 65.43C96.5201 82.09 94.7301 98.83 95.4301 115.52C95.6101 119.68 93.8701 122.36 89.8901 122.2C75.3501 121.59 66.5801 131.44 57.0901 139.89C53.2444 143.441 49.1471 146.71 44.8301 149.67C46.3401 130.12 51.4201 111.12 53.9501 91.72C54.7301 85.72 59.9501 87.41 63.1001 88.32C69.0201 90.06 70.6101 87.73 71.6501 82.51C73.6501 72.68 76.2601 62.99 78.4201 53.2C79.4801 48.39 81.4201 45.41 87.0701 46.2C95.4101 47.32 104.05 44.38 112.32 47.7Z" fill="#EB7C76"/>
<path d="M409.83 203.33L409.889 255.369L358.728 255.32C358.543 247.905 358.926 240.494 359.025 233.03C359.125 225.442 358.926 217.833 357.512 210.25L357.903 203.33H409.83Z" fill="#F5A168" stroke="black"/>
<path d="M206.743 99.65C222.15 99.8479 237.57 99.7816 252.969 99.8189C252.949 116.751 252.926 133.644 252.9 150.5H201.039C200.982 135.331 201.037 120.16 200.75 104.991V104.989L200.746 104.536C200.764 102.337 201.289 101.182 202.137 100.539C202.965 99.9106 204.207 99.6781 205.96 99.65H206.743Z" fill="#F29262" stroke="black"/>
<path d="M409.211 99.701C409.406 107.737 409.579 115.78 409.73 123.829C409.671 132.772 409.615 141.712 409.563 150.649L357.559 150.58C357.559 133.68 357.542 116.782 357.51 99.8885L409.211 99.701Z" fill="#F5A165" stroke="black"/>
<path d="M403.83 361.48C406.346 361.431 407.802 361.853 408.646 362.74C409.496 363.633 409.854 365.129 409.81 367.581V367.581C409.553 382.421 409.695 397.333 409.689 412.201C394.069 412.248 378.44 412.203 362.813 412.42H362.812C360.629 412.455 359.366 412.06 358.631 411.282C357.889 410.495 357.56 409.188 357.59 407.067C357.808 391.919 357.742 376.769 357.78 361.63C373.117 361.633 388.45 361.767 403.829 361.48H403.83Z" fill="#F29262" stroke="black"/>
<path d="M508.742 361.504C511.258 361.455 512.713 361.877 513.558 362.764C514.408 363.657 514.766 365.153 514.722 367.604V367.605C514.464 382.445 514.607 397.357 514.601 412.225C498.981 412.272 483.352 412.227 467.725 412.444H467.724C465.54 412.479 464.278 412.084 463.543 411.306C462.8 410.519 462.472 409.212 462.502 407.091C462.72 391.943 462.654 376.793 462.691 361.654C478.029 361.657 493.362 361.791 508.741 361.504H508.742Z" fill="#F29262" stroke="black"/>
<path d="M409.707 151.649L409.75 152.593V202.38H357.946C357.821 185.443 357.697 168.51 357.573 151.58L409.707 151.649Z" fill="#F29262" stroke="black"/>
<path d="M456.287 203.62C458.39 203.59 459.716 203.872 460.522 204.585C461.31 205.281 461.73 206.509 461.681 208.739L461.68 208.742C461.47 220.892 461.444 233.044 461.602 245.199L461.68 250.409C461.714 252.621 461.326 253.863 460.56 254.573C459.782 255.293 458.483 255.595 456.349 255.56H456.348C441.17 255.323 426.037 255.407 410.889 255.37L410.83 203.789C425.983 203.789 441.139 203.788 456.285 203.62H456.287Z" fill="#EA5267" stroke="black"/>
<path d="M148.42 413C148.42 430.187 148.42 447.373 148.42 464.56C132.89 464.62 117.35 464.56 101.81 464.81C97.9001 464.87 96.3001 463.81 96.3601 459.61C96.5801 445.75 96.5801 431.887 96.3601 418.02C96.3001 413.85 97.8101 412.75 101.77 412.8C117.34 413 132.88 412.93 148.42 413Z" fill="#6EB12E"/>
<path d="M304.76 99.85V150.512L281.087 150.64H253.9C253.9 133.72 253.924 116.79 253.969 99.85H304.76Z" fill="#F5A165" stroke="black"/>
<path d="M252.36 150.5V201.162L228.688 201.29H201.5C201.5 184.37 201.524 167.44 201.569 150.5H252.36Z" fill="#F5A165" stroke="black"/>
<path d="M201.5 203.5V256.366L176.83 256.5H148.5C148.5 238.843 148.525 221.177 148.572 203.5H201.5Z" fill="#F5A165" stroke="black"/>
<path d="M149.5 256.5V309.366L124.83 309.5H96.5C96.5003 291.843 96.5249 274.177 96.5723 256.5H149.5Z" fill="#F5A165" stroke="black"/>
<path d="M201.5 308.5V361.366L176.83 361.5H148.5C148.5 343.843 148.525 326.177 148.572 308.5H201.5Z" fill="#F5A165" stroke="black"/>
<path d="M253.5 360.5V413.366L228.83 413.5H200.5C200.5 395.843 200.525 378.177 200.572 360.5H253.5Z" fill="#F5A165" stroke="black"/>
<path d="M200.5 413.5V464.371L176.762 464.5H149.5C149.5 447.51 149.524 430.51 149.569 413.5H200.5Z" fill="#F5A165" stroke="black"/>
<path d="M356.5 99.84C356.5 116.74 356.517 133.637 356.549 150.531L307.073 150.689L305.73 150.549V99.84H356.5Z" fill="#F29262" stroke="black"/>
<path d="M147.92 203.854V255.5L97.2681 255.569C97.2093 239.174 97.1534 222.77 97.1011 206.356C103.708 206.3 110.338 206.296 116.964 206.15C117.479 206.15 118.012 206.206 118.616 206.242C119.197 206.276 119.821 206.288 120.41 206.175C121.008 206.06 121.589 205.812 122.067 205.318C122.469 204.901 122.767 204.338 122.958 203.604L147.92 203.854Z" fill="#F29262" stroke="black"/>
<path d="M300.661 308.429C302.342 308.429 303.729 308.346 304.75 309.497C304.809 326.068 304.865 342.646 304.918 359.23H253.93C253.93 342.375 253.926 325.514 253.92 308.647C269.507 308.568 285.087 308.495 300.661 308.429Z" fill="#F5A165" stroke="black"/>
<path d="M406.967 308.502C408.745 308.502 410.229 308.411 411.32 309.656C411.383 327.264 411.442 344.879 411.498 362.5H357.511C357.511 344.585 357.507 326.662 357.5 308.733C373.996 308.649 390.486 308.573 406.968 308.503L406.967 308.502Z" fill="#F5A165" stroke="black"/>
<path d="M510.547 308.575C512.325 308.575 513.809 308.484 514.9 309.729C514.963 327.337 515.022 344.951 515.078 362.573H461.091C461.091 344.657 461.087 326.735 461.08 308.806C477.576 308.722 494.066 308.646 510.548 308.576L510.547 308.575Z" fill="#F5A165" stroke="black"/>
<path d="M457.149 360.502C458.863 360.502 460.283 360.416 461.327 361.603C461.387 378.562 461.444 395.528 461.498 412.5H409.51C409.51 395.248 409.507 377.99 409.5 360.725C425.39 360.644 441.274 360.57 457.15 360.503L457.149 360.502Z" fill="#F5A165" stroke="black"/>
<path d="M200.818 203.739C201.752 202.841 203.313 202.462 205.864 202.503C221.357 202.772 236.855 202.601 252.345 202.598L252.499 255.5H199.661C199.664 239.933 199.803 224.361 199.504 208.792V208.791C199.452 206.163 199.89 204.632 200.818 203.739Z" fill="#F29262" stroke="black"/>
<path d="M356.559 308.336C356.559 325.23 356.533 342.131 356.481 359.038L329.501 358.96H329.492L329.482 358.961L323.79 359.17H316.909L305.917 358.968C305.89 350.715 305.904 342.181 305.917 333.646C305.931 325.116 305.946 316.585 305.921 308.339C311.216 308.338 314.704 308.332 320.986 308.07L356.559 308.336Z" fill="#F29262" stroke="black"/>
<path d="M253.157 308.766C253.157 325.66 253.131 342.561 253.079 359.468L226.1 359.39H226.09L226.08 359.391L220.388 359.6H213.507L202.516 359.398C202.488 351.145 202.502 342.611 202.516 334.076C202.53 325.546 202.544 317.015 202.52 308.769C207.814 308.768 211.303 308.762 217.584 308.5L253.157 308.766Z" fill="#F29262" stroke="black"/>
<path d="M148.157 309.766C148.157 326.66 148.131 343.561 148.079 360.468L121.1 360.39H121.09L121.08 360.391L115.388 360.6H108.507L97.5156 360.398C97.4878 352.145 97.5017 343.611 97.5156 335.076C97.5295 326.546 97.5441 318.015 97.5195 309.769C102.814 309.768 106.303 309.762 112.584 309.5L148.157 309.766Z" fill="#F29262" stroke="black"/>
<path d="M252.157 414.766C252.157 431.66 252.131 448.561 252.079 465.468L225.1 465.39H225.09L225.08 465.391L219.388 465.6H212.507L201.516 465.398C201.488 457.145 201.502 448.611 201.516 440.076C201.53 431.546 201.544 423.015 201.52 414.769C206.814 414.768 210.303 414.762 216.584 414.5L252.157 414.766Z" fill="#F29262" stroke="black"/>
<path d="M305.42 359.73L316.9 359.94C311.82 371.79 306.61 383.59 301.73 395.52C300.19 399.27 297.13 400.45 293.91 400.94C289.59 401.6 289.09 403.85 289.74 407.47C291.274 415.418 292.147 423.478 292.35 431.57C291.79 432.85 291.26 434.13 290.66 435.39C285.82 445.6 278.85 454.72 275.23 465.55C267.96 465.46 260.61 467.22 253.45 464.55V460.55C259.59 445.5 263.45 429.72 267 413.99C269.87 401.09 275.54 393.04 289 391.1C292.22 390.64 295.29 389.4 296.52 385.45C299.22 376.81 302.32 368.28 305.26 359.71L305.42 359.73Z" fill="#EB7C76"/>
<path d="M410.23 123.82C410.063 115.613 409.887 107.407 409.7 99.2C410.51 93.45 408.57 87.11 413.3 82.2C425.99 72.84 435.3 60.34 444.84 48.08H447.49C449.37 64.73 454.09 80.74 458.41 98.08C463.73 85.95 472.74 89.08 481.41 90.66C483.071 90.8343 484.743 90.8677 486.41 90.76C485.88 101.84 488.96 112.76 487.82 123.86C487.37 123.86 486.92 123.86 486.47 123.86C485.39 122.24 483.71 122.41 482.1 122.4C481.66 121.32 481.54 119.83 480.74 119.23C468.53 110.15 456.33 101.04 443.89 92.23C440.24 89.65 435.89 89.77 431.82 92.09C424.67 97.53 422.24 106.29 417.05 113.09C414.54 116.5 412.5 120.25 410.23 123.82Z" fill="#E3616E"/>
<path d="M305.33 223.11C313.481 219.27 320.438 213.291 325.46 205.81C326.15 205.64 327.09 205.71 327.46 205.28C331.13 201.39 335.22 200.15 339.01 204.57C342.01 208.06 347.92 208.88 348.32 214.72C349.26 228.44 350.22 242.157 351.2 255.87H305.2C304.89 253.32 304.2 250.77 304.32 248.24C304.69 239.87 300.47 231.31 305.33 223.11Z" fill="#D15870"/>
<path d="M148.43 149.73C139 141.14 132 130.5 123.59 121C122.24 119.46 122.59 117.43 122.51 115.56C125.79 106.27 125.16 96.39 126.8 86.84C128.33 77.94 129.02 68.84 129.8 59.84C130.13 56.26 131.72 55.02 135.24 54.77C148.58 53.82 148.6 53.77 148.57 67.25C148.55 94.7567 148.503 122.25 148.43 149.73Z" fill="#EB7C76"/>
<path d="M351.24 255.87C350.28 242.163 349.32 228.447 348.36 214.72C347.96 208.88 342.06 208.06 339.05 204.57C335.26 200.15 331.17 201.39 327.5 205.28C327.09 205.71 326.15 205.64 325.5 205.81C318.157 188.334 311.934 170.408 306.87 152.14C315.28 156.06 323.58 160.28 332.16 163.79C337.11 165.79 339.41 169.15 341.11 173.96C345.53 186.44 347.92 199.86 357.05 210.28C359.88 225.39 357.85 240.64 358.28 255.82L351.24 255.87Z" fill="#E3616E"/>
<path d="M275.23 465.55C278.85 454.72 285.82 445.6 290.66 435.39C291.26 434.13 291.79 432.85 292.35 431.57C315.35 435.15 332.86 448.99 350.16 463.09C350.79 463.6 350.88 464.78 351.16 465.65L298.04 465.81C297.57 465.2 297.04 465.15 296.54 465.73L275.23 465.55Z" fill="#D15870"/>
<path d="M424.68 509.27C417.02 509.6 409.59 508.08 402.29 506.05C393.77 503.69 391.78 499.71 394.37 491.32C395.37 488.16 396.37 485.01 397.37 481.86C414.75 496.01 447.01 496.01 464.83 481.86C466.337 486.113 467.85 490.37 469.37 494.63C471.45 501.47 466.22 503.23 461.74 505.05C449.79 509.88 437.17 509.13 424.68 509.27Z" fill="#EB7C76"/>
<path d="M54.91 388.4C60.91 391.32 68.16 389.5 73.91 393.48C72.69 395.41 68.99 396.23 73.53 399.62C79.53 404.07 78.86 412.85 73.99 416.19C70.84 418.34 67.8 415.26 64.43 416.36C68.49 420.15 68.49 420.15 66.18 423.05L49 421.1C47.06 419.32 44.73 420.1 42.53 420.1C37.53 417.63 32.01 417.32 26.58 417.02C22.82 416.82 21.09 415.11 22.07 411.59C23.82 405.33 22.57 398.15 27.51 392.88C28.51 391.82 27.72 391.59 27.39 390.78C25.5 386.22 28.3 385.15 31.93 385.46C37.4 385.93 42.84 386.78 48.29 387.46C50.33 389 52.69 388.23 54.91 388.4ZM50.74 399.88C48.74 400.7 47.94 402.4 47.74 404.4C47.52 407.09 47.41 409.96 50.61 410.99C54 412.07 56.78 410.99 58.22 407.53C59.54 404.35 60.56 400.78 57.66 398.22C55.19 396.03 52.31 396.47 50.66 399.91L50.74 399.88ZM45.89 395.58C40.56 393.92 37.99 395.64 36.37 398.7C34.6 402.06 32.94 405.7 35.48 409.47C36.87 411.55 39.02 411.74 41.23 411.42C42.99 411.17 44.45 410.37 44.82 408.42C45.15 406.72 45.31 404.9 43.12 404.35C40.93 403.8 39.82 404.35 41 406.91C41.58 408.16 40.72 408.58 39.58 408.43C39.0978 408.392 38.6457 408.181 38.3074 407.835C37.9691 407.489 37.7675 407.033 37.74 406.55C37.11 401.26 39.56 397.72 45.89 395.58Z" fill="#C57176"/>
<path d="M486.39 90.76C484.723 90.8677 483.051 90.8343 481.39 90.66C472.73 89.05 463.72 85.95 458.39 98.08C454.07 80.73 449.39 64.72 447.47 48.08C454.86 47.95 462.26 47.96 469.64 47.63C473.23 47.47 474.5 48.98 475.4 52.31C478.88 65.17 482.7 78 486.39 90.76Z" fill="#EB7C76"/>
<path d="M487.82 123.87C488.96 112.78 485.88 101.87 486.41 90.78C494.27 90.78 502.13 90.92 509.98 90.78C513.72 90.71 515.31 91.59 513.98 95.69C512.98 98.82 512.98 102.32 511.85 105.41C507.24 118.16 506.7 130.54 512.44 143.3C515.67 150.49 514.7 151.1 506.58 151.14C500.313 142.053 494.06 132.963 487.82 123.87Z" fill="#EB7C76"/>
<path d="M305.33 223.11C300.47 231.31 304.69 239.87 304.39 248.25C304.29 250.78 304.96 253.33 305.27 255.88H263.66C267.85 247.02 272.31 238.27 276.14 229.26C278.27 224.26 281.41 222.57 286.65 222.92C292.85 223.35 299.1 223.08 305.33 223.11Z" fill="#E3616E"/>
<path d="M357.06 308.11L321 307.84C325.27 296.28 334.36 291.01 345.84 288.84C360.96 288.19 371.84 294.76 378.58 308.2C371.36 311.54 364.23 306.87 357.06 308.11Z" fill="#EB7C76"/>
<path d="M54.1999 194.42L43.9299 185.67C49.6199 182.76 53.3399 186.53 57.7599 185.29C56.3199 181.29 54.9599 177.4 53.5099 173.29C58.3299 173.81 61.1199 179.91 64.6199 177.92C67.7699 176.13 64.2799 170.44 66.2299 166.69C68.7699 167.39 69.3899 169.63 70.6099 171.27C71.8299 172.91 72.9899 174.79 74.6099 177.27C76.6099 172.81 78.2099 169 80.1299 164.61C83.2999 168.66 82.2399 173.33 84.2299 177.47C88.1199 175.47 89.9399 170.77 94.4899 168.95C94.1799 174.95 92.5499 180.16 91.0999 185.41C85.4599 187.24 79.2599 187.82 75.0199 192.71C67.9199 191.14 61.0499 192.65 54.1999 194.42Z" fill="#8389C1"/>
<path d="M75 192.73C79.24 187.84 85.44 187.26 91.08 185.43C105.16 184.93 115.69 190.74 122.52 203.12C121.86 206.61 119.06 205.62 116.92 205.67C110.13 205.82 103.34 205.82 96.56 205.88L88.22 205.46C86.68 198.28 80.43 196 75 192.73Z" fill="#BE6870"/>
<path d="M349.87 521C351.17 520.485 352.403 519.814 353.54 519C367.8 505.64 383.89 516.13 390.29 527.75C392.12 531.07 390.64 532.05 387.5 532.02L345.35 531.7C345.33 527.46 349.62 525.08 349.87 521Z" fill="#EB7C76"/>
<path d="M378.55 308.24C371.77 294.8 360.93 288.24 345.81 288.88C345.81 285.33 343.56 282.04 344.47 278.1C348.68 279.6 350.36 284.22 354.68 286.21C355.6 281.94 356.44 278.06 357.36 273.78C361.36 276.78 360.99 281.66 364.07 285.38L372.61 274V288.92L384.3 281.92H384.23C385.41 286.71 380.99 289.97 380.66 294.81L394.06 292.51C390.54 299.22 384.87 302.82 380.35 307.44L378.55 308.24Z" fill="#8389C1"/>
<path d="M464.79 481.86C447 496 414.71 496 397.33 481.86C397.5 474.43 403.48 472.38 408.78 470.81C423.27 466.557 438.671 466.523 453.18 470.71C458.77 472.27 464 474.93 464.79 481.86ZM453.4 482.05C456.7 478.67 455.86 475.29 450.33 473.48C437.38 469.24 424.33 468.93 411.46 474.14C407.66 475.67 405.46 478.2 409.18 482.14C417.51 489.88 445.07 490.26 453.23 482.73C453.38 482.61 453.35 482.29 453.4 482.05Z" fill="#F5A168"/>
<path d="M323.79 359.94L329.5 359.73C332.5 380.51 337.83 400.81 342.16 421.32C343.16 426.32 347.5 426.22 350.89 427.43C355.71 429.13 360.04 430.92 358.07 437.43C356.67 437.66 355.26 437.81 353.88 438.12C342.97 440.55 340.88 439.24 338.58 428.71C333.66 405.77 328.73 382.847 323.79 359.94Z" fill="#EB7C76"/>
<path d="M152.62 398.32C155.27 392.24 158.51 385.92 165.9 385.95C173.29 385.98 176.31 392.58 179.19 398.46C181.054 401.95 182.126 405.808 182.33 409.76H161.53C159.938 405.049 156.798 401.017 152.62 398.32Z" fill="#BE6870"/>
<path d="M75.0001 192.73C80.3901 195.95 86.6401 198.28 88.2201 205.46H45.5901C47.1101 200.06 51.5101 197.89 54.1901 194.41C61.0501 192.65 67.9201 191.14 75.0001 192.73Z" fill="#EB7C76"/>
<path d="M48.8099 451.53L63.7399 464.21H16.1699L27.8499 452.21C30.6499 451.38 33.2799 446.53 36.3399 451.85C38.3399 454.34 40.0099 458.67 43.6799 453.4C44.3226 452.7 45.1241 452.165 46.0169 451.839C46.9097 451.514 47.8676 451.408 48.8099 451.53Z" fill="#EB7C76"/>
<path d="M214.56 50.21C211.23 50.21 207.88 50.4 204.56 50.16C202.37 49.99 199.12 51.6 198.24 48.74C197.56 46.56 199.94 44.47 201.46 42.65C209.91 32.56 225.08 34.76 230.27 46.71C231.4 49.33 230.82 50.22 228.15 50.21H214.56Z" fill="#C57176"/>
<path d="M152.62 398.32C156.797 401.017 159.938 405.049 161.53 409.76C151.71 409.83 141.89 409.94 132.07 409.92C130.54 409.92 128.4 410.79 127.63 408.74C127 407.03 128.41 405.57 129.4 404.28C134 398.26 142.83 392.14 152.62 398.32Z" fill="#EB7C76"/>
<path d="M514.26 468.79C511.15 468.79 508.04 468.9 504.94 468.79C502.87 468.69 499.94 469.88 498.94 467.94C497.61 465.25 500.36 463.18 502.01 461.3C510.39 451.74 523.3 453.1 529.56 463.99C531.36 467.13 531.37 468.87 527.15 468.82C522.93 468.77 518.56 468.78 514.26 468.79Z" fill="#BE6870"/>
<path d="M424.68 509.27C437.17 509.13 449.79 509.88 461.68 505.05C466.16 503.23 471.39 501.47 469.31 494.63C475.025 494.642 480.673 495.865 485.88 498.22C487.32 498.91 489.13 499.51 488.96 501.66C488.81 503.66 487.28 504.56 485.69 505.04C481.878 506.333 477.973 507.336 474.01 508.04C458.27 510.287 442.351 511.034 426.47 510.27C425.87 510.27 425.28 509.63 424.68 509.27Z" fill="#F5A165"/>
<path d="M444.84 48.07C435.29 60.33 426 72.83 413.3 82.19C417.77 70.87 423.86 60.33 430.3 50.1C433.47 45 439.85 48.22 444.84 48.07Z" fill="#EB7C76"/>
<path d="M36.3401 451.87C33.2801 446.55 30.6501 451.4 27.8501 452.23C24.7701 446.39 21.3801 440.67 20.3301 433.52C24.4801 433.72 26.4301 437.52 30.3301 438.34V423C35.4501 425.93 36.6301 430.8 39.4401 434.3C39.3501 440.32 39.0001 446.31 36.3401 451.87Z" fill="#8389C1"/>
<path d="M349.87 521C349.62 525.08 345.33 527.46 345.35 531.66C340.09 531.73 334.83 531.81 329.56 531.86C324.56 531.92 324.23 529.59 326.76 526.11C333.18 517.31 343.13 515.46 349.87 521Z" fill="#BE6870"/>
<path d="M36.3401 451.87C39.0401 446.31 39.3401 440.32 39.4701 434.3C40.4701 429.59 41.4701 424.86 42.5401 420.14C44.7401 420.14 47.0701 419.32 49.0101 421.14C47.7834 428.74 46.5468 436.337 45.3001 443.93C43.6905 446.829 43.119 450.192 43.6801 453.46C40.0001 458.69 38.3701 454.36 36.3401 451.87Z" fill="#A35868"/>
<path d="M66.1499 423.05C68.4599 420.15 68.4599 420.15 64.3999 416.36C67.7699 415.26 70.8099 418.36 73.9599 416.19C78.8299 412.85 79.4499 404.07 73.4999 399.62C68.9599 396.23 72.6599 395.41 73.8799 393.48C79.0799 398.03 79.5799 404.85 81.7999 410.75C83.1199 414.27 71.1099 423.3 66.1499 423.05Z" fill="#A35868"/>
<path d="M228.07 548.53C224.57 546.53 218.6 550.86 218.26 545.25C217.99 540.67 223.83 539.81 227.76 539.66C231.69 539.51 236.66 542.33 236.43 545.66C236.07 550.64 230.47 546.13 228.07 548.53Z" fill="#F9BB82"/>
<path d="M527.78 548.47C524.55 546.7 518.78 550.47 518.83 545.26C518.83 541.26 524.45 539.72 528.44 539.66C532.43 539.6 537.44 542.52 536.98 545.74C536.25 550.74 530.55 546.25 527.78 548.47Z" fill="#F9BB82"/>
<path d="M490.26 297.78C487.34 297.3 483.98 299.05 481.56 296.47C480.7 295.55 482.06 294.32 482.87 293.47C485.87 290.47 489.35 288.78 493.72 289.97C494.177 290.102 494.611 290.301 495.01 290.56C497.11 291.9 500.79 292.25 500.32 295.49C499.76 299.29 496.11 297.25 493.82 297.7C492.638 297.837 491.447 297.864 490.26 297.78Z" fill="#F9BB82"/>
<path d="M275 74.89C274.052 74.9852 273.098 74.9852 272.15 74.89C269.83 74.41 265.91 76.43 265.61 72.75C265.31 69.07 269.28 68.39 272.3 67.83C273.723 67.6981 275.153 67.6714 276.58 67.75C280.41 67.6 284.13 69.67 284.07 72.85C283.99 76.85 279.54 74.12 277.13 74.85C276.426 74.9689 275.708 74.9824 275 74.89Z" fill="#F9BB82"/>
<path d="M66.16 499.12C65.2157 499.215 64.2643 499.215 63.32 499.12C61.23 498.66 57.59 500.56 57.4 497.37C57.23 494.64 60.21 492.7 63.23 492.05C63.4651 492.015 63.7023 491.995 63.94 491.99C68.63 491.69 73.19 492.16 75.67 496.77C76.79 498.84 76.25 499.12 66.16 499.12Z" fill="#F9BB82"/>
<path d="M523.44 210.08C523.201 210.115 522.959 210.115 522.72 210.08C520 209.34 514.93 211.94 514.91 208.18C514.91 204.18 519.83 203.04 523.91 202.92C524.385 202.87 524.865 202.87 525.34 202.92C528.73 203.55 533.11 204.74 532.88 208.19C532.65 211.64 528.16 209.41 525.62 210.03C524.897 210.129 524.166 210.146 523.44 210.08Z" fill="#F9BB82"/>
<path d="M291.8 502C291.326 502.07 290.844 502.07 290.37 502C287.93 501.23 283.57 503.88 283.3 500C283.09 496.87 287.25 495.7 290.3 495C291.242 494.813 292.209 494.786 293.16 494.92C296.87 495.35 301.44 496.55 301.31 500.35C301.19 503.55 296.51 501.49 293.92 502.05C293.213 502.102 292.503 502.085 291.8 502Z" fill="#F9BB82"/>
<path d="M34.7001 526.44C33.515 526.525 32.3252 526.525 31.1401 526.44C29.2001 526.15 26.0701 527.6 25.6801 524.8C25.3501 522.44 28.0301 520.89 30.1501 519.8C31.0297 519.449 31.9739 519.289 32.9201 519.33C37.3201 519.22 41.7401 519.42 43.6201 524.33C44.3701 526.29 44.0001 526.44 34.7001 526.44Z" fill="#F9BB82"/>
<path d="M37.26 51.91C36.7859 51.9802 36.3041 51.9802 35.83 51.91C33.4 51.13 29.03 53.8 28.77 49.91C28.56 46.77 32.77 45.62 35.77 44.91C36.7115 44.7182 37.6792 44.6911 38.63 44.83C42.34 45.26 46.92 46.43 46.78 50.25C46.66 53.45 41.98 51.41 39.38 51.96C38.6734 52.0116 37.9634 51.9949 37.26 51.91Z" fill="#F9BB82"/>
<path d="M488.45 194.27C487.558 194.394 486.653 194.394 485.76 194.27C483.4 193.44 479 196.33 478.89 192.14C478.8 189.04 482.89 187.45 486.01 187.31C490.3 187.12 496.45 187.73 496.63 192.12C496.81 196.51 490.87 193.05 488.45 194.27Z" fill="#F9BB82"/>
<path d="M59.9399 24.57C63.9399 16.82 72.4599 15.27 77.3299 20.38C78.1199 21.21 79.1899 22.02 78.6199 23.38C78.0499 24.74 76.6899 24.54 75.5599 24.55C70.6199 24.59 65.6699 24.57 59.9399 24.57Z" fill="#F9BB82"/>
<path d="M59.2699 540.83C59.0342 540.86 58.7956 540.86 58.5599 540.83C55.7399 540.03 50.3599 542.65 50.5099 538.68C50.6599 534.71 55.9599 533.5 60.2299 533.68C61.4006 533.76 62.5531 534.013 63.6499 534.43C65.9699 535.28 68.5199 536.74 68.1599 539.26C67.7299 542.26 64.6599 540.35 62.8099 540.77C61.6354 540.915 60.4487 540.935 59.2699 540.83Z" fill="#F9BB82"/>
<path d="M527.24 517.81C521.92 517.81 517.03 517.81 512.14 517.81C510.76 517.81 508.92 518.04 508.72 516.21C508.63 515.32 509.72 514.11 510.52 513.35C515.62 508.57 522.19 510.13 527.24 517.81Z" fill="#F9BB82"/>
<path d="M524.87 33.22C519.1 33.22 514.39 33.22 509.68 33.22C508.35 33.22 506.53 33.7 506 31.96C505.39 29.96 507.19 29.05 508.47 28.11C513.65 24.28 518.92 25.69 524.87 33.22Z" fill="#F9BB82"/>
<path d="M410.25 152.57L410.19 151.27L480.66 151.66C476.07 153.58 471.27 152.48 466.58 152.51C447.81 152.66 429 152.58 410.25 152.57Z" fill="#F5A168"/>
<path d="M178.06 291.66H159.62C165.66 282.92 171 282.82 178.06 291.66Z" fill="#F9BB82"/>
<path d="M357.08 53.36C354.79 52.53 349.65 55.03 349.48 51.62C349.25 47.12 354.38 47.62 357.94 47.56C359.138 47.5232 360.336 47.5566 361.53 47.66C363.86 47.9 366.27 49.11 366.21 51.33C366.13 54.53 363 52.99 361.21 53.33C359.836 53.4513 358.455 53.4613 357.08 53.36Z" fill="#F9BB82"/>
<path d="M43.6799 453.42C43.1188 450.152 43.6903 446.789 45.2999 443.89L51.5099 438.67C53.2399 443.91 49.8399 447.47 48.8099 451.53C47.8659 451.41 46.907 451.52 46.0141 451.849C45.1212 452.177 44.3206 452.717 43.6799 453.42Z" fill="#8389C1"/>
<path d="M54.91 388.4C52.69 388.23 50.33 389.04 48.3 387.51C49.83 384.56 47.7301 378.23 53.4001 379.33C58.5201 380.31 54.53 385.26 54.91 388.4Z" fill="#A35868"/>
<path d="M296.59 465.73C297.12 465.15 297.59 465.2 298.09 465.81L296.59 465.73Z" fill="#EB7C76"/>
<path d="M384.3 281.93L384.46 281.81L384.23 281.93H384.3Z" fill="#8389C1"/>
<path d="M305.25 359.74C302.31 368.31 299.25 376.84 296.51 385.48C295.28 389.43 292.21 390.67 288.99 391.13C275.57 393.07 269.9 401.13 266.99 414.02C263.49 429.75 259.58 445.53 253.44 460.58L253.17 412.9C253.29 395.18 253.413 377.457 253.54 359.73L305.25 359.74Z" fill="#FED58D"/>
<path d="M253.51 151.16H281.06C278.74 161.42 274.51 171.04 271.11 180.93C270.26 183.41 268.83 184.25 266.36 184.21C262.07 184.13 257.78 184.21 253.48 184.21L253.51 151.16Z" fill="#FED58D"/>
<path d="M357 210.28C347.87 199.86 345.48 186.44 341.06 173.96C339.36 169.15 337.06 165.81 332.11 163.79C323.53 160.28 315.23 156.06 306.82 152.14L307.06 151.26L357.06 151.1C357.18 168.34 357.307 185.583 357.44 202.83L357 210.28Z" fill="#FED58D"/>
<path d="M431.85 92.12C435.85 89.8 440.27 89.68 443.92 92.26C456.36 101.04 468.56 110.15 480.77 119.26C481.57 119.86 481.69 121.35 482.13 122.43C469.28 118.93 457.61 112.22 444.64 108.89C440.51 107.83 439.53 102.32 436.82 99.07C435 96.86 433.5 94.44 431.85 92.12Z" fill="#EB7C76"/>
<path d="M482.1 122.37C483.71 122.37 485.39 122.21 486.47 123.83C484.87 123.78 483.18 124 482.1 122.37Z" fill="#EB7C76"/>
<path d="M45.8901 395.58C39.5601 397.72 37.1101 401.26 37.7401 406.58C37.7676 407.063 37.9692 407.519 38.3075 407.865C38.6458 408.211 39.0979 408.422 39.5801 408.46C40.7201 408.61 41.5801 408.19 41.0001 406.94C39.8201 404.41 40.9401 403.83 43.1201 404.38C45.3001 404.93 45.1201 406.75 44.8201 408.45C44.4501 410.37 42.9901 411.17 41.2301 411.45C39.0201 411.77 36.8701 411.58 35.4801 409.5C32.9401 405.71 34.6001 402.09 36.3701 398.73C38.0001 395.64 40.5601 393.92 45.8901 395.58Z" fill="#F3C2A8"/>
<path d="M50.71 399.91C52.35 396.47 55.23 396.03 57.71 398.22C60.61 400.78 59.59 404.35 58.27 407.53C56.82 411 54 412.07 50.65 411C47.45 410 47.56 407.1 47.78 404.41C47.94 402.41 48.71 400.71 50.78 399.89C50.78 401.05 50.78 402.21 50.78 403.36C50.78 405.28 49.59 408.11 53.02 408.08C56.45 408.05 57.1 404.71 56.93 402.41C56.59 398.38 52.79 400.82 50.71 399.91Z" fill="#F3C2A8"/>
<path d="M409.18 482.15C405.41 478.2 407.66 475.67 411.46 474.15C424.29 468.94 437.38 469.25 450.33 473.49C455.86 475.3 456.7 478.68 453.4 482.06C438.65 477 423.91 478.42 409.18 482.15Z" fill="#EB7C76"/>
<path d="M409.18 482.15C423.91 478.42 438.65 477.02 453.4 482.05C453.4 482.29 453.4 482.61 453.23 482.74C445.07 490.27 417.51 489.89 409.18 482.15Z" fill="#8389C1"/>
<path d="M50.71 399.91C52.79 400.82 56.59 398.38 56.89 402.4C57.06 404.7 56.47 408.03 52.98 408.07C49.49 408.11 50.79 405.27 50.74 403.35C50.74 402.2 50.74 401.04 50.74 399.88L50.71 399.91Z" fill="#C57176"/>
</g>
<defs>
<clipPath id="clip0_2_397">
<rect width="560.13" height="563.51" fill="white"/>
</clipPath>
</defs>
</svg>
