<svg width="561" height="564" viewBox="0 0 561 564" fill="none" xmlns="http://www.w3.org/2000/svg">
<g clip-path="url(#clip0_2_137)">
<rect width="560.13" height="563.51" fill="#FED58D"/>
<path d="M564.73 467.36C564.73 498.72 564.63 530.09 564.85 561.45C564.85 565.68 564 566.53 559.77 566.52C481.65 566.36 403.523 566.323 325.39 566.41C318.84 557.31 309.21 552.29 299.73 547.07C302.31 542.57 309.04 543.82 311.25 538.71C312.07 536.79 313.75 534.64 311.9 532.98C309.7 530.98 308.25 533.24 306.98 534.98C304.98 537.67 302.98 540.78 301.36 534.69C301.256 534.107 300.942 533.582 300.478 533.213C300.014 532.845 299.432 532.659 298.84 532.69C297.27 532.89 296.55 534.23 296.35 535.69C295.91 538.88 296.6 542.26 294.75 545.22C288.94 544.66 282.93 539.95 277.39 546.15C277.15 546.42 275.39 545.34 274.32 544.88C274.88 536.88 271.62 527.19 283.32 523.88C283.643 523.732 283.929 523.513 284.156 523.24C284.383 522.966 284.545 522.645 284.63 522.3C285.9 515.18 289.97 510.23 295.85 506.2C297.77 504.89 299.32 501.53 296.54 499.53C294.29 497.91 293.13 500.71 291.82 502.26C289.82 504.58 287.57 508.34 286.38 501.71C286.11 500.22 285.07 498.95 283.47 499.34C282.783 499.553 282.189 499.992 281.784 500.586C281.379 501.18 281.187 501.893 281.24 502.61C281.18 506.37 281.143 510.13 281.13 513.89C281.13 518.06 279.62 521.03 275.26 522.1C274.91 521.3 274.58 520.9 274.58 520.49C274.52 512.97 274.58 505.49 274.42 497.92C274.42 495.51 275.42 491.66 271.91 491.62C267.84 491.56 268.98 495.62 268.91 498.24C268.78 504.82 268.91 511.41 268.82 518C268.82 519.28 269.2 521.06 267.25 521.34C266.537 521.39 265.825 521.226 265.205 520.87C264.586 520.514 264.086 519.981 263.77 519.34C262.1 516.55 262.94 513.34 262.51 510.34C261.96 506.49 264.77 499.73 259.51 499.66C255.08 499.6 257.56 506.33 257.17 510.02C256.35 517.82 257.67 524.72 266.61 527.34C268.8 527.99 269.33 529.69 269.28 531.74C269.2 535.03 269.15 538.32 269.09 541.61C262.91 539.27 257.04 536.08 250.5 534.68L250.2 517.86C250.223 517.153 250.04 516.455 249.675 515.85C249.309 515.245 248.776 514.759 248.14 514.45C246.89 513.86 246.06 514.83 245.31 515.81C244.31 517.07 245.65 520.24 242.45 519.56C239.83 519 238.85 516.71 238.32 514.38C238.069 512.768 237.919 511.141 237.87 509.51C237.72 507.97 237 506.69 235.38 506.73C234.17 506.73 233.57 507.85 233.18 509.09C231.29 515.16 233.78 522.48 239.69 524.41C244.49 525.98 245.22 528.55 244.54 532.63C240.74 533.76 235.49 528.63 232.97 535.3C230.83 541.02 228.67 546.72 226.52 552.44C221.52 557.44 214.58 560.17 210.73 566.44H-1.74998C-1.91998 563.44 -2.22998 560.34 -2.22998 557.29C-2.16998 374.81 -2.09331 192.34 -1.99998 9.88C-1.99998 0.360001 -1.99998 0.360001 7.68002 0.350001C142.4 0.303335 277.123 0.260001 411.85 0.220001C462.81 0.220001 513.77 0.283335 564.73 0.410001V420.66C562.743 419.398 560.683 418.256 558.56 417.24C553.16 415.02 550.31 411.73 549.81 405.33C548.72 391.07 546.54 376.9 544.81 362.69C544.45 359.69 544.81 355.99 540.37 356.1C531 356.34 521.57 354.86 512.26 356.94L492.51 357.13C490.13 358.83 490.9 362.46 488.29 364.01C487.51 359.89 484.59 359.68 481.29 360.17C471.58 359.42 471.6 359.42 471.48 369.17C471.48 371.28 471.84 373.69 470.98 375.44C465.18 387.31 465.98 400.06 465.61 412.66C465.53 415.79 465.24 418.98 463.67 421.53C456 434 455.83 448.46 452.11 462C450.93 466.28 452.6 467.43 456.61 467.41C485.61 467.27 514.61 467.24 543.56 467.17H563.18L564.73 467.36ZM163.93 532.36C165.05 532.07 166.2 531.87 167.27 531.48C169.14 530.8 171.88 530.77 171.73 527.99C171.6 525.47 169.03 524.99 167.11 524.44C164.24 523.63 161.24 523.22 158.3 522.64L155.3 515.41C153.3 505.93 145.49 505.79 138.24 504.73L135.76 504.53C128.826 503.632 121.783 504.16 115.06 506.08C110.18 507.48 106.67 509.98 106.06 515.41C102.27 526.41 99.99 529.16 116.9 532.68C124.76 534.32 132.63 534.1 140.53 533.22L163.93 532.36ZM86 378.25L85.76 377.94L86.05 378.2C92.51 384.53 97.21 391.11 93.32 401.09C91.78 405.03 93.85 409.33 98.93 413.42C97.6 406.25 98.58 401.42 101.58 396.78C104.29 392.62 103.37 388.57 99.48 385.51C95.59 382.45 91.42 379 86 378.25ZM78.69 485.52C80.49 484.04 82.69 484.2 84.76 484.28C96.7492 484.566 108.744 484.075 120.67 482.81C127.67 482.16 134.67 481.35 141.31 478.6C143 477.89 145.13 477.22 145.15 474.96C145.15 472.48 143.21 471.25 141.15 470.53C136.258 468.847 131.176 467.779 126.02 467.35L121.19 454.53C120.19 448 115.78 444.74 109.84 443.03C109.97 432.67 103.41 427.69 94.97 423.69C84.79 418.86 82.97 415.07 84.97 405.43C87.27 393.97 80.86 385.82 68.13 384.75C70.05 386.47 71.59 387.87 73.13 389.25C78.56 394.05 79.3 398.8 75.45 404.83C74.45 406.42 73.14 407.83 72.13 409.41C67.4 417 68 420.75 74.91 426.27C79.57 430.02 82.31 434.27 78.74 440.19L72.91 441.81C71.73 434.41 69.4 427.57 62.15 423.95C58.57 422.16 57.88 420.16 58.63 416.15C60.34 406.96 52.19 397.4 42.24 396.44C45.57 402.23 47.8 407.84 44.51 414.44C38.89 425.74 40.39 428.78 52.45 432.65C57.37 434.22 62.57 435.33 65.06 440.7C62.72 441.63 60.41 442.6 58.06 443.47C52.9 445.37 49.4 448.56 49.24 454.47C46.63 459.31 45.7 464.66 44.59 469.95C43.66 471.28 42.77 472.64 41.8 473.95C40.68 475.43 38.98 476.86 39.7 478.85C40.7 481.5 43.27 480.42 45.2 480.54C49.39 480.79 53.6 480.82 57.81 480.94L69.81 482.89C68.75 484.66 65.24 484.77 66.24 487.99C76.12 489.07 76.22 489.05 78.69 485.52ZM148.41 83.83C147.353 79.1298 145.151 74.7637 142 71.12C133.12 61.85 124.78 61.41 114.5 69.68C110.56 72.06 108.17 75.83 105.73 79.55C103.178 81.8337 101.341 84.8063 100.44 88.11C98.35 91.68 98.5 95.44 99.44 99.28C96.6 101.28 92.44 103.39 93.63 107.28C94.84 111.28 99.34 108.71 102.34 109.19C104.63 109.55 107.03 109.19 109.34 109.19C112.27 109.29 112.99 107.7 112.63 105.19L145.42 105.06C150.88 104.82 156.6 106.14 162.01 102.3C158.73 98.86 154.83 99.77 151.27 99.42C151.17 98.48 151.06 97.54 150.96 96.6C151.72 92 150.53 87.83 148.41 83.83ZM74.86 144.83C64.46 138.48 54.19 142.31 50.11 154.28C50.9893 154.475 51.8817 154.605 52.78 154.67C58.63 154.67 64.48 154.53 70.32 154.45C83.73 154.53 97.14 154.68 110.55 154.62C112.32 154.62 116.06 156.1 114.55 151.45C111.41 141.52 96.96 134.34 86.69 137.45C82 138.77 78.79 142.28 74.86 144.78V144.83ZM356.65 442.64C366.03 442.73 375.4 442.84 384.77 442.87C386.33 442.87 388.4 443.58 389.32 441.96C390.42 440.05 388.67 438.46 387.69 436.96C381 426.81 371.24 422.86 359.4 423.21C359.7 417.91 362.72 413.02 361.98 407.27C357.73 408.69 356.36 413.27 352.34 414.76C349.9 411.35 351.51 406.56 348.17 402.82L343.06 414.72C339.43 411.52 338.63 406.84 333.77 404.09V417.65L322.77 410.96C322.32 416.07 326.04 418.96 326.13 423.11C321.92 424.25 318.03 420.62 312.59 422.84L323 432.11C320.676 434.04 318.459 436.097 316.36 438.27C314.29 440.64 313.66 443.1 318.22 443C331 442.72 343.85 444 356.65 442.64ZM434.33 307.76C424.6 302.92 416.12 304.76 410.9 312.7C408.84 315.84 408.51 317.83 413.24 317.84C418.4 317.84 423.55 318.02 428.71 318.12C442.33 319.35 455.97 318.12 469.59 318.49C471.14 318.49 473.21 319.21 474.13 317.49C475.21 315.49 473.41 313.99 472.41 312.49C462.3 297.29 449.87 295.75 434.33 307.76ZM152.87 270.7C151.76 267.87 150.65 265.03 149.55 262.2C148.83 257.2 145.03 255.13 140.93 254.03C130.494 251.206 119.496 251.206 109.06 254.03C104.96 255.12 101.16 257.21 100.46 262.2C100.1 263.31 99.75 264.43 99.4 265.54C96.19 275.65 97.34 277.64 107.53 280.32C116.76 282.74 126.17 281.78 135.53 281.98C144.17 282.462 152.835 281.797 161.3 280C163.5 279.51 166.3 278.78 166.3 275.89C166.3 273 163.37 272.66 161.13 272.17C158.4 271.62 155.62 271.2 152.87 270.7ZM366.94 116.33C363.12 128.91 360.85 141.84 358.04 154.65H306.97H254.58C239.5 154.57 224.42 154.58 209.33 154.33C205.19 154.26 203.45 155.45 203.52 159.9C203.747 173.32 203.747 186.747 203.52 200.18C203.44 204.61 205.12 205.81 209.3 205.74C224.38 205.5 239.47 205.54 254.55 205.48L306.92 205.83C306.894 206.222 306.921 206.615 307 207V256.53L306.82 308.71L254.61 309.03C239.51 309.03 224.4 309.03 209.3 308.82C205.24 308.75 203.4 309.58 203.5 314.19C203.793 327.63 203.793 341.07 203.5 354.51C203.4 359.1 205.2 359.97 209.28 359.91C224.38 359.68 239.49 359.75 254.59 359.71H307C321.85 359.76 336.7 359.65 351.54 359.94C356.48 360.03 358.14 358.34 358.04 353.42C357.75 338.59 357.84 323.75 357.79 308.92V207L357.94 154.52L390.64 154.35H455.64C459.97 155.35 461.46 153.6 461.4 149.18C461.2 134.13 461.48 119.08 461.22 104.04C461.16 100.67 463.58 95.97 459.07 94.04C454.4 92.04 453.07 97.35 450.25 99.46C449.97 99.66 449.4 99.46 448.84 99.46C447.79 87.98 446.59 76.55 445.79 65.09C445.52 61.25 444.24 59.09 440.33 59.86C433.42 61.24 429.33 57.69 426.05 52.4C422.91 50.23 419.44 51.56 416.1 51.48C403.1 48.65 392.56 55.19 381.63 60.48C377.63 62.41 376.32 64.88 376.37 69.19C376.54 82.99 376.32 96.79 376.25 110.6C373.14 112.57 368.35 111.64 366.94 116.33ZM66.34 393.74C60.74 388.86 59.34 384.08 61.14 377.9C63.78 368.7 57.14 360.38 46.68 359.35C48.68 364.35 51.68 368.87 50.37 374.78C47.41 388 50.7 392.15 66.34 393.74ZM52 283.61C54.89 282.22 60.25 285.7 60.64 281.09C60.93 277.69 56.12 275.09 52.17 275.27C48.22 275.45 42.7 276.15 43.08 280.9C43.46 285.65 48.88 282.35 52 283.61ZM270.73 70.88C271.07 72.27 272.68 72.48 274.34 72.5C277.84 72.5 281.34 72.58 284.85 72.5C286.4 72.5 288.54 72.99 289.01 70.94C289.42 69.19 287.73 68 286.44 67.08C284.976 65.9308 283.316 65.0566 281.54 64.5C277.75 63.53 270.52 67.48 270.73 70.88ZM170.54 313.31C173.68 312.13 179.16 315.14 179.54 311.08C179.91 307.3 174.91 304.71 170.71 304.99C167.1 305.23 161.82 306.58 161.98 310.41C162.23 315.41 167.68 312 170.54 313.31ZM460.9 235.31C462.071 235.42 463.249 235.42 464.42 235.31C466.47 234.92 469.84 236.76 470.16 233.31C470.4 230.79 467.38 229.85 465.24 228.92C464.375 228.554 463.449 228.354 462.51 228.33C458.31 228.16 452.97 228.95 452.84 233.14C452.7 237.11 458.09 234.47 460.9 235.3V235.31ZM522.11 202.76C523.272 202.835 524.438 202.835 525.6 202.76C527.54 202.51 530.6 203.76 531.05 201.22C531.52 198.42 528.7 196.84 526.25 196.09C524.439 195.633 522.553 195.554 520.71 195.86C517.64 196.28 513.77 197.38 513.97 200.7C514.22 204.75 518.42 201.94 520.72 202.77C521.181 202.839 521.651 202.832 522.11 202.75V202.76ZM486.6 187.19C487.535 187.26 488.475 187.26 489.41 187.19C491.58 186.84 495.11 188.4 495.58 185.65C496.15 182.37 492.45 181.48 489.87 180.56C488.521 180.146 487.096 180.04 485.7 180.25C482.36 180.67 478.05 181.75 478.19 185.25C478.33 188.87 482.74 186.59 485.19 187.25C485.661 187.286 486.134 187.265 486.6 187.19ZM188.11 458.87C190.65 457.87 196.52 460.76 196.49 456.87C196.49 452.31 190.49 451.87 186.29 451.99C183.29 452.08 179.22 453.54 179.35 456.67C179.52 460.57 183.8 458.1 186.17 458.81C186.812 458.902 187.463 458.922 188.11 458.87ZM68.86 241C62.44 233.59 57.41 232.37 52.52 236C51.37 236.85 49.98 237.77 50.16 239.29C50.37 241.12 52.16 241 53.52 241.01C58.16 241 62.8 241 68.86 241ZM269.07 58.39C264.44 51.07 258.24 49.48 253.21 53.7C252.16 54.57 250.85 55.45 251.33 57.08C251.75 58.47 253.15 58.36 254.26 58.37C259 58.42 263.82 58.39 269.07 58.39ZM228.07 85.61C230.77 84.07 235.78 87.69 236.28 83.16C236.65 79.93 232.07 78.5 228.69 78.4C225.01 78.29 220.33 79.59 220.45 83.24C220.59 87.3 225.48 84.33 228.09 85.61H228.07ZM27.51 268.1C30.2 266.94 35.06 269.69 35.22 265.86C35.38 262.03 30.33 261.18 26.98 261.27C23.91 261.34 18.98 262.27 19.34 265.75C19.85 270.16 24.85 266.65 27.51 268.1Z" fill="#FED58D"/>
<path d="M492.55 357.13L512.3 356.94C512.3 367.27 512.35 377.59 512.3 387.94C512.3 390.84 512.3 394.04 514.97 395.53C521.08 398.86 521.48 404.26 520.76 410.01C519.99 416.22 522.81 418.46 528.64 419.96C540.64 423.05 553.08 424.61 564.72 429.17V444.74C561.72 452.05 564.15 459.74 563.17 467.2H543.55C542.123 460.08 540.69 452.957 539.25 445.83C538.9 444.14 539.41 441.47 536.62 441.83C535.544 441.935 534.537 442.408 533.77 443.17C533.003 443.931 532.522 444.935 532.41 446.01C532.14 448.8 532.33 451.64 532.15 454.45C532.01 456.63 532.91 459.69 529.43 459.96C526.17 460.22 526.12 457.07 525.49 454.96C524.38 451.38 523.06 447.71 522.88 444.03C522.53 436.73 518.49 434.3 511.88 432.88C494.51 429.11 494.52 428.88 493.94 410.96C493.82 407.38 493.29 404.44 489.05 403.68C486.95 406.74 489.53 410.68 487.3 413.68C476.69 407.2 474.05 402.49 478.17 394.8C480.79 389.91 481.23 385.13 481.17 379.95C481.1 373.37 481.24 366.79 481.28 360.21C484.6 359.72 487.52 359.93 488.28 364.05C489.18 370.3 485.93 377.59 492.5 383.46L492.55 357.13Z" fill="#D15970"/>
<path d="M564.73 0.410006C513.77 0.350006 462.81 0.286672 411.85 0.220006C277.123 0.240006 142.4 0.283339 7.68003 0.350006C-1.99997 0.360006 -1.99997 0.360005 -1.99997 9.88001C-2.08664 192.34 -2.1633 374.8 -2.22997 557.26C-2.22997 560.26 -1.91997 563.36 -1.74997 566.41C-2.62997 565.91 -4.20997 567.41 -4.51997 565.69C-4.68523 564.048 -4.7053 562.395 -4.57997 560.75C-4.57997 375.03 -4.62664 189.31 -4.71997 3.59001C-4.71997 -1.50999 -3.71997 -2.55999 1.43003 -2.55999C187.31 -2.39333 373.19 -2.29666 559.07 -2.26999C560.85 -2.26999 565.18 -5.18999 564.73 0.410006Z" fill="#FFF9EF"/>
<path d="M564.73 429.15C553.09 424.59 540.67 423.03 528.65 419.94C522.82 418.44 520 416.2 520.77 409.99C521.49 404.24 521.09 398.84 514.98 395.51C512.26 394.02 512.3 390.82 512.31 387.92C512.31 377.59 512.31 367.27 512.31 356.92C521.62 354.84 531.05 356.32 540.42 356.08C544.91 355.97 544.5 359.66 544.86 362.67C546.55 376.88 548.73 391.05 549.86 405.31C550.36 411.71 553.21 415 558.61 417.22C560.733 418.236 562.793 419.378 564.78 420.64L564.73 429.15Z" fill="#E3616E"/>
<path d="M250.45 534.66C256.99 536.06 262.86 539.25 269.04 541.59L274.32 544.85C275.38 545.31 277.15 546.39 277.39 546.12C282.93 539.92 288.94 544.63 294.75 545.2C296.02 546.86 298 546.63 299.75 547.07C309.23 552.29 318.86 557.31 325.41 566.41H253.17C253.17 562.05 250.55 558.41 249.53 554.41C247.78 547.52 243.39 547 237.76 548.72C233.97 549.87 230.23 551.16 226.47 552.4C228.62 546.68 230.78 540.98 232.92 535.26C235.44 528.55 240.69 533.72 244.49 532.59C246.12 534.35 248.48 534 250.45 534.66Z" fill="#EC7D76"/>
<path d="M226.47 552.42C230.23 551.18 233.97 549.89 237.76 548.74C243.39 547.02 247.76 547.54 249.53 554.43C250.53 558.43 253.12 562.05 253.17 566.43H210.68C214.53 560.15 221.51 557.42 226.47 552.42Z" fill="#D15970"/>
<path d="M481.31 360.17C481.31 366.75 481.13 373.33 481.2 379.91C481.25 385.09 480.81 389.91 478.2 394.76C474.08 402.45 476.72 407.16 487.33 413.64C489.56 410.64 486.98 406.72 489.08 403.64C493.32 404.4 493.85 407.34 493.97 410.92C494.55 428.8 494.54 429.07 511.91 432.84C518.51 434.26 522.55 436.69 522.91 443.99C523.09 447.67 524.41 451.34 525.52 454.92C526.15 456.99 526.2 460.14 529.46 459.92C532.94 459.65 532.04 456.59 532.18 454.41C532.36 451.6 532.18 448.76 532.44 445.97C532.553 444.895 533.033 443.891 533.8 443.13C534.567 442.368 535.574 441.895 536.65 441.79C539.44 441.44 538.93 444.11 539.28 445.79C540.733 452.91 542.167 460.033 543.58 467.16C514.58 467.23 485.58 467.26 456.63 467.4C452.63 467.4 450.95 466.27 452.13 461.99C455.85 448.47 456.05 433.99 463.71 421.53C465.28 418.98 465.57 415.79 465.65 412.66C466 400.06 465.22 387.31 471.02 375.44C471.88 373.69 471.49 371.28 471.52 369.17C471.62 359.42 471.6 359.42 481.31 360.17Z" fill="#EC7D76"/>
<path d="M269.11 192.683C272.45 192.763 275.92 191.433 279.06 193.603C280.36 208.543 282.45 223.473 282.66 238.423C282.79 247.233 286.28 251.103 294.06 253.253C297.82 254.253 301.62 256.113 302.45 260.883C304.45 272.443 306.58 283.983 308.65 295.533H243.65L247.65 273.163C251.72 271.413 255.65 269.113 259.89 268.053C265.89 266.543 268.04 263.433 266.12 257.563C265.36 250.343 264.65 243.103 263.82 235.893C263.58 233.793 262.54 230.813 264.69 230.103C270.22 228.273 268.92 224.033 268.97 220.263C269.13 211.053 269.09 201.863 269.11 192.683Z" fill="#D15970"/>
<path d="M417.366 84.6475L417.075 169.5H334.543C334.493 169.054 334.486 168.604 334.525 168.156L334.527 168.136V168.114C334.582 140.298 334.609 112.475 334.609 84.6475H417.366Z" fill="#F5A165" stroke="black"/>
<path d="M417.5 252.5V337.5H334.566L334.5 337.41C334.609 309.118 334.713 280.814 334.812 252.5H417.5Z" fill="#F5A165" stroke="black"/>
<path d="M333.499 84.5156C333.499 112.186 333.472 139.847 333.418 167.496L248.5 166.944V84.5L333.499 84.5156Z" fill="#F29262" stroke="black"/>
<path d="M333.5 338.585V421.5H248.5C248.521 394.035 248.532 366.542 248.532 339.023L333.416 338.501L333.5 338.585Z" fill="#F5A165" stroke="black"/>
<path d="M173.533 338.507H173.535C198.165 338.85 222.842 338.851 247.5 338.851V421.167C222.842 421.167 198.164 421.168 173.502 421.495C170.144 421.544 167.902 421.198 166.499 420.038C165.212 418.973 164.515 417.115 164.5 413.81L164.507 413.129C164.967 391.049 164.967 368.948 164.507 346.824V346.823L164.5 346.141C164.517 342.824 165.228 340.976 166.524 339.924C167.939 338.776 170.19 338.449 173.533 338.507Z" fill="#6EB12E" stroke="black"/>
<path d="M173.56 83.5049C198.186 83.9155 222.848 83.9018 247.5 84.0312V167.066C224.4 167.156 201.276 167.08 178.165 167.421L173.51 167.495C170.086 167.553 167.851 167.077 166.469 165.819C165.1 164.573 164.439 162.437 164.504 158.812L164.505 158.812C164.855 137.997 164.876 117.182 164.57 96.3672L164.505 92.2051C164.448 88.568 165.134 86.4265 166.521 85.1787C167.923 83.9183 170.17 83.4473 173.56 83.5049Z" fill="#EA5167" stroke="black"/>
<path d="M417.083 338.5C417.163 362.744 417.085 387.016 417.493 411.269V411.271C417.575 415.292 416.927 417.831 415.4 419.368C413.874 420.905 411.342 421.568 407.308 421.494H407.309C383.053 421.003 358.776 421.179 334.5 421.101V338.5H417.083Z" fill="#F29262" stroke="black"/>
<path d="M417.499 170.5C417.456 197.522 417.434 224.522 417.434 251.5H334.5V170.5H417.499Z" fill="#F29262" stroke="black"/>
<path d="M269.11 192.683C269.11 201.863 269.11 211.053 269.02 220.233C269.02 224.003 270.27 228.233 264.74 230.073C262.59 230.783 263.63 233.763 263.87 235.863C264.7 243.073 265.41 250.313 266.17 257.533L229.26 251.833C229.33 238.023 229.55 224.223 229.38 210.423C229.33 206.113 230.66 203.643 234.64 201.713C245.57 196.393 256.08 189.853 269.11 192.683Z" fill="#EC7D76"/>
<path d="M308.65 295.533C306.58 283.983 304.47 272.443 302.45 260.883C301.62 256.113 297.82 254.293 294.06 253.253C286.28 251.103 282.79 247.253 282.66 238.423C282.45 223.423 280.36 208.543 279.06 193.603C282.35 198.893 286.43 202.443 293.34 201.063C297.25 200.283 298.53 202.453 298.8 206.293C299.6 217.753 300.8 229.183 301.85 240.663C302.41 240.663 302.98 240.843 303.26 240.663C306.06 238.553 307.41 233.253 312.08 235.243C316.59 237.173 314.17 241.873 314.23 245.243C314.49 260.243 314.23 275.333 314.41 290.383C314.47 294.783 312.99 296.483 308.65 295.533Z" fill="#E3616E"/>
<path d="M44.58 470C45.69 464.71 46.58 459.36 49.23 454.53C53.87 458.67 59.14 461.91 65.3 462.8C84.71 465.6 104.07 467.37 121.22 454.57L126.05 467.39C128.6 474.91 122.91 476.83 117.93 478.66C104.28 483.66 89.93 483.21 75.73 483.09L69.81 482.92L57.81 480.98C59.49 479.67 62.89 480.81 63.11 477.5C63.33 474.19 60.92 472.59 58.65 471C54.18 467.84 49.3 469.85 44.58 470Z" fill="#EC7D76"/>
<path d="M78.74 440.19C82.31 434.19 79.57 430.02 74.91 426.27C68.01 420.75 67.4 416.96 72.15 409.41C73.15 407.82 74.46 406.41 75.47 404.83C79.32 398.83 78.58 394.05 73.15 389.25C71.6 387.87 70.06 386.47 68.15 384.75C80.87 385.82 87.28 394 85 405.43C83.07 415.07 84.84 418.86 95 423.69C103.44 427.69 110 432.69 109.87 443.03C108.877 446.29 107.877 449.553 106.87 452.82C96.43 449.52 85.6 450.44 74.87 449.93C75.86 446.55 79.84 444.37 78.74 440.19Z" fill="#ABA49E"/>
<path d="M247.7 273.113L243.7 295.483L211 295.653L211.08 295.743C213.89 282.933 216.16 270.003 219.98 257.423C222.91 257.533 225.23 259.053 227.61 260.573C234.23 264.833 240.99 268.963 247.7 273.113Z" fill="#EC7D76"/>
<path d="M274.32 544.85L269 541.59C269.06 538.3 269.11 535.01 269.19 531.72C269.19 529.67 268.71 527.97 266.52 527.32C257.58 524.7 256.26 517.8 257.08 510C257.47 506.31 254.99 499.58 259.42 499.64C264.72 499.71 261.91 506.47 262.42 510.32C262.85 513.32 262.01 516.49 263.68 519.32C263.996 519.961 264.496 520.494 265.115 520.85C265.735 521.206 266.447 521.37 267.16 521.32C269.11 521.04 268.71 519.26 268.73 517.98C268.8 511.39 268.73 504.8 268.82 498.22C268.88 495.62 267.74 491.54 271.82 491.6C275.32 491.6 274.29 495.49 274.33 497.9C274.46 505.42 274.43 512.9 274.49 520.47C274.49 520.88 274.82 521.28 275.17 522.08C279.53 521.01 281.04 518.08 281.04 513.87C281.04 510.11 281.077 506.35 281.15 502.59C281.097 501.873 281.289 501.16 281.694 500.566C282.099 499.972 282.694 499.533 283.38 499.32C284.98 498.93 286.02 500.2 286.29 501.69C287.48 508.32 289.76 504.56 291.73 502.24C293.04 500.69 294.2 497.89 296.45 499.51C299.23 501.51 297.68 504.87 295.76 506.18C289.88 510.18 285.81 515.18 284.54 522.28C284.455 522.625 284.293 522.946 284.066 523.22C283.839 523.493 283.553 523.712 283.23 523.86C271.62 527.16 274.88 536.81 274.32 544.85Z" fill="#8389C1"/>
<path d="M149.55 262.2C150.65 265.03 151.76 267.87 152.87 270.7C153.38 275.22 151.16 277.81 146.99 278.96C143.17 279.96 139.34 280.96 135.52 281.96C126.17 281.76 116.76 282.72 107.52 280.3C97.33 277.62 96.18 275.63 99.39 265.52L100.39 262.18C114.72 272.25 135.32 272.25 149.55 262.2Z" fill="#EC7D76"/>
<path d="M323 432.12L312.62 422.85C318.06 420.63 321.95 424.26 326.16 423.12C326.07 419.02 322.35 416.12 322.8 410.97L333.8 417.66V404.1C338.66 406.85 339.46 411.53 343.09 414.73L348.2 402.83C351.54 406.57 349.93 411.36 352.37 414.77C356.37 413.26 357.76 408.7 362.01 407.28C362.75 413.03 359.73 417.92 359.43 423.22C353.59 424.5 347.72 425.72 343.32 430.28C336.33 428.73 329.61 430 323 432.12Z" fill="#8389C1"/>
<path d="M65.0599 440.73C62.5699 435.36 57.3699 434.25 52.45 432.68C40.3899 428.81 38.8899 425.77 44.5099 414.47C47.7999 407.84 45.57 402.23 42.24 396.47C52.19 397.47 60.34 406.99 58.63 416.18C57.88 420.18 58.57 422.18 62.15 423.98C69.4 427.6 71.7299 434.44 72.9199 441.84L68.6999 450L66.5 444.44C66.3899 443 66.2699 441.67 65.0599 440.73Z" fill="#ABA49E"/>
<path d="M434.33 307.76C449.87 295.76 462.33 297.29 472.41 312.52C473.41 314.02 475.21 315.52 474.13 317.52C473.21 319.21 471.13 318.52 469.59 318.52C455.97 318.15 442.33 319.38 428.71 318.15L434.33 307.76Z" fill="#EC7D76"/>
<path d="M140.54 533.2C132.64 534.08 124.77 534.3 116.91 532.66C100 529.14 102.28 526.37 106.07 515.39C122.47 523.33 138.867 523.33 155.26 515.39L158.26 522.62C158.21 523.07 158.17 523.53 158.12 523.99C154.72 523.99 151.06 524.9 149.81 527.87C147.92 532.46 144.27 532.56 140.54 533.2Z" fill="#EC7D76"/>
<path d="M343.29 430.28C347.69 425.72 353.56 424.5 359.4 423.22C371.24 422.87 381 426.82 387.69 436.97C388.69 438.46 390.42 440.05 389.32 441.97C388.4 443.59 386.32 442.88 384.77 442.88C375.4 442.88 366.03 442.74 356.65 442.66C353.69 436.92 348.88 433.17 343.29 430.28Z" fill="#BE6770"/>
<path d="M151 96.58C151.1 97.52 151.21 98.46 151.31 99.4C149.89 101.762 147.872 103.707 145.46 105.04L112.67 105.17C109.27 100.95 105.03 98.61 99.44 99.28C98.44 95.44 98.31 91.68 100.44 88.11C105.51 93.2 112.12 93.52 118.23 92.11C129.87 89.51 140.45 92.31 151 96.58Z" fill="#8389C1"/>
<path d="M74.86 144.78C78.79 142.28 82.02 138.78 86.72 137.36C96.99 134.29 111.44 141.47 114.58 151.36C116.06 156.01 112.32 154.52 110.58 154.53C97.17 154.59 83.76 154.44 70.35 154.36C71.85 151.173 73.3533 147.98 74.86 144.78Z" fill="#EC7D76"/>
<path d="M247.7 273.113C240.98 268.943 234.23 264.813 227.56 260.573C225.18 259.053 222.86 257.573 219.93 257.423C221.34 252.733 226.13 253.663 229.26 251.813L266.17 257.513C268.09 263.383 265.98 266.513 259.94 268.003C255.7 269.113 251.77 271.383 247.7 273.113Z" fill="#E3616E"/>
<path d="M65.06 440.73C66.27 441.67 66.39 443.04 66.49 444.42C63.49 447.16 55.15 447.56 61.93 454.67C70.71 461.11 97.25 462.38 106.44 456.97C108.84 455.55 108.6 454.4 106.88 452.81C107.88 449.55 108.88 446.29 109.88 443.03C115.82 444.74 120.19 448.03 121.23 454.53C104.08 467.33 84.72 465.53 65.31 462.76C59.15 461.87 53.88 458.63 49.24 454.49C49.4 448.59 52.9 445.4 58.06 443.49C60.41 442.63 62.72 441.66 65.06 440.73Z" fill="#F29262"/>
<path d="M105.69 79.55C108.13 75.83 110.52 72.06 114.46 69.68C123.58 71.02 132.59 74.41 141.96 71.12C145.126 74.7595 147.342 79.126 148.41 83.83C134.09 83.16 119.38 86.44 105.69 79.55Z" fill="#8389C1"/>
<path d="M105.69 79.55C119.38 86.44 134.09 83.16 148.41 83.83C150.53 87.83 151.72 92.01 151 96.58C140.45 92.31 129.87 89.51 118.19 92.14C112.08 93.52 105.47 93.2 100.4 88.14C101.296 84.8255 103.133 81.8418 105.69 79.55Z" fill="#6577AE"/>
<path d="M343.29 430.28C348.88 433.17 353.69 436.92 356.65 442.65C343.85 444.04 331.01 442.72 318.2 443C313.64 443.1 314.27 440.64 316.34 438.27C318.437 436.097 320.653 434.044 322.98 432.12C329.61 430 336.33 428.73 343.29 430.28Z" fill="#EC7D76"/>
<path d="M66.34 393.74C50.7 392.15 47.41 388.04 50.34 374.74C51.66 368.83 48.64 364.35 46.65 359.31C57.09 360.31 63.75 368.66 61.11 377.86C59.37 384.08 60.74 388.86 66.34 393.74Z" fill="#ABA49E"/>
<path d="M75.73 483.05C89.97 483.17 104.28 483.63 117.93 478.62C122.93 476.79 128.6 474.87 126.05 467.35C131.206 467.779 136.288 468.847 141.18 470.53C143.18 471.25 145.18 472.53 145.18 474.96C145.18 477.22 143.03 477.89 141.34 478.6C134.75 481.35 127.7 482.16 120.7 482.81C108.774 484.075 96.7792 484.566 84.79 484.28C82.69 484.2 80.52 484.04 78.72 485.53L75.73 483.05Z" fill="#E8B05D"/>
<path d="M149.55 262.2C135.32 272.25 114.72 272.25 100.45 262.2C101.16 257.2 104.96 255.12 109.06 254.03C119.496 251.206 130.494 251.206 140.93 254.03C145 255.13 148.83 257.22 149.55 262.2ZM141.28 262.27C143.61 259.76 142.22 258.09 139.99 256.6C133.99 252.6 115.42 252.72 109.85 256.78C107.59 258.42 106.52 260.2 109.25 262.38C118 268.2 133.25 268.14 141.28 262.27Z" fill="#F29262"/>
<path d="M155.26 515.39C138.873 523.31 122.477 523.31 106.07 515.39C106.63 509.96 110.14 507.46 115.07 506.06C121.793 504.14 128.836 503.612 135.77 504.51C130.52 505.42 125.16 505.94 120.06 507.39C117.06 508.23 112.01 508.78 115.06 514.39C123.83 520.1 139.2 520 146.83 514.18C149.83 510.83 147.14 509.5 144.7 507.96C142.63 506.66 139.47 507.53 138.2 504.68C145.45 505.77 153.28 505.91 155.26 515.39Z" fill="#F5A165"/>
<path d="M434.33 307.76L428.71 318.12C423.55 318.02 418.4 317.85 413.24 317.84C408.51 317.84 408.84 315.84 410.9 312.7C416.12 304.75 424.6 302.92 434.33 307.76Z" fill="#BE6770"/>
<path d="M74.86 144.78C73.3467 147.993 71.8333 151.2 70.32 154.4C64.48 154.48 58.63 154.58 52.78 154.62C51.8817 154.555 50.9893 154.425 50.11 154.23C54.19 142.26 64.46 138.43 74.86 144.78Z" fill="#BE6770"/>
<path d="M250.45 534.66C248.45 533.95 246.12 534.35 244.45 532.66C245.13 528.58 244.4 526.01 239.6 524.44C233.69 522.51 231.2 515.19 233.09 509.12C233.48 507.88 234.09 506.78 235.29 506.76C236.91 506.76 237.63 508 237.78 509.54C237.829 511.171 237.979 512.798 238.23 514.41C238.76 516.74 239.74 519.03 242.36 519.59C245.56 520.27 244.26 517.1 245.22 515.84C245.97 514.84 246.8 513.89 248.05 514.48C248.686 514.789 249.219 515.275 249.585 515.88C249.95 516.485 250.133 517.183 250.11 517.89L250.45 534.66Z" fill="#8389C1"/>
<path d="M44.58 470C49.3 469.89 54.18 467.88 58.64 471C60.91 472.59 63.31 474.29 63.1 477.5C62.89 480.71 59.48 479.67 57.8 480.98C53.59 480.85 49.38 480.82 45.19 480.57C43.26 480.45 40.65 481.57 39.69 478.88C38.97 476.88 40.69 475.46 41.79 473.98C42.76 472.65 43.65 471.29 44.58 470Z" fill="#D15970"/>
<path d="M86 378.25C91.38 379.01 95.44 382.32 99.48 385.51C103.52 388.7 104.29 392.62 101.58 396.78C98.58 401.39 97.58 406.25 98.93 413.42C93.85 409.33 91.78 405.03 93.32 401.09C97.21 391.09 92.51 384.53 86.05 378.2L86 378.25Z" fill="#ABA49E"/>
<path d="M138.2 504.71C139.47 507.56 142.63 506.71 144.7 507.99C147.14 509.53 149.83 510.86 146.83 514.21C136.22 510.41 125.63 511.21 115.06 514.42C111.96 508.78 117.06 508.23 120.06 507.42C125.16 505.97 130.52 505.42 135.77 504.54L138.2 504.71Z" fill="#EC7D76"/>
<path d="M299.73 547.07C298 546.63 296.02 546.86 294.73 545.2C296.58 542.2 295.89 538.85 296.33 535.66C296.53 534.2 297.25 532.86 298.82 532.66C299.412 532.629 299.994 532.815 300.458 533.183C300.922 533.552 301.236 534.077 301.34 534.66C302.95 540.75 304.97 537.66 306.96 534.95C308.23 533.24 309.68 530.95 311.88 532.95C313.73 534.61 312.05 536.76 311.23 538.68C309 543.82 302.31 542.57 299.73 547.07Z" fill="#8389C1"/>
<path d="M99.44 99.28C105.03 98.61 109.27 100.95 112.67 105.17C113.03 107.7 112.31 109.29 109.38 109.17C107.03 109.1 104.63 109.48 102.38 109.17C99.38 108.69 94.88 111.27 93.67 107.26C92.48 103.39 96.6 101.33 99.44 99.28Z" fill="#BE6770"/>
<path d="M142 71.12C132.63 74.41 123.62 71.02 114.5 69.68C124.74 61.41 133.08 61.85 142 71.12Z" fill="#6577AE"/>
<path d="M135.52 282C139.34 281 143.17 280 146.99 279C151.16 277.85 153.38 275.26 152.87 270.74C155.62 271.24 158.4 271.66 161.13 272.25C163.37 272.74 166.26 272.99 166.3 275.97C166.34 278.95 163.5 279.59 161.3 280.08C152.829 281.857 144.16 282.503 135.52 282Z" fill="#E8B05D"/>
<path d="M61.93 454.67C55.15 447.56 63.45 447.16 66.49 444.42C67.14 446.04 67.78 447.65 68.7 449.98L72.92 441.81L78.74 440.19C79.84 444.37 75.86 446.55 74.91 449.93C71.16 453.09 66.11 452.69 61.93 454.67Z" fill="#EC7D76"/>
<path d="M52 283.61C48.93 282.35 43.45 285.55 43.08 280.9C42.71 276.25 48.33 275.44 52.17 275.27C56.01 275.1 60.93 277.69 60.64 281.09C60.2 285.7 54.84 282.22 52 283.61Z" fill="#F9BA82"/>
<path d="M270.73 70.88C270.52 67.48 277.73 63.53 281.54 64.51C283.316 65.0667 284.976 65.9408 286.44 67.09C287.73 68.01 289.44 69.2 289.01 70.95C288.54 72.95 286.4 72.48 284.85 72.51C281.35 72.58 277.85 72.51 274.34 72.51C272.68 72.48 271.07 72.27 270.73 70.88Z" fill="#F9BA82"/>
<path d="M170.54 313.31C167.68 311.96 162.23 315.41 162.01 310.41C161.85 306.58 167.13 305.23 170.74 304.99C174.94 304.71 179.94 307.3 179.57 311.08C179.16 315.14 173.68 312.13 170.54 313.31Z" fill="#F9BA82"/>
<path d="M140.54 533.2C144.27 532.56 147.92 532.46 149.85 527.87C151.1 524.87 154.76 523.98 158.16 523.99C161.44 525.84 165.16 527.39 163.93 532.34L140.54 533.2Z" fill="#E3616E"/>
<path d="M460.9 235.3C458.09 234.47 452.7 237.11 452.84 233.13C452.97 228.94 458.31 228.13 462.51 228.32C463.449 228.344 464.375 228.544 465.24 228.91C467.38 229.84 470.4 230.78 470.16 233.3C469.84 236.71 466.47 234.87 464.42 235.3C463.249 235.41 462.071 235.41 460.9 235.3Z" fill="#F9BA82"/>
<path d="M522.11 202.75C521.65 202.825 521.18 202.825 520.72 202.75C518.42 201.92 514.22 204.75 513.97 200.68C513.77 197.36 517.64 196.26 520.71 195.84C522.553 195.534 524.439 195.613 526.25 196.07C528.7 196.82 531.52 198.4 531.05 201.2C530.62 203.76 527.54 202.49 525.6 202.74C524.438 202.818 523.272 202.822 522.11 202.75Z" fill="#F9BA82"/>
<path d="M486.6 187.19C486.132 187.245 485.658 187.245 485.19 187.19C482.74 186.54 478.33 188.82 478.19 185.19C478.05 181.73 482.36 180.65 485.7 180.19C487.096 179.98 488.521 180.086 489.87 180.5C492.45 181.42 496.15 182.31 495.58 185.59C495.11 188.34 491.58 186.78 489.41 187.13C488.476 187.22 487.537 187.24 486.6 187.19Z" fill="#F9BA82"/>
<path d="M188.11 458.87C187.465 458.942 186.815 458.942 186.17 458.87C183.8 458.16 179.52 460.63 179.35 456.73C179.22 453.6 183.27 452.14 186.29 452.05C190.46 451.93 196.46 452.37 196.49 456.93C196.52 460.76 190.65 457.9 188.11 458.87Z" fill="#F9BA82"/>
<path d="M68.86 241C62.8 241 58.16 241 53.52 241C52.15 241 50.37 241.11 50.16 239.28C49.98 237.76 51.37 236.84 52.52 235.99C57.41 232.33 62.44 233.55 68.86 241Z" fill="#F9BA82"/>
<path d="M269.07 58.39C263.82 58.39 259.07 58.39 254.26 58.39C253.15 58.39 251.75 58.49 251.33 57.1C250.85 55.47 252.16 54.59 253.21 53.72C258.24 49.48 264.44 51.07 269.07 58.39Z" fill="#F9BA82"/>
<path d="M479.622 55.2164C477.012 53.9364 472.122 56.9064 472.002 52.8464C471.882 49.1964 476.562 47.8964 480.242 48.0064C483.622 48.1064 488.242 49.5364 487.832 52.7664C487.332 57.2964 482.322 53.6764 479.622 55.2164Z" fill="#F9BA82"/>
<path d="M27.51 268.1C24.85 266.65 19.85 270.16 19.34 265.75C18.94 262.24 23.91 261.34 26.98 261.27C30.33 261.18 35.38 261.96 35.22 265.86C35.06 269.76 30.2 266.94 27.51 268.1Z" fill="#F9BA82"/>
<path d="M492.55 357.13V383.42C485.98 377.55 489.23 370.26 488.33 364.01C490.94 362.46 490.17 358.83 492.55 357.13Z" fill="#EC7D76"/>
<path d="M163.93 532.34C165.14 527.34 161.44 525.84 158.16 523.99C158.21 523.53 158.25 523.07 158.3 522.62C161.24 523.2 164.24 523.62 167.11 524.42C169.03 524.97 171.6 525.42 171.73 527.97C171.88 530.75 169.14 530.78 167.27 531.46C166.2 531.85 165.05 532.05 163.93 532.34Z" fill="#E8B05D"/>
<path d="M145.46 105C147.872 103.667 149.89 101.722 151.31 99.36C154.87 99.71 158.77 98.8 162.05 102.24C156.64 106.12 150.92 104.8 145.46 105Z" fill="#E8B05D"/>
<path d="M75.73 483.05L78.73 485.53C76.26 489.05 76.16 489.07 66.27 487.98C65.27 484.76 68.78 484.65 69.84 482.88L75.73 483.05Z" fill="#E3616E"/>
<path d="M86.09 378.2L85.8 377.94L86.03 378.25L86.09 378.2Z" fill="#ABA49E"/>
<path d="M61.9301 454.67C66.1101 452.67 71.1601 453.09 74.9301 449.93C85.6301 450.44 96.4601 449.52 106.93 452.82C108.65 454.4 108.93 455.55 106.49 456.97C97.2501 462.38 70.7101 461.11 61.9301 454.67Z" fill="#6577AE"/>
<path d="M109.25 262.38C106.52 260.2 107.59 258.38 109.85 256.78C115.42 252.72 134 252.62 139.99 256.6C142.22 258.09 143.61 259.76 141.28 262.27C130.58 257.94 119.91 259.16 109.25 262.38Z" fill="#EC7D76"/>
<path d="M109.25 262.38C119.91 259.16 130.58 257.94 141.25 262.27C133.25 268.14 118 268.2 109.25 262.38Z" fill="#6577AE"/>
<path d="M115.06 514.42C125.63 511.2 136.22 510.42 146.83 514.21C139.2 520 123.83 520.13 115.06 514.42Z" fill="#6577AE"/>
</g>
<defs>
<clipPath id="clip0_2_137">
<rect width="560.13" height="563.51" fill="white"/>
</clipPath>
</defs>
</svg>
